<svg width="183" height="268" viewBox="0 0 183 268" fill="none" xmlns="http://www.w3.org/2000/svg">
<mask id="path-1-outside-1_1397_2432" maskUnits="userSpaceOnUse" x="-1.1459" y="-1.47329" width="184.456" height="272.015" fill="black">
<rect fill="white" x="-1.1459" y="-1.47329" width="184.456" height="272.015"/>
<path d="M1.61463 41.7363C2.0008 29.2482 5.3798 21.8582 11.7516 19.5663C18.1234 17.2744 26.764 20.0914 37.6733 28.0175C44.914 33.2782 51.0928 39.3187 56.2095 46.1389C61.4228 53.0292 65.3328 60.1063 67.9395 67.3702C70.6427 74.7041 71.9943 81.7125 71.9943 88.3951C71.9943 96.2711 70.4013 101.558 67.2154 104.255C64.0295 106.833 60.3126 107.474 56.0647 106.178V106.894C61.5676 113.159 65.9121 120.075 69.098 127.64C72.2839 135.205 73.8768 143.105 73.8768 151.339C73.8768 158.738 72.477 164.284 69.6772 167.978C66.974 171.622 62.9675 173.127 57.6577 172.491C52.4444 171.925 46.2174 169.012 38.9767 163.751C27.3915 155.334 18.1234 145.08 11.1724 132.989C4.31783 120.969 0.697477 107.718 0.311306 93.2364L24.3504 110.702C24.447 116.023 25.6538 121.076 27.9708 125.862C30.2878 130.529 33.6668 134.476 38.1078 137.702C41.8729 140.438 44.7692 141.229 46.7966 140.077C48.9206 138.875 49.9825 136.067 49.9825 131.652C49.9825 125.924 48.4861 120.719 45.4933 116.039C42.597 111.309 37.9147 106.595 31.4463 101.895L26.8123 98.5285V73.6475L31.4463 77.0143C36.37 80.5916 40.3283 82.4531 43.3211 82.5989C46.4104 82.6954 47.9551 80.0587 47.9551 74.6887C47.9551 70.3927 46.9897 66.3499 45.0588 62.5604C43.128 58.7709 40.4731 55.6487 37.0941 53.1937C33.4255 50.5283 30.674 49.9015 28.8397 51.3135C27.1019 52.7956 26.0882 55.4601 25.7986 59.307L1.61463 41.7363ZM128.974 102.406C139.69 110.192 149.055 119.621 157.068 130.694C165.081 141.766 171.26 153.654 175.604 166.357C180.045 179.011 182.266 191.543 182.266 203.954C182.266 216.245 180.045 225.551 175.604 231.871C171.26 238.261 165.033 241.136 156.923 240.495C148.91 239.923 139.594 235.78 128.974 228.064L90.888 200.393V74.7352L128.974 102.406ZM127.381 200.415C136.746 207.219 144.035 209.352 149.248 206.815C154.461 204.278 157.068 197.222 157.068 185.647C157.068 174.071 154.461 163.168 149.248 152.936C144.035 142.705 136.746 134.187 127.381 127.383L115.651 118.861V191.893L127.381 200.415Z"/>
</mask>
<path d="M1.61463 41.7363C2.0008 29.2482 5.3798 21.8582 11.7516 19.5663C18.1234 17.2744 26.764 20.0914 37.6733 28.0175C44.914 33.2782 51.0928 39.3187 56.2095 46.1389C61.4228 53.0292 65.3328 60.1063 67.9395 67.3702C70.6427 74.7041 71.9943 81.7125 71.9943 88.3951C71.9943 96.2711 70.4013 101.558 67.2154 104.255C64.0295 106.833 60.3126 107.474 56.0647 106.178V106.894C61.5676 113.159 65.9121 120.075 69.098 127.64C72.2839 135.205 73.8768 143.105 73.8768 151.339C73.8768 158.738 72.477 164.284 69.6772 167.978C66.974 171.622 62.9675 173.127 57.6577 172.491C52.4444 171.925 46.2174 169.012 38.9767 163.751C27.3915 155.334 18.1234 145.08 11.1724 132.989C4.31783 120.969 0.697477 107.718 0.311306 93.2364L24.3504 110.702C24.447 116.023 25.6538 121.076 27.9708 125.862C30.2878 130.529 33.6668 134.476 38.1078 137.702C41.8729 140.438 44.7692 141.229 46.7966 140.077C48.9206 138.875 49.9825 136.067 49.9825 131.652C49.9825 125.924 48.4861 120.719 45.4933 116.039C42.597 111.309 37.9147 106.595 31.4463 101.895L26.8123 98.5285V73.6475L31.4463 77.0143C36.37 80.5916 40.3283 82.4531 43.3211 82.5989C46.4104 82.6954 47.9551 80.0587 47.9551 74.6887C47.9551 70.3927 46.9897 66.3499 45.0588 62.5604C43.128 58.7709 40.4731 55.6487 37.0941 53.1937C33.4255 50.5283 30.674 49.9015 28.8397 51.3135C27.1019 52.7956 26.0882 55.4601 25.7986 59.307L1.61463 41.7363ZM128.974 102.406C139.69 110.192 149.055 119.621 157.068 130.694C165.081 141.766 171.26 153.654 175.604 166.357C180.045 179.011 182.266 191.543 182.266 203.954C182.266 216.245 180.045 225.551 175.604 231.871C171.26 238.261 165.033 241.136 156.923 240.495C148.91 239.923 139.594 235.78 128.974 228.064L90.888 200.393V74.7352L128.974 102.406ZM127.381 200.415C136.746 207.219 144.035 209.352 149.248 206.815C154.461 204.278 157.068 197.222 157.068 185.647C157.068 174.071 154.461 163.168 149.248 152.936C144.035 142.705 136.746 134.187 127.381 127.383L115.651 118.861V191.893L127.381 200.415Z" fill="#D9D9D9"/>
<path d="M1.61463 41.7363L0.806181 41.1116L0.774807 42.1262L1.61463 42.7363V41.7363ZM11.7516 19.5663L12.2857 20.7055L12.2857 20.7055L11.7516 19.5663ZM56.2095 46.1389L55.8532 46.7778L55.8586 46.7849L56.2095 46.1389ZM67.9395 67.3702L67.2457 67.3806L67.2491 67.39L67.2526 67.3994L67.9395 67.3702ZM67.2154 104.255L67.8457 105.34L67.8515 105.335L67.2154 104.255ZM56.0647 106.178L55.8037 105.041L55.2557 104.874V105.59L56.0647 106.178ZM56.0647 106.894L55.2557 106.306V107.027L55.8089 107.656L56.0647 106.894ZM69.098 127.64L69.7452 127.51L69.098 127.64ZM69.6772 167.978L68.9848 166.958L68.9822 166.961L69.6772 167.978ZM57.6577 172.491L57.3011 171.334L57.2959 171.334L57.6577 172.491ZM11.1724 132.989L10.6553 133.383L10.6596 133.39L11.1724 132.989ZM0.311306 93.2364V92.2364L-0.525361 91.6286L-0.497254 92.6826L0.311306 93.2364ZM24.3504 110.702L25.1592 111.267L25.1413 110.276L24.3504 109.702V110.702ZM27.9708 125.862L27.3763 126.109L27.3817 126.12L27.3872 126.131L27.9708 125.862ZM46.7966 140.077L46.212 138.961L46.2114 138.961L46.7966 140.077ZM45.4933 116.039L45.0149 116.498L45.027 116.518L45.0396 116.537L45.4933 116.039ZM26.8123 98.5285L26.0033 97.9407V98.9407L26.8123 99.5285V98.5285ZM26.8123 73.6475V72.6475L26.0033 72.0597V73.0597L26.8123 73.6475ZM43.3211 82.5989L43.7101 83.7584L43.7177 83.7586L43.3211 82.5989ZM45.0588 62.5604L45.6309 62.2689L45.0588 62.5604ZM28.8397 51.3135L28.216 50.2235L28.2092 50.2287L28.2026 50.2343L28.8397 51.3135ZM25.7986 59.307V60.307L26.5394 60.8452L26.6045 59.9804L25.7986 59.307ZM2.42309 42.3611C2.80291 30.0783 6.11624 22.9246 12.2857 20.7055L11.2176 18.4271C4.64336 20.7919 1.1987 28.4182 0.806181 41.1116L2.42309 42.3611ZM12.2857 20.7055C18.4716 18.4804 26.9028 21.1923 37.6733 29.0175V27.0175C26.6252 18.9906 17.7753 16.0683 11.2176 18.4271L12.2857 20.7055ZM37.6733 29.0175C44.8229 34.212 50.8732 40.1398 55.8532 46.7778L56.5658 45.5C51.3123 38.4975 45.0051 32.3444 37.6733 27.0175V29.0175ZM55.8586 46.7849C60.9503 53.5146 64.7315 60.3742 67.2457 67.3806L68.6332 67.3597C65.9341 59.8384 61.8953 52.5438 56.5605 45.4929L55.8586 46.7849ZM67.2526 67.3994C69.8713 74.5044 71.1852 81.3004 71.1852 87.8074L72.8033 88.9829C72.8033 82.1246 71.414 74.9039 68.6264 67.3409L67.2526 67.3994ZM71.1852 87.8074C71.1852 95.5134 69.6288 100.593 66.5792 103.175L67.8515 105.335C71.1738 102.522 72.8033 97.0289 72.8033 88.9829L71.1852 87.8074ZM66.5852 103.17C63.4823 105.681 59.888 106.288 55.8037 105.041L56.3258 107.314C60.7372 108.66 64.5767 107.985 67.8456 105.34L66.5852 103.17ZM55.2557 105.59V106.306L56.8737 107.481V106.765L55.2557 105.59ZM55.8089 107.656C61.1708 113.761 65.3727 120.46 68.4508 127.77L69.7452 127.51C66.4514 119.689 61.9645 112.557 56.3205 106.131L55.8089 107.656ZM68.4508 127.77C71.5074 135.028 73.0678 142.678 73.0678 150.751L74.6859 151.927C74.6859 143.532 73.0603 135.382 69.7452 127.51L68.4508 127.77ZM73.0678 150.751C73.0678 157.987 71.7004 163.375 68.9848 166.958L70.3697 168.998C73.2536 165.193 74.6859 159.488 74.6859 151.927L73.0678 150.751ZM68.9822 166.961C66.3686 170.485 62.4878 171.955 57.3012 171.334L58.0142 173.648C63.4473 174.298 67.5795 172.76 70.3723 168.995L68.9822 166.961ZM57.2959 171.334C52.2188 170.783 46.1215 167.943 38.9767 162.751V164.751C46.3132 170.082 52.6699 173.068 58.0195 173.648L57.2959 171.334ZM38.9767 162.751C27.5236 154.43 18.4542 144.363 11.6851 132.589L10.6596 133.39C17.7927 145.798 27.2595 156.238 38.9767 164.751V162.751ZM11.6894 132.596C5.06087 120.972 1.50067 108.07 1.11987 93.7903L-0.497254 92.6826C-0.105718 107.365 3.57479 120.966 10.6553 133.383L11.6894 132.596ZM0.311306 94.2364L24.3504 111.702V109.702L0.311306 92.2364V94.2364ZM23.5416 110.137C23.6415 115.642 24.8953 120.984 27.3763 126.109L28.5653 125.616C26.4122 121.169 25.2524 116.403 25.1592 111.267L23.5416 110.137ZM27.3872 126.131C29.9019 131.196 33.5216 135.37 38.1078 138.702V136.702C33.812 133.581 30.6737 129.862 28.5544 125.594L27.3872 126.131ZM38.1078 138.702C42.0282 141.551 45.1616 142.455 47.3818 141.193L46.2114 138.961C44.3768 140.004 41.7177 139.325 38.1078 136.702V138.702ZM47.3812 141.193C49.6725 139.897 50.7915 136.867 50.7915 132.239L49.1735 131.064C49.1735 135.267 48.1686 137.854 46.212 138.961L47.3812 141.193ZM50.7915 132.239C50.7915 126.285 49.2241 120.666 45.947 115.541L45.0396 116.537C47.7482 120.773 49.1735 125.563 49.1735 131.064L50.7915 132.239ZM45.9717 115.58C42.8635 110.505 37.9659 105.632 31.4463 100.895V102.895C37.8635 107.558 42.3305 112.114 45.0149 116.498L45.9717 115.58ZM31.4463 100.895L26.8123 97.5285V99.5285L31.4463 102.895V100.895ZM27.6213 99.1163V74.2353L26.0033 73.0597V97.9407L27.6213 99.1163ZM26.8123 74.6475L31.4463 78.0143V76.0143L26.8123 72.6475V74.6475ZM31.4463 78.0143C36.4497 81.6495 40.5569 83.6047 43.7101 83.7583L42.9321 81.4394C40.0997 81.3015 36.2903 79.5337 31.4463 76.0143V78.0143ZM43.7177 83.7586C47.123 83.865 48.7641 80.9117 48.7641 75.2765L47.1461 74.1009C47.1461 79.2057 45.6979 81.5258 42.9245 81.4391L43.7177 83.7586ZM48.7641 75.2765C48.7641 70.7912 47.752 66.4319 45.6309 62.2689L44.4868 62.8519C46.2274 66.268 47.1461 69.9942 47.1461 74.1009L48.7641 75.2765ZM45.6309 62.2689C43.514 58.1143 40.6336 54.7653 37.0941 52.1937V54.1937C40.3125 56.532 42.742 59.4275 44.4868 62.8519L45.6309 62.2689ZM37.0941 52.1937C33.2557 49.4049 30.2444 48.6621 28.216 50.2235L29.4634 52.4035C31.1036 51.141 33.5952 51.6516 37.0941 54.1937V52.1937ZM28.2026 50.2343C26.353 51.8117 25.2937 54.6355 24.9927 58.6336L26.6045 59.9804C26.8827 56.2847 27.8508 53.7795 29.4768 52.3927L28.2026 50.2343ZM25.7986 58.307L1.61463 40.7363V42.7363L25.7986 60.307V58.307ZM157.068 130.694L157.447 130.086L157.068 130.694ZM175.604 166.357L174.899 166.335L174.902 166.344L174.905 166.352L175.604 166.357ZM175.604 231.871L174.903 230.863L174.899 230.869L175.604 231.871ZM156.923 240.495L156.548 239.336L156.544 239.336L156.923 240.495ZM90.888 200.393L90.0789 199.805V200.805L90.888 201.393V200.393ZM90.888 74.7352V73.7352L90.0789 73.1474V74.1474L90.888 74.7352ZM115.651 118.861V117.861L114.842 117.273V118.273L115.651 118.861ZM115.651 191.893L114.842 191.305V192.305L115.651 192.893V191.893ZM128.974 103.406C139.582 111.114 148.812 120.418 156.689 131.302L157.447 130.086C149.298 118.825 139.798 109.271 128.974 101.406V103.406ZM156.689 131.302C164.569 142.19 170.633 153.86 174.899 166.335L176.309 166.379C171.887 153.448 165.594 141.343 157.447 130.086L156.689 131.302ZM174.905 166.352C179.265 178.774 181.457 191.108 181.457 203.366L183.075 204.542C183.075 191.979 180.826 179.248 176.303 166.362L174.905 166.352ZM181.457 203.366C181.457 215.503 179.265 224.655 174.903 230.863L176.306 232.879C180.825 226.447 183.075 216.987 183.075 204.542L181.457 203.366ZM174.899 230.869C170.634 237.142 164.524 239.967 156.548 239.336L157.299 241.653C165.542 242.305 171.886 239.381 176.309 232.874L174.899 230.869ZM156.544 239.336C148.666 238.774 139.484 234.701 128.974 227.064V229.064C139.703 236.86 149.154 241.073 157.302 241.653L156.544 239.336ZM128.974 227.064L90.888 199.393V201.393L128.974 229.064V227.064ZM91.697 200.981V75.323L90.0789 74.1474V199.805L91.697 200.981ZM90.888 75.7352L128.974 103.406V101.406L90.888 73.7352V75.7352ZM127.381 201.415C136.895 208.327 144.411 210.57 149.815 207.941L148.681 205.69C143.659 208.134 136.596 206.11 127.381 199.415V201.415ZM149.815 207.941C155.224 205.309 157.877 197.999 157.877 186.235L156.259 185.059C156.259 196.445 153.699 203.248 148.681 205.69L149.815 207.941ZM157.877 186.235C157.877 174.469 155.223 163.249 149.82 152.645L148.676 153.228C153.699 163.087 156.259 173.674 156.259 185.059L157.877 186.235ZM149.82 152.645C144.417 142.04 136.899 133.298 127.381 126.383V128.383C136.592 135.075 143.653 143.369 148.676 153.228L149.82 152.645ZM127.381 126.383L115.651 117.861V119.861L127.381 128.383V126.383ZM114.842 118.273V191.305L116.46 192.481V119.449L114.842 118.273ZM115.651 192.893L127.381 201.415V199.415L115.651 190.893V192.893Z" fill="white" mask="url(#path-1-outside-1_1397_2432)"/>
</svg>
