<svg width="28" height="28" viewBox="0 0 28 28" fill="none" xmlns="http://www.w3.org/2000/svg">
<path opacity="0.5" d="M1.07886 13.9873C1.07886 8.09474 1.07886 5.14847 2.90944 3.31789C4.74002 1.4873 7.6863 1.4873 13.5789 1.4873C19.4714 1.4873 22.4177 1.4873 24.2482 3.31789C26.0789 5.14847 26.0789 8.09474 26.0789 13.9873C26.0789 19.8798 26.0789 22.8262 24.2482 24.6567C22.4177 26.4873 19.4714 26.4873 13.5789 26.4873C7.6863 26.4873 4.74002 26.4873 2.90944 24.6567C1.07886 22.8262 1.07886 19.8798 1.07886 13.9873Z" stroke="#64ECC7" stroke-width="1.875"/>
<path d="M16.0789 8.9873V8.0498C15.5611 8.0498 15.1414 8.46954 15.1414 8.9873H16.0789ZM15.1414 18.9873C15.1414 19.5051 15.5611 19.9248 16.0789 19.9248C16.5966 19.9248 17.0164 19.5051 17.0164 18.9873H15.1414ZM9.20386 8.9873L10.0987 8.70767C9.97638 8.31629 9.61391 8.0498 9.20386 8.0498C8.79381 8.0498 8.43135 8.31629 8.30904 8.70767L9.20386 8.9873ZM5.18404 18.7077C5.0296 19.2019 5.30504 19.7277 5.79923 19.8822C6.29343 20.0366 6.81925 19.7612 6.97369 19.2669L5.18404 18.7077ZM11.434 19.2669C11.5885 19.7612 12.1142 20.0366 12.6085 19.8822C13.1027 19.7277 13.3781 19.2019 13.2237 18.7077L11.434 19.2669ZM16.0789 13.9873H15.1414V14.9248H16.0789V13.9873ZM20.2839 19.4842C20.5582 19.9233 21.1366 20.0567 21.5757 19.7823C22.0149 19.5079 22.1482 18.9296 21.8739 18.4904L20.2839 19.4842ZM8.30904 8.70767L6.27779 15.2077L8.06744 15.7669L10.0987 9.26694L8.30904 8.70767ZM6.27779 15.2077L5.18404 18.7077L6.97369 19.2669L8.06744 15.7669L6.27779 15.2077ZM8.30904 9.26694L10.3403 15.7669L12.13 15.2077L10.0987 8.70767L8.30904 9.26694ZM10.3403 15.7669L11.434 19.2669L13.2237 18.7077L12.13 15.2077L10.3403 15.7669ZM7.17261 16.4248H11.2351V14.5498H7.17261V16.4248ZM16.0789 9.9248H18.5789V8.0498H16.0789V9.9248ZM17.0164 13.9873V8.9873H15.1414V13.9873H17.0164ZM20.1414 11.4873C20.1414 12.3503 19.4419 13.0498 18.5789 13.0498V14.9248C20.4774 14.9248 22.0164 13.3858 22.0164 11.4873H20.1414ZM18.5789 9.9248C19.4419 9.9248 20.1414 10.6244 20.1414 11.4873H22.0164C22.0164 9.58883 20.4774 8.0498 18.5789 8.0498V9.9248ZM15.1414 8.9873V18.9873H17.0164V8.9873H15.1414ZM18.5789 13.0498H17.9539V14.9248H18.5789V13.0498ZM17.9539 13.0498H16.0789V14.9248H17.9539V13.0498ZM17.1589 14.4842L20.2839 19.4842L21.8739 18.4904L18.7489 13.4904L17.1589 14.4842Z" fill="#64ECC7"/>
</svg>
