<svg width="26" height="26" viewBox="0 0 26 26" fill="none" xmlns="http://www.w3.org/2000/svg">
<path d="M23.1437 0.287451C24.4835 -0.214978 25.7919 1.09339 25.2895 2.4332L17.1131 24.2368C16.5174 25.8253 14.2061 25.612 13.9112 23.9413L12.5092 15.9963C12.2454 14.5017 11.0753 13.3315 9.58061 13.0677L1.63563 11.6657C-0.0350609 11.3708 -0.248428 9.05949 1.34006 8.46381L23.1437 0.287451Z" fill="#EEFF7E"/>
<path d="M9.65302 12.6574L9.58061 13.0677L9.65303 12.6574C11.3201 12.9516 12.6253 14.2568 12.9196 15.9239L12.5092 15.9963L12.9196 15.9239L14.3216 23.8689C14.5427 25.1219 16.2762 25.2819 16.723 24.0905L24.8993 2.2869C25.2761 1.28205 24.2949 0.300766 23.29 0.677588L1.48636 8.85394C0.294994 9.30071 0.455019 11.0342 1.70804 11.2553L9.65302 12.6574Z" stroke="white" stroke-width="0.833333"/>
</svg>
