<svg width="41" height="40" viewBox="0 0 41 40" fill="none" xmlns="http://www.w3.org/2000/svg">
<path d="M38.833 17.4997H2.16634C1.70634 17.4997 1.33301 17.1263 1.33301 16.6663C1.33301 16.2063 1.70634 15.833 2.16634 15.833H3.03134C3.45801 10.2463 8.13968 5.83301 13.833 5.83301C14.293 5.83301 14.6663 6.20634 14.6663 6.66634C14.6663 7.12634 14.293 7.49967 13.833 7.49967C9.05967 7.49967 5.12634 11.168 4.70301 15.833H36.2947C35.873 11.168 31.9397 7.49967 27.1647 7.49967C26.7047 7.49967 26.3313 7.12634 26.3313 6.66634C26.3313 6.20634 26.7047 5.83301 27.1647 5.83301C32.858 5.83301 37.5397 10.2463 37.9663 15.833H38.833C39.293 15.833 39.6663 16.2063 39.6663 16.6663C39.6663 17.1263 39.293 17.4997 38.833 17.4997Z" fill="white"/>
<path d="M29.6193 35.8322H11.3793C9.50433 35.8322 7.85266 34.5706 7.35933 32.7623L3.02933 16.8856C2.90766 16.4406 3.16933 15.9822 3.61433 15.8622C4.05599 15.7422 4.51599 16.0022 4.63599 16.4472L8.96599 32.3239C9.26099 33.4072 10.2527 34.1656 11.3777 34.1656H29.6177C30.7427 34.1656 31.7343 33.4072 32.0293 32.3239L36.3593 16.4472C36.4793 16.0022 36.9427 15.7422 37.3827 15.8622C37.8277 15.9839 38.0893 16.4422 37.9677 16.8856L33.6377 32.7623C33.146 34.5706 31.4943 35.8322 29.6193 35.8322Z" fill="white"/>
<path d="M20.4998 32.4993C20.0398 32.4993 19.6665 32.126 19.6665 31.666V19.9993C19.6665 19.5393 20.0398 19.166 20.4998 19.166C20.9598 19.166 21.3332 19.5393 21.3332 19.9993V31.666C21.3332 32.126 20.9598 32.4993 20.4998 32.4993Z" fill="white"/>
<path d="M24.6665 32.4991C24.6281 32.4991 24.5881 32.4974 24.5481 32.4908C24.0931 32.4258 23.7765 32.0041 23.8415 31.5474L25.5081 19.8808C25.5731 19.4258 25.9948 19.1108 26.4515 19.1741C26.9065 19.2391 27.2231 19.6608 27.1581 20.1174L25.4915 31.7841C25.4315 32.1991 25.0765 32.4991 24.6665 32.4991Z" fill="white"/>
<path d="M16.3331 32.4987C15.9248 32.4987 15.5681 32.1987 15.5081 31.7837L13.8415 20.117C13.7765 19.662 14.0931 19.2387 14.5481 19.1737C15.0031 19.1037 15.4265 19.4237 15.4915 19.8803L17.1581 31.547C17.2231 32.002 16.9065 32.4253 16.4515 32.4903C16.4115 32.497 16.3715 32.4987 16.3331 32.4987Z" fill="white"/>
<path d="M28.8331 32.5002C28.7565 32.5002 28.6798 32.4902 28.6031 32.4685C28.1598 32.3419 27.9048 31.8802 28.0298 31.4385L31.3631 19.7719C31.4898 19.3285 31.9565 19.0769 32.3931 19.1985C32.8365 19.3252 33.0915 19.7869 32.9665 20.2285L29.6331 31.8952C29.5298 32.2619 29.1965 32.5002 28.8331 32.5002Z" fill="white"/>
<path d="M12.1662 32.4996C11.8045 32.4996 11.4712 32.2613 11.3662 31.8946L8.03283 20.228C7.90616 19.7863 8.16283 19.3246 8.60616 19.198C9.04449 19.078 9.50949 19.328 9.63616 19.7713L12.9695 31.438C13.0962 31.8796 12.8395 32.3413 12.3962 32.468C12.3178 32.4896 12.2412 32.4996 12.1662 32.4996Z" fill="white"/>
<path d="M25.4995 9.16602H15.4995C14.1212 9.16602 12.9995 8.04435 12.9995 6.66602C12.9995 5.28768 14.1212 4.16602 15.4995 4.16602H25.4995C26.8778 4.16602 27.9995 5.28768 27.9995 6.66602C27.9995 8.04435 26.8778 9.16602 25.4995 9.16602ZM15.4995 5.83268C15.0395 5.83268 14.6662 6.20602 14.6662 6.66602C14.6662 7.12602 15.0395 7.49935 15.4995 7.49935H25.4995C25.9595 7.49935 26.3328 7.12602 26.3328 6.66602C26.3328 6.20602 25.9595 5.83268 25.4995 5.83268H15.4995Z" fill="white"/>
</svg>
