<svg width="262" height="78" viewBox="0 0 262 78" fill="none" xmlns="http://www.w3.org/2000/svg">
<path d="M223.701 77.5773C244.82 77.5773 262 60.3969 262 39.2784C262 18.1599 244.82 0.979492 223.701 0.979492C202.583 0.979492 185.402 18.1599 185.402 39.2784C185.402 60.3969 202.583 77.5773 223.701 77.5773ZM223.701 4.30838C242.982 4.30838 258.671 19.9974 258.671 39.2784C258.671 58.5593 242.982 74.2484 223.701 74.2484C204.42 74.2484 188.731 58.5593 188.731 39.2784C188.731 19.9974 204.42 4.30838 223.701 4.30838Z" fill="white"/>
<path d="M217.06 60.8996C217.486 60.8996 217.912 60.7364 218.239 60.4135L238.212 40.4402C238.861 39.7911 238.861 38.7358 238.212 38.0867L218.239 18.1133C217.589 17.4642 216.534 17.4642 215.885 18.1133C215.236 18.7624 215.236 19.8177 215.885 20.4668L234.68 39.2618L215.885 58.0567C215.236 58.7058 215.236 59.7611 215.885 60.4102C216.211 60.7364 216.634 60.8996 217.06 60.8996Z" fill="white"/>
<path d="M186.418 39.2783H6.7234e-05" stroke="white" stroke-width="2.66311"/>
</svg>
