<svg width="262" height="78" viewBox="0 0 262 78" fill="none" xmlns="http://www.w3.org/2000/svg">
<path d="M38.2989 77.5773C17.1804 77.5773 0 60.3969 0 39.2784C0 18.1599 17.1804 0.979492 38.2989 0.979492C59.4174 0.979492 76.5978 18.1599 76.5978 39.2784C76.5978 60.3969 59.4174 77.5773 38.2989 77.5773ZM38.2989 4.30838C19.018 4.30838 3.32889 19.9974 3.32889 39.2784C3.32889 58.5593 19.018 74.2484 38.2989 74.2484C57.5798 74.2484 73.2689 58.5593 73.2689 39.2784C73.2689 19.9974 57.5798 4.30838 38.2989 4.30838Z" fill="white"/>
<path d="M44.9399 60.8996C44.5138 60.8996 44.0877 60.7364 43.7615 60.4135L23.7881 40.4402C23.139 39.7911 23.139 38.7358 23.7881 38.0867L43.7615 18.1133C44.4106 17.4642 45.4659 17.4642 46.115 18.1133C46.7641 18.7624 46.7641 19.8177 46.115 20.4668L27.3201 39.2618L46.115 58.0567C46.7641 58.7058 46.7641 59.7611 46.115 60.4102C45.7888 60.7364 45.366 60.8996 44.9399 60.8996Z" fill="white"/>
<path d="M75.582 39.2783H262" stroke="white" stroke-width="2.66311"/>
</svg>
