<svg width="36" height="36" viewBox="0 0 36 36" fill="none" xmlns="http://www.w3.org/2000/svg">
<path d="M9.25 12.1667H6.33333M9.25 23.8333H6.33333M9.25 18H4.875M10.7083 7.08518C12.7939 5.68914 15.3019 4.875 18 4.875C25.2488 4.875 31.125 10.7513 31.125 18C31.125 25.2488 25.2488 31.125 18 31.125C15.3019 31.125 12.7939 30.3108 10.7083 28.9149M20.9167 14.354C20.1875 14.1732 18.9991 14.1665 18 14.1732M18 14.1732C17.6659 14.1754 17.8679 14.1612 17.4167 14.1732C16.2392 14.2099 15.0857 14.6993 15.0833 16.0858C15.0808 17.5628 16.5417 17.9999 18 17.9999C19.4583 17.9999 20.9167 18.337 20.9167 19.9139C20.9167 21.099 19.7391 21.6183 18.2714 21.7902C18.1773 21.7902 18.0871 21.7904 18 21.7908M18 14.1732V12.1667M18 21.7908C17.008 21.7949 16.424 21.8133 15.0833 21.6457M18 21.7908V23.8333" stroke="white" stroke-width="2.91667" stroke-linecap="round" stroke-linejoin="round"/>
</svg>
