<svg width="150" height="150" viewBox="0 0 150 150" fill="none" xmlns="http://www.w3.org/2000/svg">
<path fill-rule="evenodd" clip-rule="evenodd" d="M89.9994 52.5C88.0103 52.5 86.1027 51.7098 84.6961 50.3033C83.2896 48.8968 82.4994 46.9891 82.4994 45C82.4994 43.0109 83.2896 41.1032 84.6961 39.6967C86.1027 38.2902 88.0103 37.5 89.9994 37.5H127.499C129.489 37.5 131.396 38.2902 132.803 39.6967C134.209 41.1032 134.999 43.0109 134.999 45V82.5C134.999 84.4891 134.209 86.3968 132.803 87.8033C131.396 89.2098 129.489 90 127.499 90C125.51 90 123.603 89.2098 122.196 87.8033C120.79 86.3968 119.999 84.4891 119.999 82.5V63.1063L87.7994 95.3C86.3932 96.7045 84.4869 97.4934 82.4994 97.4934C80.5119 97.4934 78.6057 96.7045 77.1994 95.3L59.9994 78.1062L27.7994 110.3C26.3777 111.625 24.4972 112.346 22.5542 112.312C20.6112 112.277 18.7574 111.49 17.3832 110.116C16.0091 108.742 15.222 106.888 15.1877 104.945C15.1534 103.002 15.8746 101.122 17.1994 99.7L54.6994 62.2C56.1057 60.7955 58.0119 60.0066 59.9994 60.0066C61.9869 60.0066 63.8932 60.7955 65.2994 62.2L82.4994 79.3937L109.393 52.5H89.9994Z" fill="#38EF7D"/>
</svg>
