<svg width="30" height="30" viewBox="0 0 30 30" fill="none" xmlns="http://www.w3.org/2000/svg">
<path d="M8.22588 8.25863C7.4242 8.25863 6.77429 8.90854 6.77429 9.71022C6.77429 10.5119 7.4242 11.1618 8.22588 11.1618V8.25863ZM21.7741 11.1618C22.5757 11.1618 23.2257 10.5119 23.2257 9.71022C23.2257 8.90854 22.5757 8.25863 21.7741 8.25863V11.1618ZM9.91941 13.2115C9.11772 13.2115 8.46782 13.8614 8.46782 14.6631C8.46782 15.4647 9.11772 16.1146 9.91941 16.1146V13.2115ZM20.0806 16.1146C20.8822 16.1146 21.5321 15.4647 21.5321 14.6631C21.5321 13.8614 20.8822 13.2115 20.0806 13.2115V16.1146ZM8.54136 1.45163V0L8.53078 7.75234e-05L8.54136 1.45163ZM21.4605 1.45163L21.4716 3.87617e-05H21.4605V1.45163ZM28.5482 8.64572L27.0966 8.63506V8.64572H28.5482ZM28.5482 17.3804H27.0966V17.3911L28.5482 17.3804ZM21.4586 24.5745V26.0261H21.4692L21.4586 24.5745ZM8.54136 24.5745V23.1229C8.29283 23.1229 8.04846 23.1868 7.83165 23.3084L8.54136 24.5745ZM1.45179 28.548H0.00019339C0.00019339 29.0632 0.273382 29.5399 0.717995 29.8005C1.16259 30.061 1.71199 30.0662 2.1615 29.8142L1.45179 28.548ZM1.45179 8.64572H2.90342L2.90334 8.63506L1.45179 8.64572ZM8.22588 11.1618H21.7741V8.25863H8.22588V11.1618ZM9.91941 16.1146H20.0806V13.2115H9.91941V16.1146ZM8.54136 2.90322H21.4605V3.87617e-05L8.54136 0V2.90322ZM21.4495 2.90318C24.5917 2.92693 27.1196 5.49298 27.0966 8.63506L29.9998 8.65639C30.0346 3.91121 26.2167 0.0359221 21.4716 3.87617e-05L21.4495 2.90318ZM27.0966 8.64572V17.3804H29.9998V8.64572H27.0966ZM27.0966 17.3911C27.1076 18.9003 26.5188 20.3519 25.4594 21.4269L27.5272 23.4647C29.1271 21.8413 30.0164 19.649 29.9998 17.3698L27.0966 17.3911ZM25.4594 21.4269C24.4001 22.5018 22.9572 23.1119 21.448 23.1229L21.4692 26.0261C23.7482 26.0095 25.9276 25.0882 27.5272 23.4647L25.4594 21.4269ZM21.4586 23.1229H8.54136V26.0261H21.4586V23.1229ZM7.83165 23.3084L0.742073 27.2818L2.1615 29.8142L9.25107 25.8407L7.83165 23.3084ZM2.90338 28.548L2.90342 8.64572H0.00019339V28.548H2.90338ZM2.90334 8.63506C2.89225 7.1259 3.48115 5.67416 4.54048 4.59921L2.47266 2.56142C0.872852 4.1848 -0.0165095 6.37725 0.000232152 8.65639L2.90334 8.63506ZM4.54048 4.59921C5.59982 3.52427 7.04278 2.91418 8.55195 2.90318L8.53078 7.75234e-05C6.25164 0.0166837 4.07245 0.938038 2.47266 2.56142L4.54048 4.59921Z" fill="white"/>
</svg>
