<svg width="295" height="92" viewBox="0 0 295 92" fill="none" xmlns="http://www.w3.org/2000/svg">
<mask id="path-1-outside-1_1476_218" maskUnits="userSpaceOnUse" x="-1" y="-1" width="297" height="94" fill="black">
<rect fill="white" x="-1" y="-1" width="297" height="94"/>
<path d="M0.714005 45.944C0.714005 37.0693 2.63401 29.176 6.47401 22.264C10.314 15.2667 15.6473 9.848 22.474 6.008C29.386 2.08266 37.194 0.119995 45.898 0.119995C56.5647 0.119995 65.6953 2.93599 73.29 8.56799C80.8847 14.2 85.962 21.88 88.522 31.608H64.458C62.666 27.8533 60.106 24.9947 56.778 23.032C53.5353 21.0693 49.8233 20.088 45.642 20.088C38.9007 20.088 33.4393 22.4347 29.258 27.128C25.0767 31.8213 22.986 38.0933 22.986 45.944C22.986 53.7947 25.0767 60.0667 29.258 64.76C33.4393 69.4533 38.9007 71.8 45.642 71.8C49.8233 71.8 53.5353 70.8187 56.778 68.856C60.106 66.8933 62.666 64.0347 64.458 60.28H88.522C85.962 70.008 80.8847 77.688 73.29 83.32C65.6953 88.8667 56.5647 91.64 45.898 91.64C37.194 91.64 29.386 89.72 22.474 85.88C15.6473 81.9547 10.314 76.536 6.47401 69.624C2.63401 62.712 0.714005 54.8187 0.714005 45.944ZM151.59 91L132.902 57.08H127.654V91H105.766V1.144H142.502C149.585 1.144 155.601 2.38133 160.55 4.856C165.585 7.33066 169.339 10.744 171.814 15.096C174.289 19.3627 175.526 24.1413 175.526 29.432C175.526 35.4053 173.819 40.7387 170.406 45.432C167.078 50.1253 162.129 53.4533 155.558 55.416L176.294 91H151.59ZM127.654 41.592H141.222C145.233 41.592 148.219 40.6107 150.182 38.648C152.23 36.6853 153.254 33.912 153.254 30.328C153.254 26.9147 152.23 24.2267 150.182 22.264C148.219 20.3013 145.233 19.32 141.222 19.32H127.654V41.592ZM294.866 1.144V91H272.978V37.112L252.882 91H235.218L214.994 36.984V91H193.106V1.144H218.962L244.178 63.352L269.138 1.144H294.866Z"/>
</mask>
<path d="M6.47401 22.264L7.34817 22.7496L7.35067 22.7451L6.47401 22.264ZM22.474 6.008L22.9643 6.87958L22.9678 6.87756L22.474 6.008ZM73.29 8.56799L73.8857 7.76476L73.8857 7.76476L73.29 8.56799ZM88.522 31.608V32.608H89.8192L89.4891 31.3535L88.522 31.608ZM64.458 31.608L63.5555 32.0387L63.8272 32.608H64.458V31.608ZM56.778 23.032L56.2602 23.8876L56.27 23.8934L56.778 23.032ZM29.258 27.128L30.0047 27.7932L30.0047 27.7932L29.258 27.128ZM29.258 64.76L28.5113 65.4252L29.258 64.76ZM56.778 68.856L56.27 67.9946L56.2602 68.0005L56.778 68.856ZM64.458 60.28V59.28H63.8272L63.5555 59.8493L64.458 60.28ZM88.522 60.28L89.4891 60.5345L89.8192 59.28H88.522V60.28ZM73.29 83.32L73.8798 84.1276L73.8857 84.1232L73.29 83.32ZM22.474 85.88L21.9755 86.7469L21.9819 86.7506L21.9884 86.7542L22.474 85.88ZM6.47401 69.624L7.34816 69.1384L7.34816 69.1384L6.47401 69.624ZM1.71401 45.944C1.71401 37.2181 3.6004 29.4956 7.34816 22.7496L5.59985 21.7784C1.66761 28.8564 -0.285995 36.9206 -0.285995 45.944H1.71401ZM7.35067 22.7451C11.1027 15.9082 16.3036 10.6262 22.9643 6.87957L21.9837 5.13642C14.9911 9.06978 9.52536 14.6252 5.59734 21.7829L7.35067 22.7451ZM22.9678 6.87756C29.7153 3.04569 37.3502 1.12 45.898 1.12V-0.880005C37.0378 -0.880005 29.0568 1.11964 21.9802 5.13843L22.9678 6.87756ZM45.898 1.12C56.3789 1.12 65.2937 3.88314 72.6943 9.37123L73.8857 7.76476C66.0969 1.98884 56.7504 -0.880005 45.898 -0.880005V1.12ZM72.6943 9.37123C80.0943 14.8588 85.0488 22.3392 87.5549 31.8625L89.4891 31.3535C86.8752 21.4208 81.6751 13.5412 73.8857 7.76476L72.6943 9.37123ZM88.522 30.608H64.458V32.608H88.522V30.608ZM65.3605 31.1773C63.4897 27.2575 60.7987 24.2422 57.286 22.1706L56.27 23.8934C59.4133 25.7471 61.8423 28.4492 63.5555 32.0387L65.3605 31.1773ZM57.2958 22.1765C53.8812 20.1097 49.9865 19.088 45.642 19.088V21.088C49.6602 21.088 53.1895 22.0289 56.2602 23.8875L57.2958 22.1765ZM45.642 19.088C38.6387 19.088 32.8974 21.5397 28.5113 26.4628L30.0047 27.7932C33.9813 23.3297 39.1626 21.088 45.642 21.088V19.088ZM28.5113 26.4628C24.1291 31.3817 21.986 37.9114 21.986 45.944H23.986C23.986 38.2752 26.0243 32.261 30.0047 27.7932L28.5113 26.4628ZM21.986 45.944C21.986 53.9765 24.1291 60.5063 28.5113 65.4252L30.0047 64.0948C26.0243 59.627 23.986 53.6128 23.986 45.944H21.986ZM28.5113 65.4252C32.8974 70.3483 38.6387 72.8 45.642 72.8V70.8C39.1626 70.8 33.9813 68.5583 30.0047 64.0948L28.5113 65.4252ZM45.642 72.8C49.9865 72.8 53.8812 71.7783 57.2958 69.7115L56.2602 68.0005C53.1895 69.8591 49.6602 70.8 45.642 70.8V72.8ZM57.286 69.7174C60.7987 67.6458 63.4897 64.6305 65.3605 60.7107L63.5555 59.8493C61.8423 63.4388 59.4133 66.1409 56.27 67.9946L57.286 69.7174ZM64.458 61.28H88.522V59.28H64.458V61.28ZM87.5549 60.0255C85.0488 69.5488 80.0943 77.0292 72.6943 82.5168L73.8857 84.1232C81.6751 78.3468 86.8752 70.4672 89.4891 60.5345L87.5549 60.0255ZM72.7002 82.5124C65.2993 87.9176 56.3823 90.64 45.898 90.64V92.64C56.747 92.64 66.0914 89.8157 73.8798 84.1276L72.7002 82.5124ZM45.898 90.64C37.3464 90.64 29.7085 88.7552 22.9596 85.0058L21.9884 86.7542C29.0635 90.6848 37.0416 92.64 45.898 92.64V90.64ZM22.9725 85.0131C16.304 81.1787 11.1003 75.8922 7.34816 69.1384L5.59985 70.1096C9.52772 77.1798 14.9906 82.7306 21.9755 86.7469L22.9725 85.0131ZM7.34816 69.1384C3.6004 62.3924 1.71401 54.6699 1.71401 45.944H-0.285995C-0.285995 54.9674 1.66761 63.0316 5.59985 70.1096L7.34816 69.1384ZM151.59 91L150.714 91.4826L150.999 92H151.59V91ZM132.902 57.08L133.778 56.5974L133.493 56.08H132.902V57.08ZM127.654 57.08V56.08H126.654V57.08H127.654ZM127.654 91V92H128.654V91H127.654ZM105.766 91H104.766V92H105.766V91ZM105.766 1.144V0.143997H104.766V1.144H105.766ZM160.55 4.856L160.103 5.75044L160.109 5.75344L160.55 4.856ZM171.814 15.096L170.945 15.5903L170.949 15.5977L171.814 15.096ZM170.406 45.432L169.597 44.8438L169.59 44.8536L170.406 45.432ZM155.558 55.416L155.272 54.4578L154.054 54.8215L154.694 55.9195L155.558 55.416ZM176.294 91V92H178.034L177.158 90.4965L176.294 91ZM127.654 41.592H126.654V42.592H127.654V41.592ZM150.182 38.648L149.49 37.926L149.482 37.9334L149.475 37.9409L150.182 38.648ZM150.182 22.264L149.475 22.9711L149.482 22.9786L149.49 22.986L150.182 22.264ZM127.654 19.32V18.32H126.654V19.32H127.654ZM152.466 90.5174L133.778 56.5974L132.026 57.5626L150.714 91.4826L152.466 90.5174ZM132.902 56.08H127.654V58.08H132.902V56.08ZM126.654 57.08V91H128.654V57.08H126.654ZM127.654 90H105.766V92H127.654V90ZM106.766 91V1.144H104.766V91H106.766ZM105.766 2.144H142.502V0.143997H105.766V2.144ZM142.502 2.144C149.472 2.144 155.326 3.36185 160.103 5.75042L160.997 3.96157C155.876 1.40081 149.698 0.143997 142.502 0.143997V2.144ZM160.109 5.75344C164.986 8.15075 168.581 11.4332 170.945 15.5903L172.683 14.6017C170.098 10.0548 166.183 6.51057 160.991 3.95855L160.109 5.75344ZM170.949 15.5977C173.329 19.7009 174.526 24.3043 174.526 29.432H176.526C176.526 23.9784 175.249 19.0244 172.679 14.5943L170.949 15.5977ZM174.526 29.432C174.526 35.2006 172.882 40.3267 169.597 44.8438L171.215 46.0202C174.756 41.1506 176.526 35.61 176.526 29.432H174.526ZM169.59 44.8536C166.415 49.3316 161.671 52.5464 155.272 54.4578L155.844 56.3742C162.586 54.3603 167.741 50.9191 171.222 46.0104L169.59 44.8536ZM154.694 55.9195L175.43 91.5035L177.158 90.4965L156.422 54.9125L154.694 55.9195ZM176.294 90H151.59V92H176.294V90ZM127.654 42.592H141.222V40.592H127.654V42.592ZM141.222 42.592C145.38 42.592 148.669 41.575 150.889 39.3551L149.475 37.9409C147.77 39.6463 145.086 40.592 141.222 40.592V42.592ZM150.874 39.37C153.168 37.1718 154.254 34.1085 154.254 30.328H152.254C152.254 33.7155 151.292 36.1988 149.49 37.926L150.874 39.37ZM154.254 30.328C154.254 26.7017 153.158 23.7309 150.874 21.542L149.49 22.986C151.302 24.7224 152.254 27.1276 152.254 30.328H154.254ZM150.889 21.5569C148.669 19.337 145.38 18.32 141.222 18.32V20.32C145.086 20.32 147.77 21.2657 149.475 22.9711L150.889 21.5569ZM141.222 18.32H127.654V20.32H141.222V18.32ZM126.654 19.32V41.592H128.654V19.32H126.654ZM294.866 1.144H295.866V0.143997H294.866V1.144ZM294.866 91V92H295.866V91H294.866ZM272.978 91H271.978V92H272.978V91ZM272.978 37.112H273.978L272.041 36.7626L272.978 37.112ZM252.882 91V92H253.576L253.819 91.3494L252.882 91ZM235.218 91L234.281 91.3506L234.525 92H235.218V91ZM214.994 36.984L215.931 36.6334L213.994 36.984H214.994ZM214.994 91V92H215.994V91H214.994ZM193.106 91H192.106V92H193.106V91ZM193.106 1.144V0.143997H192.106V1.144H193.106ZM218.962 1.144L219.889 0.768336L219.636 0.143997H218.962V1.144ZM244.178 63.352L243.251 63.7277L244.183 66.0256L245.106 63.7244L244.178 63.352ZM269.138 1.144V0.143997H268.462L268.21 0.771619L269.138 1.144ZM293.866 1.144V91H295.866V1.144H293.866ZM294.866 90H272.978V92H294.866V90ZM273.978 91V37.112H271.978V91H273.978ZM272.041 36.7626L251.945 90.6506L253.819 91.3494L273.915 37.4614L272.041 36.7626ZM252.882 90H235.218V92H252.882V90ZM236.155 90.6494L215.931 36.6334L214.057 37.3346L234.281 91.3506L236.155 90.6494ZM213.994 36.984V91H215.994V36.984H213.994ZM214.994 90H193.106V92H214.994V90ZM194.106 91V1.144H192.106V91H194.106ZM193.106 2.144H218.962V0.143997H193.106V2.144ZM218.035 1.51966L243.251 63.7277L245.105 62.9763L219.889 0.768336L218.035 1.51966ZM245.106 63.7244L270.066 1.51638L268.21 0.771619L243.25 62.9796L245.106 63.7244ZM269.138 2.144H294.866V0.143997H269.138V2.144Z" fill="white" mask="url(#path-1-outside-1_1476_218)"/>
</svg>
