<svg width="29" height="32" viewBox="0 0 29 32" fill="none" xmlns="http://www.w3.org/2000/svg">
<path d="M1.71045 8.68761L13.5976 2.00108C13.8212 1.87533 13.9329 1.81247 14.0514 1.78783C14.1564 1.76604 14.2645 1.76604 14.3695 1.78783C14.4879 1.81247 14.5997 1.87533 14.8233 2.00108L26.7104 8.68761M1.71045 8.68761V22.019C1.71045 22.2853 1.71045 22.4182 1.7495 22.5371C1.78406 22.6423 1.84054 22.7389 1.91523 22.8204C1.99967 22.9128 2.11565 22.9781 2.34762 23.1086L14.2104 29.7814M1.71045 8.68761L14.2104 14.9376M26.7104 8.68761V22.019C26.7104 22.2853 26.7104 22.4182 26.6714 22.5371C26.6369 22.6423 26.5803 22.7389 26.5056 22.8204C26.4212 22.9128 26.3053 22.9781 26.0733 23.1086L14.2104 29.7814M26.7104 8.68761L14.2104 14.9376M14.2104 29.7814V14.9376" stroke="#64ECC7" stroke-width="3.125" stroke-linecap="round" stroke-linejoin="round"/>
</svg>
