<svg width="717" height="147" viewBox="0 0 717 147" fill="none" xmlns="http://www.w3.org/2000/svg">
<mask id="path-1-outside-1_1353_1073" maskUnits="userSpaceOnUse" x="0" y="0" width="717" height="147" fill="black">
<rect fill="white" width="717" height="147"/>
<path d="M54.3594 3.6C69.1594 3.6 82.0927 6.53333 93.1594 12.4C104.226 18.2667 112.759 26.5333 118.759 37.2C124.893 47.7333 127.959 59.9333 127.959 73.8C127.959 87.5333 124.893 99.7333 118.759 110.4C112.759 121.067 104.159 129.333 92.9594 135.2C81.8927 141.067 69.026 144 54.3594 144H1.75938V3.6H54.3594ZM52.1594 114.4C65.0927 114.4 75.1594 110.867 82.3594 103.8C89.5594 96.7333 93.1594 86.7333 93.1594 73.8C93.1594 60.8667 89.5594 50.8 82.3594 43.6C75.1594 36.4 65.0927 32.8 52.1594 32.8H35.9594V114.4H52.1594ZM181.272 31V59.4H227.072V85.8H181.272V116.6H233.072V144H147.072V3.6H233.072V31H181.272ZM306.075 145.4C295.808 145.4 286.608 143.733 278.475 140.4C270.342 137.067 263.808 132.133 258.875 125.6C254.075 119.067 251.542 111.2 251.275 102H287.675C288.208 107.2 290.008 111.2 293.075 114C296.142 116.667 300.142 118 305.075 118C310.142 118 314.142 116.867 317.075 114.6C320.008 112.2 321.475 108.933 321.475 104.8C321.475 101.333 320.275 98.4667 317.875 96.2C315.608 93.9333 312.742 92.0667 309.275 90.6C305.942 89.1333 301.142 87.4667 294.875 85.6C285.808 82.8 278.408 80 272.675 77.2C266.942 74.4 262.008 70.2667 257.875 64.8C253.742 59.3333 251.675 52.2 251.675 43.4C251.675 30.3333 256.408 20.1333 265.875 12.8C275.342 5.33333 287.675 1.6 302.875 1.6C318.342 1.6 330.808 5.33333 340.275 12.8C349.742 20.1333 354.808 30.4 355.475 43.6H318.475C318.208 39.0667 316.542 35.5333 313.475 33C310.408 30.3333 306.475 29 301.675 29C297.542 29 294.208 30.1333 291.675 32.4C289.142 34.5333 287.875 37.6667 287.875 41.8C287.875 46.3333 290.008 49.8667 294.275 52.4C298.542 54.9333 305.208 57.6667 314.275 60.6C323.342 63.6667 330.675 66.6 336.275 69.4C342.008 72.2 346.942 76.2667 351.075 81.6C355.208 86.9333 357.275 93.8 357.275 102.2C357.275 110.2 355.208 117.467 351.075 124C347.075 130.533 341.208 135.733 333.475 139.6C325.742 143.467 316.608 145.4 306.075 145.4ZM412.522 3.6V144H378.322V3.6H412.522ZM530.506 48C527.973 43.3333 524.306 39.8 519.506 37.4C514.84 34.8667 509.306 33.6 502.906 33.6C491.84 33.6 482.973 37.2667 476.306 44.6C469.64 51.8 466.306 61.4667 466.306 73.6C466.306 86.5333 469.773 96.6667 476.706 104C483.773 111.2 493.44 114.8 505.706 114.8C514.106 114.8 521.173 112.667 526.906 108.4C532.773 104.133 537.04 98 539.706 90H496.306V64.8H570.706V96.6C568.173 105.133 563.84 113.067 557.706 120.4C551.706 127.733 544.04 133.667 534.706 138.2C525.373 142.733 514.84 145 503.106 145C489.24 145 476.84 142 465.906 136C455.106 129.867 446.64 121.4 440.506 110.6C434.506 99.8 431.506 87.4667 431.506 73.6C431.506 59.7333 434.506 47.4 440.506 36.6C446.64 25.6667 455.106 17.2 465.906 11.2C476.706 5.06666 489.04 1.99999 502.906 1.99999C519.706 1.99999 533.84 6.06666 545.306 14.2C556.906 22.3333 564.573 33.6 568.306 48H530.506ZM715.25 144H681.05L623.85 57.4V144H589.65V3.6H623.85L681.05 90.6V3.6H715.25V144Z"/>
</mask>
<path d="M93.1594 12.4L93.6278 11.5165L93.1594 12.4ZM118.759 37.2L117.888 37.6903L117.891 37.6967L117.895 37.7032L118.759 37.2ZM118.759 110.4L117.892 109.902L117.888 109.91L118.759 110.4ZM92.9594 135.2L92.4954 134.314L92.491 134.316L92.9594 135.2ZM1.75938 144H0.759376V145H1.75938V144ZM1.75938 3.59999V2.59999H0.759376V3.59999H1.75938ZM35.9594 32.8V31.8H34.9594V32.8H35.9594ZM35.9594 114.4H34.9594V115.4H35.9594V114.4ZM54.3594 4.59999C69.0257 4.59999 81.7927 7.5061 92.691 13.2835L93.6278 11.5165C82.3927 5.56055 69.2931 2.59999 54.3594 2.59999V4.59999ZM92.691 13.2835C103.593 19.0627 111.984 27.1947 117.888 37.6903L119.631 36.7097C113.535 25.872 104.86 17.4707 93.6278 11.5165L92.691 13.2835ZM117.895 37.7032C123.928 48.0637 126.959 60.0853 126.959 73.8H128.959C128.959 59.7813 125.858 47.403 119.624 36.6968L117.895 37.7032ZM126.959 73.8C126.959 87.3792 123.929 99.4036 117.892 109.902L119.626 110.898C125.857 100.063 128.959 87.6875 128.959 73.8H126.959ZM117.888 109.91C111.986 120.402 103.53 128.534 92.4954 134.314L93.4234 136.086C104.789 130.133 113.533 121.731 119.631 110.89L117.888 109.91ZM92.491 134.316C81.5914 140.095 68.8907 143 54.3594 143V145C69.1614 145 82.194 142.039 93.4277 136.084L92.491 134.316ZM54.3594 143H1.75938V145H54.3594V143ZM2.75938 144V3.59999H0.759376V144H2.75938ZM1.75938 4.59999H54.3594V2.59999H1.75938V4.59999ZM52.1594 115.4C65.2775 115.4 75.6242 111.812 83.0599 104.514L81.6589 103.086C74.6945 109.922 64.9079 113.4 52.1594 113.4V115.4ZM83.0599 104.514C90.5016 97.2097 94.1594 86.9223 94.1594 73.8H92.1594C92.1594 86.5444 88.6172 96.2569 81.6589 103.086L83.0599 104.514ZM94.1594 73.8C94.1594 60.6767 90.5013 50.3277 83.0665 42.8929L81.6523 44.3071C88.6175 51.2723 92.1594 61.0566 92.1594 73.8H94.1594ZM83.0665 42.8929C75.6317 35.4581 65.2826 31.8 52.1594 31.8V33.8C64.9028 33.8 74.6871 37.3419 81.6523 44.3071L83.0665 42.8929ZM52.1594 31.8H35.9594V33.8H52.1594V31.8ZM34.9594 32.8V114.4H36.9594V32.8H34.9594ZM35.9594 115.4H52.1594V113.4H35.9594V115.4ZM181.272 31V30H180.272V31H181.272ZM181.272 59.4H180.272V60.4H181.272V59.4ZM227.072 59.4H228.072V58.4H227.072V59.4ZM227.072 85.8V86.8H228.072V85.8H227.072ZM181.272 85.8V84.8H180.272V85.8H181.272ZM181.272 116.6H180.272V117.6H181.272V116.6ZM233.072 116.6H234.072V115.6H233.072V116.6ZM233.072 144V145H234.072V144H233.072ZM147.072 144H146.072V145H147.072V144ZM147.072 3.59999V2.59999H146.072V3.59999H147.072ZM233.072 3.59999H234.072V2.59999H233.072V3.59999ZM233.072 31V32H234.072V31H233.072ZM180.272 31V59.4H182.272V31H180.272ZM181.272 60.4H227.072V58.4H181.272V60.4ZM226.072 59.4V85.8H228.072V59.4H226.072ZM227.072 84.8H181.272V86.8H227.072V84.8ZM180.272 85.8V116.6H182.272V85.8H180.272ZM181.272 117.6H233.072V115.6H181.272V117.6ZM232.072 116.6V144H234.072V116.6H232.072ZM233.072 143H147.072V145H233.072V143ZM148.072 144V3.59999H146.072V144H148.072ZM147.072 4.59999H233.072V2.59999H147.072V4.59999ZM232.072 3.59999V31H234.072V3.59999H232.072ZM233.072 30H181.272V32H233.072V30ZM278.475 140.4L278.096 141.325L278.475 140.4ZM258.875 125.6L258.069 126.192L258.077 126.203L258.875 125.6ZM251.275 102V101H250.246L250.275 102.029L251.275 102ZM287.675 102L288.67 101.898L288.578 101H287.675V102ZM293.075 114L292.401 114.738L292.41 114.747L292.419 114.755L293.075 114ZM317.075 114.6L317.686 115.391L317.697 115.383L317.708 115.374L317.075 114.6ZM317.875 96.2L317.168 96.9071L317.178 96.9172L317.188 96.927L317.875 96.2ZM309.275 90.6L308.872 91.5153L308.879 91.5182L308.885 91.521L309.275 90.6ZM294.875 85.6L294.58 86.5555L294.59 86.5584L294.875 85.6ZM272.675 77.2L272.236 78.0986L272.675 77.2ZM257.875 64.8L258.673 64.1969L257.875 64.8ZM265.875 12.8L266.487 13.5906L266.494 13.5852L265.875 12.8ZM340.275 12.8L339.656 13.5852L339.663 13.5905L340.275 12.8ZM355.475 43.6V44.6H356.527L356.474 43.5496L355.475 43.6ZM318.475 43.6L317.477 43.6587L317.532 44.6H318.475V43.6ZM313.475 33L312.819 33.7546L312.828 33.7629L312.838 33.771L313.475 33ZM291.675 32.4L292.319 33.1649L292.331 33.1552L292.342 33.1452L291.675 32.4ZM294.275 52.4L294.786 51.5401L294.275 52.4ZM314.275 60.6L314.595 59.6526L314.583 59.6486L314.275 60.6ZM336.275 69.4L335.828 70.2945L335.836 70.2986L336.275 69.4ZM351.075 81.6L350.285 82.2126L351.075 81.6ZM351.075 124L350.23 123.465L350.226 123.472L350.222 123.478L351.075 124ZM333.475 139.6L333.028 138.706L333.475 139.6ZM306.075 144.4C295.917 144.4 286.849 142.751 278.854 139.475L278.096 141.325C286.368 144.716 295.7 146.4 306.075 146.4V144.4ZM278.854 139.475C270.874 136.204 264.49 131.377 259.673 124.997L258.077 126.203C263.126 132.89 269.809 137.929 278.096 141.325L278.854 139.475ZM259.681 125.008C255.017 118.66 252.536 110.996 252.275 101.971L250.275 102.029C250.547 111.404 253.133 119.474 258.069 126.192L259.681 125.008ZM251.275 103H287.675V101H251.275V103ZM286.68 102.102C287.232 107.481 289.109 111.733 292.401 114.738L293.749 113.262C290.907 110.667 289.185 106.919 288.67 101.898L286.68 102.102ZM292.419 114.755C295.704 117.612 299.954 119 305.075 119V117C300.329 117 296.579 115.722 293.731 113.245L292.419 114.755ZM305.075 119C310.283 119 314.524 117.835 317.686 115.391L316.464 113.809C313.76 115.898 310.001 117 305.075 117V119ZM317.708 115.374C320.897 112.765 322.475 109.202 322.475 104.8H320.475C320.475 108.664 319.12 111.635 316.442 113.826L317.708 115.374ZM322.475 104.8C322.475 101.074 321.173 97.9389 318.562 95.473L317.188 96.927C319.377 98.9944 320.475 101.593 320.475 104.8H322.475ZM318.582 95.4929C316.21 93.1208 313.23 91.1873 309.665 89.679L308.885 91.521C312.254 92.9461 315.007 94.7459 317.168 96.9071L318.582 95.4929ZM309.678 89.6847C306.288 88.193 301.441 86.5124 295.16 84.6416L294.59 86.5584C300.842 88.4209 305.596 90.0736 308.872 91.5153L309.678 89.6847ZM295.17 84.6445C286.131 81.8532 278.784 79.0707 273.114 76.3014L272.236 78.0986C278.032 80.9293 285.485 83.7468 294.58 86.5555L295.17 84.6445ZM273.114 76.3014C267.532 73.5754 262.718 69.5478 258.673 64.1969L257.077 65.4031C261.298 70.9856 266.351 75.2246 272.236 78.0986L273.114 76.3014ZM258.673 64.1969C254.704 58.9477 252.675 52.0446 252.675 43.4H250.675C250.675 52.3554 252.78 59.7189 257.077 65.4031L258.673 64.1969ZM252.675 43.4C252.675 30.6102 257.29 20.7155 266.487 13.5905L265.263 12.0094C255.527 19.5512 250.675 30.0565 250.675 43.4H252.675ZM266.494 13.5852C275.743 6.29057 287.84 2.6 302.875 2.6V0.599998C287.51 0.599998 274.941 4.37609 265.256 12.0148L266.494 13.5852ZM302.875 2.6C318.181 2.6 330.41 6.29285 339.656 13.5852L340.894 12.0148C331.207 4.37381 318.502 0.599998 302.875 0.599998V2.6ZM339.663 13.5905C348.873 20.7255 353.823 30.7077 354.476 43.6504L356.474 43.5496C355.794 30.0923 350.61 19.5412 340.887 12.0094L339.663 13.5905ZM355.475 42.6H318.475V44.6H355.475V42.6ZM319.473 43.5413C319.193 38.7738 317.424 34.9651 314.112 32.229L312.838 33.771C315.659 36.1016 317.224 39.3595 317.477 43.6587L319.473 43.5413ZM314.131 32.2454C310.851 29.3927 306.67 28 301.675 28V30C306.28 30 309.966 31.274 312.819 33.7546L314.131 32.2454ZM301.675 28C297.351 28 293.763 29.1903 291.008 31.6548L292.342 33.1452C294.654 31.0763 297.732 30 301.675 30V28ZM291.031 31.6351C288.217 34.0043 286.875 37.4512 286.875 41.8H288.875C288.875 37.8821 290.066 35.0624 292.319 33.1649L291.031 31.6351ZM286.875 41.8C286.875 46.7248 289.229 50.5669 293.764 53.2598L294.786 51.5401C290.788 49.1664 288.875 45.9419 288.875 41.8H286.875ZM293.764 53.2598C298.129 55.8515 304.882 58.6121 313.967 61.5514L314.583 59.6486C305.535 56.7213 298.954 54.0152 294.786 51.5401L293.764 53.2598ZM313.955 61.5473C322.998 64.6061 330.284 67.5226 335.828 70.2944L336.722 68.5056C331.066 65.6774 323.685 62.7273 314.595 59.6527L313.955 61.5473ZM335.836 70.2986C341.424 73.0275 346.24 76.9931 350.285 82.2126L351.865 80.9874C347.644 75.5402 342.593 71.3725 336.714 68.5014L335.836 70.2986ZM350.285 82.2126C354.252 87.3313 356.275 93.9664 356.275 102.2H358.275C358.275 93.6336 356.165 86.5353 351.865 80.9874L350.285 82.2126ZM356.275 102.2C356.275 110.018 354.258 117.098 350.23 123.465L351.92 124.535C356.158 117.836 358.275 110.382 358.275 102.2H356.275ZM350.222 123.478C346.332 129.832 340.616 134.912 333.028 138.706L333.922 140.494C341.801 136.555 347.818 131.235 351.928 124.522L350.222 123.478ZM333.028 138.706C325.46 142.489 316.486 144.4 306.075 144.4V146.4C316.73 146.4 326.023 144.444 333.922 140.494L333.028 138.706ZM412.522 3.59999H413.522V2.59999H412.522V3.59999ZM412.522 144V145H413.522V144H412.522ZM378.322 144H377.322V145H378.322V144ZM378.322 3.59999V2.59999H377.322V3.59999H378.322ZM411.522 3.59999V144H413.522V3.59999H411.522ZM412.522 143H378.322V145H412.522V143ZM379.322 144V3.59999H377.322V144H379.322ZM378.322 4.59999H412.522V2.59999H378.322V4.59999ZM530.506 48L529.627 48.4771L529.911 49H530.506V48ZM519.506 37.4L519.029 38.2788L519.044 38.2869L519.059 38.2944L519.506 37.4ZM476.306 44.6L477.04 45.2794L477.046 45.2727L476.306 44.6ZM476.706 104L475.98 104.687L475.986 104.694L475.993 104.7L476.706 104ZM526.906 108.4L526.318 107.591L526.309 107.598L526.906 108.4ZM539.706 90L540.655 90.3162L541.094 89H539.706V90ZM496.306 90H495.306V91H496.306V90ZM496.306 64.8V63.8H495.306V64.8H496.306ZM570.706 64.8H571.706V63.8H570.706V64.8ZM570.706 96.6L571.665 96.8846L571.706 96.7453V96.6H570.706ZM557.706 120.4L556.939 119.758L556.932 119.767L557.706 120.4ZM534.706 138.2L534.269 137.3L534.706 138.2ZM465.906 136L465.412 136.87L465.419 136.873L465.425 136.877L465.906 136ZM440.506 110.6L439.632 111.086L439.637 111.094L440.506 110.6ZM440.506 36.6L439.634 36.1107L439.632 36.1144L440.506 36.6ZM465.906 11.2L466.392 12.0742L466.4 12.0696L465.906 11.2ZM545.306 14.2L544.728 15.0157L544.732 15.0188L545.306 14.2ZM568.306 48V49H569.599L569.274 47.749L568.306 48ZM531.385 47.5229C528.753 42.6741 524.935 38.9961 519.953 36.5056L519.059 38.2944C523.678 40.6039 527.193 43.9925 529.627 48.4771L531.385 47.5229ZM519.983 36.5211C515.143 33.8935 509.439 32.6 502.906 32.6V34.6C509.174 34.6 514.536 35.8398 519.029 38.2788L519.983 36.5211ZM502.906 32.6C491.594 32.6 482.446 36.3599 475.566 43.9273L477.046 45.2727C483.5 38.1734 492.085 34.6 502.906 34.6V32.6ZM475.572 43.9206C468.697 51.3466 465.306 61.2772 465.306 73.6H467.306C467.306 61.6562 470.583 52.2533 477.04 45.2794L475.572 43.9206ZM465.306 73.6C465.306 86.7141 468.825 97.12 475.98 104.687L477.433 103.313C470.72 96.2133 467.306 86.3525 467.306 73.6H465.306ZM475.993 104.7C483.287 112.132 493.233 115.8 505.706 115.8V113.8C493.646 113.8 484.259 110.268 477.42 103.3L475.993 104.7ZM505.706 115.8C514.282 115.8 521.568 113.619 527.503 109.202L526.309 107.598C520.777 111.715 513.93 113.8 505.706 113.8V115.8ZM527.494 109.209C533.556 104.8 537.933 98.4808 540.655 90.3162L538.758 89.6838C536.146 97.5192 531.99 103.466 526.318 107.591L527.494 109.209ZM539.706 89H496.306V91H539.706V89ZM497.306 90V64.8H495.306V90H497.306ZM496.306 65.8H570.706V63.8H496.306V65.8ZM569.706 64.8V96.6H571.706V64.8H569.706ZM569.748 96.3154C567.256 104.708 562.992 112.522 556.939 119.758L558.473 121.042C564.688 113.611 569.09 105.558 571.665 96.8846L569.748 96.3154ZM556.932 119.767C551.032 126.978 543.485 132.824 534.269 137.3L535.143 139.1C544.594 134.509 552.38 128.489 558.48 121.033L556.932 119.767ZM534.269 137.3C525.089 141.76 514.708 144 503.106 144V146C514.971 146 525.657 143.707 535.143 139.1L534.269 137.3ZM503.106 144C489.389 144 477.157 141.034 466.387 135.123L465.425 136.877C476.522 142.966 489.091 146 503.106 146V144ZM466.4 135.13C455.757 129.086 447.42 120.749 441.376 110.106L439.637 111.094C445.859 122.051 454.456 130.647 465.412 136.87L466.4 135.13ZM441.38 110.114C435.473 99.4804 432.506 87.3179 432.506 73.6H430.506C430.506 87.6154 433.54 100.12 439.632 111.086L441.38 110.114ZM432.506 73.6C432.506 59.8821 435.473 47.7196 441.38 37.0856L439.632 36.1144C433.54 47.0804 430.506 59.5846 430.506 73.6H432.506ZM441.378 37.0892C447.422 26.315 455.756 17.9828 466.392 12.0742L465.421 10.3258C454.456 16.4172 445.857 25.0183 439.634 36.1107L441.378 37.0892ZM466.4 12.0696C477.033 6.03134 489.192 2.99999 502.906 2.99999V0.999992C488.887 0.999992 476.38 4.10198 465.412 10.3304L466.4 12.0696ZM502.906 2.99999C519.54 2.99999 533.461 7.02413 544.728 15.0156L545.885 13.3843C534.218 5.10918 519.872 0.999992 502.906 0.999992V2.99999ZM544.732 15.0188C556.127 23.0084 563.661 34.0685 567.338 48.251L569.274 47.749C565.484 33.1315 557.685 21.6582 545.88 13.3812L544.732 15.0188ZM568.306 47H530.506V49H568.306V47ZM715.25 144V145H716.25V144H715.25ZM681.05 144L680.216 144.551L680.512 145H681.05V144ZM623.85 57.4L624.684 56.8489L622.85 54.0716V57.4H623.85ZM623.85 144V145H624.85V144H623.85ZM589.65 144H588.65V145H589.65V144ZM589.65 3.59999V2.59999H588.65V3.59999H589.65ZM623.85 3.59999L624.686 3.05062L624.389 2.59999H623.85V3.59999ZM681.05 90.6L680.214 91.1494L682.05 93.9412V90.6H681.05ZM681.05 3.59999V2.59999H680.05V3.59999H681.05ZM715.25 3.59999H716.25V2.59999H715.25V3.59999ZM715.25 143H681.05V145H715.25V143ZM681.884 143.449L624.684 56.8489L623.016 57.9511L680.216 144.551L681.884 143.449ZM622.85 57.4V144H624.85V57.4H622.85ZM623.85 143H589.65V145H623.85V143ZM590.65 144V3.59999H588.65V144H590.65ZM589.65 4.59999H623.85V2.59999H589.65V4.59999ZM623.014 4.14936L680.214 91.1494L681.886 90.0506L624.686 3.05062L623.014 4.14936ZM682.05 90.6V3.59999H680.05V90.6H682.05ZM681.05 4.59999H715.25V2.59999H681.05V4.59999ZM714.25 3.59999V144H716.25V3.59999H714.25Z" fill="#FAFAFA" mask="url(#path-1-outside-1_1353_1073)"/>
</svg>
