<svg width="600" height="533" viewBox="0 0 600 533" fill="none" xmlns="http://www.w3.org/2000/svg">
<mask id="path-1-outside-1_1353_1073" maskUnits="userSpaceOnUse" x="-0.774624" y="-2.00897" width="601.327" height="537.506" fill="black">
<rect fill="white" x="-0.774624" y="-2.00897" width="601.327" height="537.506"/>
<path d="M44.815 31.1973C57.2273 39.2579 68.0741 49.2353 77.3554 61.1293C86.6367 73.0233 93.7934 85.9375 98.8254 99.872C103.969 113.746 106.541 127.616 106.541 141.483C106.541 155.216 103.969 165.746 98.8254 173.072C93.7934 180.471 86.5808 184.054 77.1877 183.82C67.9064 183.66 57.1155 179.585 44.815 171.597L0.700913 142.949V2.54925L44.815 31.1973ZM42.9699 140.799C53.8167 147.843 62.2593 149.792 68.2978 146.647C74.3362 143.502 77.3554 135.463 77.3554 122.529C77.3554 109.596 74.3362 97.5686 68.2978 86.4472C62.2593 75.3258 53.8167 66.2431 42.9699 59.1991L29.3834 50.3759V131.976L42.9699 140.799ZM151.253 127.719V156.119L189.664 181.063V207.463L151.253 182.519V213.319L194.696 241.531V268.931L122.57 222.092V81.6921L194.696 128.531V155.931L151.253 127.719ZM255.921 310.091C247.311 304.5 239.595 297.822 232.774 290.059C225.953 282.296 220.474 273.805 216.336 264.584C212.311 255.437 210.186 246.19 209.962 236.845L240.49 256.67C240.937 262.161 242.447 267.141 245.019 271.611C247.591 275.948 250.945 279.46 255.083 282.147C259.332 284.906 262.687 285.952 265.147 285.282C267.607 284.48 268.837 282.012 268.837 277.879C268.837 274.412 267.831 270.892 265.818 267.318C263.917 263.817 261.513 260.389 258.605 257.034C255.81 253.752 251.784 249.471 246.528 244.191C238.924 236.453 232.718 229.623 227.91 223.7C223.101 217.778 218.964 210.958 215.498 203.24C212.031 195.522 210.298 187.263 210.298 178.463C210.298 165.396 214.267 157.774 222.207 155.597C230.146 153.286 240.49 156.27 253.238 164.549C266.209 172.972 276.665 183.495 284.604 196.118C292.543 208.607 296.793 221.634 297.352 235.197L266.321 215.045C266.097 210.366 264.7 205.925 262.128 201.722C259.556 197.385 256.257 193.909 252.231 191.295C248.765 189.044 245.969 188.362 243.845 189.249C241.72 190.002 240.658 192.446 240.658 196.579C240.658 201.112 242.447 205.808 246.025 210.665C249.603 215.522 255.195 221.886 262.799 229.757C270.403 237.762 276.553 244.69 281.249 250.54C286.058 256.462 290.195 263.216 293.662 270.8C297.128 278.385 298.861 286.377 298.861 294.777C298.861 302.777 297.128 308.918 293.662 313.2C290.307 317.555 285.387 319.56 278.901 319.215C272.415 318.869 264.755 315.828 255.921 310.091ZM345.195 226.267V366.667L316.513 348.04V207.64L345.195 226.267ZM444.145 334.925C442.021 328.879 438.946 323.349 434.92 318.334C431.006 313.259 426.366 308.979 420.998 305.493C411.717 299.466 404.281 298.304 398.689 302.006C393.098 305.575 390.303 313.426 390.303 325.56C390.303 338.493 393.21 350.514 399.025 361.624C404.951 372.673 413.059 381.537 423.346 388.218C430.391 392.793 436.318 394.509 441.126 393.365C446.046 392.293 449.625 388.484 451.861 381.936L415.463 358.299V333.099L477.86 373.62V405.42C475.735 412.574 472.101 418.147 466.957 422.14C461.925 426.205 455.495 427.963 447.668 427.413C439.84 426.863 431.006 423.393 421.166 417.002C409.536 409.45 399.137 399.696 389.967 387.742C380.91 375.726 373.809 362.648 368.665 348.508C363.633 334.44 361.117 320.473 361.117 306.606C361.117 292.74 363.633 282.04 368.665 274.508C373.809 266.915 380.91 263.06 389.967 262.942C399.025 262.691 409.368 266.341 420.998 273.893C435.088 283.043 446.941 294.808 456.558 309.186C466.286 323.637 472.716 339.079 475.847 355.513L444.145 334.925ZM599.084 531.544L570.402 512.917L522.43 395.164V481.764L493.747 463.137V322.737L522.43 341.364L570.402 459.517V372.517L599.084 391.144V531.544Z"/>
</mask>
<path d="M77.3554 61.1293L77.7482 60.5008L77.3554 61.1293ZM98.8254 99.872L98.0944 99.8876L98.0975 99.8961L98.1006 99.9045L98.8254 99.872ZM98.8254 173.072L98.0983 172.101L98.0944 172.107L98.8254 173.072ZM77.1877 183.82L76.7985 182.682L76.7949 182.682L77.1877 183.82ZM0.700913 142.949L-0.137758 142.405V143.405L0.700913 143.949V142.949ZM0.700913 2.54925V1.54925L-0.137758 1.00461V2.00461L0.700913 2.54925ZM29.3834 50.3759V49.3759L28.5448 48.8313V49.8313L29.3834 50.3759ZM29.3834 131.976L28.5448 131.431V132.431L29.3834 132.976V131.976ZM44.815 32.1973C57.1152 40.1851 67.8225 50.0446 76.9626 61.7577L77.7482 60.5008C68.3257 48.4259 57.3394 38.3307 44.815 30.1973V32.1973ZM76.9626 61.7577C86.1054 73.4743 93.1431 86.1766 98.0944 99.8876L99.5563 99.8564C94.4436 85.6984 87.168 72.5723 77.7482 60.5008L76.9626 61.7577ZM98.1006 99.9045C103.16 113.551 105.702 127.223 105.702 140.938L107.38 142.027C107.38 128.009 104.778 113.941 99.5501 99.8395L98.1006 99.9045ZM105.702 140.938C105.702 154.517 103.161 164.891 98.0983 172.101L99.5524 174.043C104.778 166.601 107.38 155.915 107.38 142.027L105.702 140.938ZM98.0944 172.107C93.1446 179.385 86.053 182.912 76.7985 182.682L77.5768 184.959C87.1085 185.196 94.4421 181.557 99.5563 174.037L98.0944 172.107ZM76.7949 182.682C67.6537 182.523 57.002 178.512 44.815 170.597V172.597C57.229 180.659 68.1591 184.796 77.5805 184.959L76.7949 182.682ZM44.815 170.597L0.700913 141.949V143.949L44.815 172.597V170.597ZM1.53958 143.494V3.09389L-0.137758 2.00461V142.405L1.53958 143.494ZM0.700913 3.54925L44.815 32.1973V30.1973L0.700913 1.54925V3.54925ZM42.9699 141.799C53.9717 148.944 62.6492 150.991 68.8852 147.742L67.7103 145.552C61.8695 148.594 53.6617 146.742 42.9699 139.799V141.799ZM68.8852 147.742C75.1264 144.491 78.1941 136.196 78.1941 123.074L76.5167 121.985C76.5167 134.729 73.546 142.512 67.7103 145.552L68.8852 147.742ZM78.1941 123.074C78.1941 109.951 75.1261 97.6092 68.8908 86.1252L67.7047 86.7691C73.5463 97.5279 76.5167 109.241 76.5167 121.985L78.1941 123.074ZM68.8908 86.1252C62.6554 74.6411 53.976 65.3465 42.9699 58.1991V60.1991C53.6574 67.1396 61.8632 76.0104 67.7047 86.7691L68.8908 86.1252ZM42.9699 58.1991L29.3834 49.3759V51.3759L42.9699 60.1991V58.1991ZM28.5448 49.8313V131.431L30.2221 132.521V50.9205L28.5448 49.8313ZM29.3834 132.976L42.9699 141.799V139.799L29.3834 130.976V132.976ZM151.253 127.719V126.719L150.414 126.174V127.174L151.253 127.719ZM151.253 156.119L150.414 155.574V156.574L151.253 157.119V156.119ZM189.664 181.063L190.503 181.608V180.608L189.664 180.063V181.063ZM189.664 207.463V208.463L190.503 209.008V208.008L189.664 207.463ZM151.253 182.519V181.519L150.414 180.974V181.974L151.253 182.519ZM151.253 213.319L150.414 212.774V213.774L151.253 214.319V213.319ZM194.696 241.531L195.535 242.076V241.076L194.696 240.531V241.531ZM194.696 268.931V269.931L195.535 270.476V269.476L194.696 268.931ZM122.57 222.092L121.732 221.547V222.547L122.57 223.092V222.092ZM122.57 81.6921V80.6921L121.732 80.1475V81.1475L122.57 81.6921ZM194.696 128.531L195.535 129.076V128.076L194.696 127.531V128.531ZM194.696 155.931V156.931L195.535 157.476V156.476L194.696 155.931ZM150.414 127.174V155.574L152.091 156.663V128.263L150.414 127.174ZM151.253 157.119L189.664 182.063V180.063L151.253 155.119V157.119ZM188.825 180.519V206.919L190.503 208.008V181.608L188.825 180.519ZM189.664 206.463L151.253 181.519V183.519L189.664 208.463V206.463ZM150.414 181.974V212.774L152.091 213.863V183.063L150.414 181.974ZM151.253 214.319L194.696 242.531V240.531L151.253 212.319V214.319ZM193.857 240.986V268.386L195.535 269.476V242.076L193.857 240.986ZM194.696 267.931L122.57 221.092V223.092L194.696 269.931V267.931ZM123.409 222.637V82.2367L121.732 81.1475V221.547L123.409 222.637ZM122.57 82.6921L194.696 129.531V127.531L122.57 80.6921V82.6921ZM193.857 127.986V155.386L195.535 156.476V129.076L193.857 127.986ZM194.696 154.931L151.253 126.719V128.719L194.696 156.931V154.931ZM232.774 290.059L232.456 290.778L232.774 290.059ZM216.336 264.584L215.66 264.738L215.667 264.752L216.336 264.584ZM209.962 236.845V235.845L209.099 235.285L209.124 236.33L209.962 236.845ZM240.49 256.67L241.324 257.11L241.247 256.162L240.49 255.67V256.67ZM245.019 271.611L244.453 271.982L244.461 271.995L244.468 272.008L245.019 271.611ZM265.147 285.282L265.66 286.407L265.669 286.404L265.678 286.401L265.147 285.282ZM265.818 267.318L265.225 267.64L265.233 267.656L265.242 267.671L265.818 267.318ZM258.605 257.034L258.267 257.73L258.273 257.737L258.278 257.743L258.605 257.034ZM246.528 244.191L246.281 244.986L246.289 244.994L246.528 244.191ZM227.91 223.7L227.542 224.36L227.91 223.7ZM215.498 203.24L216.167 203.071L215.498 203.24ZM222.207 155.597L222.721 156.721L222.726 156.719L222.207 155.597ZM284.604 196.118L284.085 196.566L284.09 196.575L284.604 196.118ZM297.352 235.197V236.197L298.234 236.769L298.189 235.69L297.352 235.197ZM266.321 215.045L265.484 214.56L265.53 215.531L266.321 216.045V215.045ZM262.128 201.722L261.577 202.119L261.585 202.132L261.594 202.146L262.128 201.722ZM243.845 189.249L244.385 190.364L244.394 190.361L244.404 190.357L243.845 189.249ZM246.025 210.665L246.453 210.083L246.025 210.665ZM262.799 229.757L263.067 228.985L263.057 228.974L262.799 229.757ZM281.249 250.54L280.874 251.19L280.881 251.199L281.249 250.54ZM293.662 270.8L292.999 270.982L293.662 270.8ZM293.662 313.2L292.953 312.205L292.95 312.209L292.946 312.214L293.662 313.2ZM278.901 319.215L278.526 318.077L278.901 319.215ZM255.921 309.091C247.402 303.559 239.797 296.971 233.092 289.341L232.456 290.778C239.394 298.674 247.22 305.441 255.921 311.091V309.091ZM233.092 289.341C226.4 281.724 221.046 273.42 217.006 264.416L215.667 264.752C219.902 274.19 225.506 282.869 232.456 290.778L233.092 289.341ZM217.012 264.431C213.101 255.543 211.02 246.529 210.801 237.361L209.124 236.33C209.352 245.852 211.521 255.331 215.66 264.738L217.012 264.431ZM209.962 237.845L240.49 257.67V255.67L209.962 235.845V237.845ZM239.656 256.23C240.118 261.91 241.693 267.185 244.453 271.982L245.584 271.24C243.201 267.097 241.756 262.412 241.324 257.11L239.656 256.23ZM244.468 272.008C247.224 276.655 250.788 280.358 255.083 283.147V281.147C251.102 278.562 247.957 275.241 245.569 271.214L244.468 272.008ZM255.083 283.147C259.45 285.983 263.007 287.128 265.66 286.407L264.634 284.158C262.366 284.775 259.214 283.829 255.083 281.147V283.147ZM265.678 286.401C268.352 285.529 269.676 282.826 269.676 278.424L267.998 277.334C267.998 281.199 266.862 283.431 264.616 284.164L265.678 286.401ZM269.676 278.424C269.676 274.697 268.583 270.853 266.394 266.965L265.242 267.671C267.078 270.931 267.998 274.127 267.998 277.334L269.676 278.424ZM266.411 266.996C264.421 263.332 261.922 259.775 258.932 256.326L258.278 257.743C261.103 261.003 263.412 264.302 265.225 267.64L266.411 266.996ZM258.943 256.338C256.1 253 252.035 248.68 246.768 243.389L246.289 244.994C251.533 250.262 255.52 254.504 258.267 257.73L258.943 256.338ZM246.776 243.397C239.195 235.683 233.034 228.899 228.278 223.041L227.542 224.36C232.403 230.348 238.653 237.224 246.281 244.986L246.776 243.397ZM228.278 223.041C223.597 217.275 219.56 210.626 216.167 203.071L214.829 203.408C218.368 211.29 222.606 218.281 227.542 224.36L228.278 223.041ZM216.167 203.071C212.838 195.66 211.136 187.652 211.136 179.008L209.459 177.918C209.459 186.874 211.224 195.384 214.829 203.408L216.167 203.071ZM211.136 179.008C211.136 166.218 215.007 158.837 222.721 156.721L221.693 154.473C213.528 156.712 209.459 164.575 209.459 177.918L211.136 179.008ZM222.726 156.719C230.483 154.462 240.628 157.36 253.238 165.549V163.549C240.352 155.18 229.81 152.11 221.688 154.474L222.726 156.719ZM253.238 165.549C266.075 173.885 276.331 184.238 284.085 196.566L285.123 195.67C276.999 182.753 266.344 172.06 253.238 163.549V165.549ZM284.09 196.575C291.815 208.726 295.966 221.404 296.514 234.703L298.189 235.69C297.619 221.863 293.272 208.488 285.118 195.661L284.09 196.575ZM297.352 234.197L266.321 214.045V216.045L297.352 236.197V234.197ZM267.158 215.53C266.923 210.61 265.439 205.838 262.662 201.298L261.594 202.146C263.96 206.013 265.272 210.123 265.484 214.56L267.158 215.53ZM262.678 201.325C259.927 196.685 256.421 193.016 252.231 190.295V192.295C256.093 194.803 259.185 198.085 261.577 202.119L262.678 201.325ZM252.231 190.295C248.605 187.94 245.595 187.176 243.285 188.14L244.404 190.357C246.343 189.547 248.924 190.148 252.231 192.295V190.295ZM243.304 188.133C240.945 188.97 239.819 191.686 239.819 196.034L241.496 197.124C241.496 193.206 242.495 191.035 244.385 190.364L243.304 188.133ZM239.819 196.034C239.819 200.959 241.793 206.083 245.597 211.246L246.453 210.083C243.1 205.532 241.496 201.266 241.496 197.124L239.819 196.034ZM245.597 211.246C249.258 216.215 254.921 222.654 262.54 230.541L263.057 228.974C255.468 221.119 249.949 214.828 246.453 210.083L245.597 211.246ZM262.53 230.53C270.114 238.514 276.225 245.399 280.874 251.19L281.624 249.889C276.881 243.98 270.691 237.01 263.067 228.985L262.53 230.53ZM280.881 251.199C285.568 256.971 289.606 263.56 292.999 270.982L294.325 270.618C290.784 262.872 286.548 255.953 281.617 249.88L280.881 251.199ZM292.999 270.982C296.326 278.262 298.023 285.999 298.023 294.232L299.7 295.322C299.7 286.755 297.931 278.508 294.325 270.618L292.999 270.982ZM298.023 294.232C298.023 302.05 296.331 308.032 292.953 312.205L294.37 314.195C297.925 309.804 299.7 303.504 299.7 295.322L298.023 294.232ZM292.946 312.214C289.684 316.449 284.89 318.415 278.526 318.077L279.276 320.353C285.884 320.704 290.93 318.661 294.377 314.187L292.946 312.214ZM278.526 318.077C272.179 317.739 264.653 314.762 255.921 309.091V311.091C264.858 316.895 272.651 320 279.276 320.353L278.526 318.077ZM345.195 226.267L346.034 226.811V225.811L345.195 225.267V226.267ZM345.195 366.667V367.667L346.034 368.211V367.211L345.195 366.667ZM316.513 348.04L315.674 347.495V348.495L316.513 349.04V348.04ZM316.513 207.64V206.64L315.674 206.095V207.095L316.513 207.64ZM344.357 225.722V366.122L346.034 367.211V226.811L344.357 225.722ZM345.195 365.667L316.513 347.04V349.04L345.195 367.667V365.667ZM317.351 348.585V208.185L315.674 207.095V347.495L317.351 348.585ZM316.513 208.64L345.195 227.267V225.267L316.513 206.64V208.64ZM444.145 334.925L443.408 334.924L443.646 335.601L444.145 335.925V334.925ZM434.92 318.334L434.52 318.953L434.532 318.97L434.545 318.985L434.92 318.334ZM398.689 302.006L399.305 303.085L399.31 303.082L398.689 302.006ZM399.025 361.624L398.415 361.915L398.421 361.925L398.426 361.936L399.025 361.624ZM441.126 393.365L440.633 392.236L440.625 392.237L441.126 393.365ZM451.861 381.936L452.657 382.769L453.025 381.692L451.861 380.936V381.936ZM415.463 358.299L414.624 357.754V358.754L415.463 359.299V358.299ZM415.463 333.099V332.099L414.624 331.554V332.554L415.463 333.099ZM477.86 373.62L478.699 374.165V373.165L477.86 372.62V373.62ZM477.86 405.42L478.664 406.227L478.699 406.11V405.965L477.86 405.42ZM466.957 422.14L466.314 421.08L466.308 421.085L466.957 422.14ZM447.668 427.413L447.301 426.275L447.668 427.413ZM389.967 387.742L389.553 388.342L389.558 388.349L389.564 388.356L389.967 387.742ZM368.665 348.508L367.932 348.517L367.936 348.528L368.665 348.508ZM368.665 274.508L367.934 273.544L367.932 273.546L368.665 274.508ZM389.967 262.942L390.375 264.08L390.381 264.08L389.967 262.942ZM456.558 309.186L456.072 309.687L456.076 309.692L456.558 309.186ZM475.847 355.513V356.513L476.931 357.217L476.659 355.789L475.847 355.513ZM444.882 334.927C442.675 328.645 439.473 322.887 435.295 317.684L434.545 318.985C438.419 323.81 441.367 329.113 443.408 334.924L444.882 334.927ZM435.32 317.715C431.261 312.452 426.477 308.051 420.998 304.493V306.493C426.254 309.907 430.752 314.067 434.52 318.953L435.32 317.715ZM420.998 304.493C411.511 298.333 403.838 297.11 398.069 300.93L399.31 303.082C404.723 299.497 411.922 300.6 420.998 306.493V304.493ZM398.074 300.927C392.307 304.608 389.464 312.692 389.464 325.015L391.141 326.104C391.141 314.16 393.889 306.542 399.305 303.085L398.074 300.927ZM389.464 325.015C389.464 338.129 392.415 350.452 398.415 361.915L399.634 361.333C394.005 350.577 391.141 338.857 391.141 326.104L389.464 325.015ZM398.426 361.936C404.544 373.34 412.885 382.425 423.346 389.218V387.218C413.232 380.65 405.359 372.005 399.623 361.312L398.426 361.936ZM423.346 389.218C430.539 393.889 436.65 395.676 441.627 394.492L440.625 392.237C435.986 393.341 430.243 391.697 423.346 387.218V389.218ZM441.619 394.494C446.703 393.387 450.374 389.451 452.657 382.769L451.065 381.103C448.875 387.516 445.39 391.2 440.633 392.236L441.619 394.494ZM451.861 380.936L415.463 357.299V359.299L451.861 382.936V380.936ZM416.301 358.843V333.643L414.624 332.554V357.754L416.301 358.843ZM415.463 334.099L477.86 374.62V372.62L415.463 332.099V334.099ZM477.021 373.075V404.875L478.699 405.965V374.165L477.021 373.075ZM477.056 404.613C474.966 411.649 471.39 417.14 466.314 421.08L467.601 423.199C472.812 419.153 476.504 413.498 478.664 406.227L477.056 404.613ZM466.308 421.085C461.36 425.082 455.03 426.819 447.301 426.275L448.034 428.55C455.961 429.107 462.49 427.328 467.606 423.194L466.308 421.085ZM447.301 426.275C439.602 425.735 430.896 422.321 421.166 416.002V418.002C431.116 424.464 440.078 427.991 448.034 428.55L447.301 426.275ZM421.166 416.002C409.661 408.531 399.403 398.903 390.371 387.127L389.564 388.356C398.87 400.49 409.411 410.369 421.166 418.002V416.002ZM390.381 387.141C381.455 375.3 374.463 362.423 369.394 348.488L367.936 348.528C373.154 362.874 380.364 376.152 389.553 388.342L390.381 387.141ZM369.398 348.498C364.443 334.647 361.956 320.869 361.956 307.151L360.278 306.062C360.278 320.077 362.822 334.233 367.932 348.517L369.398 348.498ZM361.956 307.151C361.956 293.433 364.443 282.886 369.398 275.47L367.932 273.546C362.822 281.194 360.278 292.046 360.278 306.062L361.956 307.151ZM369.396 275.472C374.465 267.99 381.455 264.197 390.375 264.08L389.56 261.803C380.364 261.923 373.152 265.84 367.934 273.544L369.396 275.472ZM390.381 264.08C399.299 263.833 409.496 267.424 420.998 274.893V272.893C409.241 265.258 398.751 261.548 389.553 261.803L390.381 264.08ZM420.998 274.893C434.949 283.953 446.623 295.559 456.072 309.687L457.043 308.686C447.258 294.056 435.227 282.134 420.998 272.893V274.893ZM456.076 309.692C465.633 323.888 471.952 339.052 475.035 355.237L476.659 355.789C473.481 339.107 466.94 323.386 457.039 308.68L456.076 309.692ZM475.847 354.513L444.145 333.925V335.925L475.847 356.513V354.513ZM599.084 531.544V532.544L599.923 533.089V532.089L599.084 531.544ZM570.402 512.917L569.702 513.014L569.951 513.624L570.402 513.917V512.917ZM522.43 395.164L523.13 395.067L521.591 391.291V394.619L522.43 395.164ZM522.43 481.764V482.764L523.269 483.309V482.309L522.43 481.764ZM493.747 463.137L492.909 462.593V463.593L493.747 464.137V463.137ZM493.747 322.737V321.737L492.909 321.193V322.193L493.747 322.737ZM522.43 341.364L523.131 341.27L522.882 340.658L522.43 340.364V341.364ZM570.402 459.517L569.701 459.612L571.241 463.403V460.062L570.402 459.517ZM570.402 372.517V371.517L569.563 370.973V371.973L570.402 372.517ZM599.084 391.144L599.923 391.689V390.689L599.084 390.144V391.144ZM599.084 530.544L570.402 511.917V513.917L599.084 532.544V530.544ZM571.102 512.821L523.13 395.067L521.73 395.261L569.702 513.014L571.102 512.821ZM521.591 394.619V481.219L523.269 482.309V395.709L521.591 394.619ZM522.43 480.764L493.747 462.137V464.137L522.43 482.764V480.764ZM494.586 463.682V323.282L492.909 322.193V462.593L494.586 463.682ZM493.747 323.737L522.43 342.364V340.364L493.747 321.737V323.737ZM521.729 341.458L569.701 459.612L571.103 459.423L523.131 341.27L521.729 341.458ZM571.241 460.062V373.062L569.563 371.973V458.973L571.241 460.062ZM570.402 373.517L599.084 392.144V390.144L570.402 371.517V373.517ZM598.246 390.599V530.999L599.923 532.089V391.689L598.246 390.599Z" fill="#FAFAFA" mask="url(#path-1-outside-1_1353_1073)"/>
</svg>
