<svg width="36" height="36" viewBox="0 0 36 36" fill="none" xmlns="http://www.w3.org/2000/svg">
<path d="M28.9375 7.0625H7.0625C5.20312 7.0625 3.78125 8.48438 3.78125 10.3438V25.6562C3.78125 27.5156 5.20312 28.9375 7.0625 28.9375H28.9375C30.7969 28.9375 32.2188 27.5156 32.2188 25.6562V10.3438C32.2188 8.48438 30.7969 7.0625 28.9375 7.0625ZM27.5156 22.5938C27.9531 23.0313 28.0625 23.6875 27.625 24.125C27.4062 24.4531 27.0781 24.5625 26.75 24.5625C26.5312 24.5625 26.2031 24.4531 25.9844 24.3438L20.4062 19.5312L18.6562 21.0625C18.5469 21.1719 18.2188 21.2812 18 21.2812C17.7812 21.2812 17.4531 21.1719 17.2344 21.0625L15.4844 19.5312L9.90625 24.3438C9.79688 24.4531 9.46875 24.5625 9.25 24.5625C8.92188 24.5625 8.59375 24.4531 8.375 24.2344C7.9375 23.7969 8.04688 23.1406 8.48438 22.7031L13.8438 18.1094L8.48438 13.5156C8.04688 13.0781 7.9375 12.4219 8.375 11.9844C8.8125 11.5469 9.46875 11.4375 9.90625 11.875L17.8906 18.875L25.875 11.875C26.3125 11.4375 26.9688 11.5469 27.4062 11.9844C27.8438 12.4219 27.7344 13.0781 27.2969 13.5156L22.1562 18L27.5156 22.5938Z" fill="white"/>
</svg>
