<svg width="272" height="182" viewBox="0 0 272 182" fill="none" xmlns="http://www.w3.org/2000/svg">
<path d="M0.871094 90.25C0.871094 61.4167 5.03776 39.25 13.3711 23.75C21.7044 8.08334 37.0378 0.25 59.3711 0.25C81.5378 0.25 96.7878 8.08334 105.121 23.75C113.454 39.25 117.621 61.4167 117.621 90.25C117.621 119.417 113.454 141.917 105.121 157.75C96.7878 173.417 81.5378 181.25 59.3711 181.25C37.0378 181.25 21.7044 173.417 13.3711 157.75C5.03776 141.917 0.871094 119.417 0.871094 90.25ZM106.621 90.25C106.621 73.5833 105.371 59.5 102.871 48C100.538 36.5 95.8711 27.4167 88.8711 20.75C82.0378 13.9167 72.2044 10.5 59.3711 10.5C46.5378 10.5 36.6211 13.9167 29.6211 20.75C22.7878 27.4167 18.1211 36.5 15.6211 48C13.2878 59.5 12.1211 73.5833 12.1211 90.25C12.1211 107.25 13.2878 121.583 15.6211 133.25C18.1211 144.75 22.7878 153.917 29.6211 160.75C36.6211 167.583 46.5378 171 59.3711 171C72.2044 171 82.0378 167.583 88.8711 160.75C95.8711 153.917 100.538 144.75 102.871 133.25C105.371 121.583 106.621 107.25 106.621 90.25Z" fill="white"/>
<path d="M262.012 12.25H166.012V84C170.512 77.6667 177.095 72.5 185.762 68.5C194.428 64.3333 203.845 62.25 214.012 62.25C227.512 62.25 238.512 65 247.012 70.5C255.678 75.8333 261.928 82.8333 265.762 91.5C269.595 100.167 271.512 109.583 271.512 119.75C271.512 131.083 269.428 141.417 265.262 150.75C261.095 159.917 254.512 167.333 245.512 173C236.678 178.5 225.512 181.25 212.012 181.25C195.678 181.25 182.178 176.833 171.512 168C161.012 159 154.595 146.917 152.262 131.75H163.262C165.762 144.583 171.345 154.417 180.012 161.25C188.678 167.917 199.345 171.25 212.012 171.25C228.178 171.25 240.345 166.583 248.512 157.25C256.678 147.75 260.762 135.333 260.762 120C260.762 105 256.595 93.25 248.262 84.75C240.095 76.25 228.345 72 213.012 72C202.512 72 193.095 74.3333 184.762 79C176.595 83.6667 170.262 90.0833 165.762 98.25H155.262V2.25H262.012V12.25Z" fill="#C2FAD7"/>
</svg>
