<svg width="178" height="182" viewBox="0 0 178 182" fill="none" xmlns="http://www.w3.org/2000/svg">
<path d="M0.706055 90.25C0.706055 61.4167 4.87272 39.25 13.2061 23.75C21.5394 8.08334 36.8727 0.25 59.2061 0.25C81.3727 0.25 96.6227 8.08334 104.956 23.75C113.289 39.25 117.456 61.4167 117.456 90.25C117.456 119.417 113.289 141.917 104.956 157.75C96.6227 173.417 81.3727 181.25 59.2061 181.25C36.8727 181.25 21.5394 173.417 13.2061 157.75C4.87272 141.917 0.706055 119.417 0.706055 90.25ZM106.456 90.25C106.456 73.5833 105.206 59.5 102.706 48C100.373 36.5 95.7061 27.4167 88.7061 20.75C81.8727 13.9167 72.0394 10.5 59.2061 10.5C46.3727 10.5 36.4561 13.9167 29.4561 20.75C22.6227 27.4167 17.9561 36.5 15.4561 48C13.1227 59.5 11.9561 73.5833 11.9561 90.25C11.9561 107.25 13.1227 121.583 15.4561 133.25C17.9561 144.75 22.6227 153.917 29.4561 160.75C36.4561 167.583 46.3727 171 59.2061 171C72.0394 171 81.8727 167.583 88.7061 160.75C95.7061 153.917 100.373 144.75 102.706 133.25C105.206 121.583 106.456 107.25 106.456 90.25Z" fill="white"/>
<path d="M140.097 12.5V2.25H177.097V180H165.847V12.5H140.097Z" fill="#C2FAD7"/>
</svg>
