<svg width="26" height="26" viewBox="0 0 26 26" fill="none" xmlns="http://www.w3.org/2000/svg">
<path d="M4.53512 2.98503C4.53512 3.90549 3.78892 4.65169 2.86845 4.65169C1.94797 4.65169 1.20178 3.90549 1.20178 2.98503C1.20178 2.06455 1.94797 1.31836 2.86845 1.31836C3.78892 1.31836 4.53512 2.06455 4.53512 2.98503ZM4.53512 2.98503H7.86845C10.6299 2.98503 12.8684 5.22361 12.8684 7.98503V17.985C12.8684 20.7465 15.107 22.985 17.8684 22.985H21.2018M21.2018 22.985C21.2018 23.9055 21.9479 24.6517 22.8684 24.6517C23.7889 24.6517 24.5351 23.9055 24.5351 22.985C24.5351 22.0645 23.7889 21.3184 22.8684 21.3184C21.9479 21.3184 21.2018 22.0645 21.2018 22.985Z" stroke="#7CFFCF" stroke-width="1.66667"/>
</svg>
