<svg width="278" height="182" viewBox="0 0 278 182" fill="none" xmlns="http://www.w3.org/2000/svg">
<path d="M0.958008 90.25C0.958008 61.4167 5.12467 39.25 13.458 23.75C21.7913 8.08334 37.1247 0.25 59.458 0.25C81.6247 0.25 96.8747 8.08334 105.208 23.75C113.541 39.25 117.708 61.4167 117.708 90.25C117.708 119.417 113.541 141.917 105.208 157.75C96.8747 173.417 81.6247 181.25 59.458 181.25C37.1247 181.25 21.7913 173.417 13.458 157.75C5.12467 141.917 0.958008 119.417 0.958008 90.25ZM106.708 90.25C106.708 73.5833 105.458 59.5 102.958 48C100.625 36.5 95.958 27.4167 88.958 20.75C82.1247 13.9167 72.2914 10.5 59.458 10.5C46.6247 10.5 36.708 13.9167 29.708 20.75C22.8747 27.4167 18.208 36.5 15.708 48C13.3747 59.5 12.208 73.5833 12.208 90.25C12.208 107.25 13.3747 121.583 15.708 133.25C18.208 144.75 22.8747 153.917 29.708 160.75C36.708 167.583 46.6247 171 59.458 171C72.2914 171 82.1247 167.583 88.958 160.75C95.958 153.917 100.625 144.75 102.958 133.25C105.458 121.583 106.708 107.25 106.708 90.25Z" fill="white"/>
<path d="M141.349 135V126.25L236.599 3.00001H249.349V125.25H277.849V135H249.349V180H238.349V135H141.349ZM238.599 16.5L154.599 125.25H238.599V16.5Z" fill="white"/>
</svg>
