<svg width="97" height="83" viewBox="0 0 97 83" fill="none" xmlns="http://www.w3.org/2000/svg">
<mask id="path-1-inside-1_2126_486" fill="white">
<path d="M96.4013 26.2336C96.4086 29.5166 95.8936 31.5556 94.6362 34.5886C93.3789 37.6206 91.5327 40.3736 89.2045 42.6886L50.7248 81.7366C50.4041 82.0626 50.0217 82.3216 49.6001 82.4976C49.1784 82.6746 48.7258 82.7656 48.2687 82.7656C47.8118 82.7656 47.3588 82.6746 46.9378 82.4976C46.5158 82.3216 46.1328 82.0626 45.8128 81.7366L7.33279 42.6886C2.64178 38.0026 0.00379181 31.6456 -0.000205994 25.0146C-0.0042038 18.3846 2.6258 12.0236 7.3108 7.33261C11.9968 2.64161 18.3538 0.00361633 24.9848 -0.00038147C31.6148 -0.00437927 37.9758 2.62562 42.6668 7.31161L48.2687 12.5466L53.9092 7.29362C57.4101 3.81062 61.8645 1.44262 66.7102 0.488617C71.5559 -0.465385 76.5756 0.0376129 81.1355 1.93462C85.6955 3.83062 89.5913 7.03562 92.3312 11.1446C95.071 15.2536 96.4035 21.2946 96.4013 26.2336Z"/>
</mask>
<path d="M96.4013 26.2336C96.4086 29.5166 95.8936 31.5556 94.6362 34.5886C93.3789 37.6206 91.5327 40.3736 89.2045 42.6886L50.7248 81.7366C50.4041 82.0626 50.0217 82.3216 49.6001 82.4976C49.1784 82.6746 48.7258 82.7656 48.2687 82.7656C47.8118 82.7656 47.3588 82.6746 46.9378 82.4976C46.5158 82.3216 46.1328 82.0626 45.8128 81.7366L7.33279 42.6886C2.64178 38.0026 0.00379181 31.6456 -0.000205994 25.0146C-0.0042038 18.3846 2.6258 12.0236 7.3108 7.33261C11.9968 2.64161 18.3538 0.00361633 24.9848 -0.00038147C31.6148 -0.00437927 37.9758 2.62562 42.6668 7.31161L48.2687 12.5466L53.9092 7.29362C57.4101 3.81062 61.8645 1.44262 66.7102 0.488617C71.5559 -0.465385 76.5756 0.0376129 81.1355 1.93462C85.6955 3.83062 89.5913 7.03562 92.3312 11.1446C95.071 15.2536 96.4035 21.2946 96.4013 26.2336Z" stroke="white" stroke-width="10" mask="url(#path-1-inside-1_2126_486)"/>
</svg>
