<svg width="48" height="48" viewBox="0 0 48 48" fill="none" xmlns="http://www.w3.org/2000/svg">
<path d="M9.318 4.65594C9.56681 4.15672 9.94987 3.73675 10.4242 3.4432C10.8985 3.14965 11.4452 2.99414 12.003 2.99414C12.5608 2.99414 13.1075 3.14965 13.5818 3.4432C14.0561 3.73675 14.4392 4.15672 14.688 4.65594L20.688 16.6559C20.9174 17.1138 21.0258 17.6227 21.0029 18.1343C20.98 18.6459 20.8265 19.1431 20.557 19.5785C20.2875 20.014 19.9111 20.3732 19.4635 20.622C19.0159 20.8709 18.5121 21.0009 18 20.9999H6.012C5.50057 21.0002 4.99757 20.8697 4.55078 20.6208C4.10399 20.3719 3.72823 20.013 3.45921 19.578C3.19018 19.1431 3.03681 18.6466 3.01367 18.1357C2.99054 17.6248 3.09839 17.1164 3.327 16.6589L9.318 4.65594ZM18.003 17.9999L12.003 5.99694L6.012 17.9999H18.003ZM12 41.9999C10.942 42.0001 9.90276 41.7205 8.98767 41.1895C8.07259 40.6584 7.31418 39.8949 6.78936 38.9762C6.26455 38.0576 5.99197 37.0165 5.99929 35.9585C6.0066 34.9005 6.29353 33.8633 6.831 32.9519L15.048 41.1719C14.1242 41.7152 13.0717 42.0011 12 41.9999ZM8.952 30.8309C10.0983 30.1521 11.4379 29.874 12.7596 30.0406C14.0813 30.2072 15.3101 30.8089 16.2521 31.7509C17.1941 32.6929 17.7958 33.9216 17.9624 35.2433C18.1289 36.5651 17.8509 37.9047 17.172 39.0509L8.952 30.8309ZM12 44.9999C14.3869 44.9999 16.6761 44.0517 18.364 42.3639C20.0518 40.6761 21 38.3869 21 35.9999C21 33.613 20.0518 31.3238 18.364 29.636C16.6761 27.9482 14.3869 26.9999 12 26.9999C9.61305 26.9999 7.32387 27.9482 5.63604 29.636C3.94821 31.3238 3 33.613 3 35.9999C3 38.3869 3.94821 40.6761 5.63604 42.3639C7.32387 44.0517 9.61305 44.9999 12 44.9999ZM37.545 27.4379C37.0784 27.1576 36.5443 27.0095 36 27.0095C35.4557 27.0095 34.9216 27.1576 34.455 27.4379L28.455 31.0379C28.0113 31.3045 27.6441 31.6814 27.3891 32.1319C27.1341 32.5825 27.0001 33.0913 27 33.6089V38.3969C27.0004 38.9149 27.1349 39.4239 27.3904 39.8745C27.6459 40.325 28.0137 40.7017 28.458 40.9679L34.458 44.5679C34.9239 44.8471 35.4569 44.9946 36 44.9946C36.5431 44.9946 37.0761 44.8471 37.542 44.5679L43.542 40.9679C43.9859 40.702 44.3534 40.3257 44.6088 39.8758C44.8643 39.4258 44.9991 38.9174 45 38.3999V33.6119C44.9996 33.094 44.8651 32.585 44.6096 32.1344C44.3541 31.6839 43.9863 31.3072 43.542 31.0409L37.545 27.4379ZM30 38.3969V33.6089L36 30.0089L42 33.6089V38.3969L36 41.9969L30 38.3969ZM30 8.99994C30 8.20429 30.3161 7.44123 30.8787 6.87862C31.4413 6.31601 32.2044 5.99994 33 5.99994H39C39.7957 5.99994 40.5587 6.31601 41.1213 6.87862C41.6839 7.44123 42 8.20429 42 8.99994V14.9999C42 15.7956 41.6839 16.5587 41.1213 17.1213C40.5587 17.6839 39.7957 17.9999 39 17.9999H33C32.2044 17.9999 31.4413 17.6839 30.8787 17.1213C30.3161 16.5587 30 15.7956 30 14.9999V8.99994ZM33 2.99994C31.4087 2.99994 29.8826 3.63208 28.7574 4.7573C27.6321 5.88252 27 7.40864 27 8.99994V14.9999C27 16.5912 27.6321 18.1174 28.7574 19.2426C29.8826 20.3678 31.4087 20.9999 33 20.9999H39C40.5913 20.9999 42.1174 20.3678 43.2426 19.2426C44.3679 18.1174 45 16.5912 45 14.9999V8.99994C45 7.40864 44.3679 5.88252 43.2426 4.7573C42.1174 3.63208 40.5913 2.99994 39 2.99994H33Z" fill="url(#paint0_linear_1883_279)"/>
<defs>
<linearGradient id="paint0_linear_1883_279" x1="3" y1="23.997" x2="45" y2="23.997" gradientUnits="userSpaceOnUse">
<stop stop-color="white"/>
<stop offset="1" stop-color="#38EF7D"/>
</linearGradient>
</defs>
</svg>
