<svg width="48" height="49" viewBox="0 0 48 49" fill="none" xmlns="http://www.w3.org/2000/svg">
<path d="M9.318 4.91559C9.56681 4.41636 9.94987 3.9964 10.4242 3.70284C10.8985 3.40929 11.4452 3.25378 12.003 3.25378C12.5608 3.25378 13.1075 3.40929 13.5818 3.70284C14.0561 3.9964 14.4392 4.41636 14.688 4.91559L20.688 16.9156C20.9174 17.3734 21.0258 17.8823 21.0029 18.3939C20.98 18.9055 20.8265 19.4027 20.557 19.8382C20.2875 20.2736 19.9111 20.6329 19.4635 20.8817C19.0159 21.1305 18.5121 21.2606 18 21.2596H6.012C5.50057 21.2598 4.99757 21.1293 4.55078 20.8804C4.10399 20.6316 3.72823 20.2726 3.45921 19.8377C3.19018 19.4027 3.03681 18.9062 3.01367 18.3953C2.99054 17.8844 3.09839 17.3761 3.327 16.9186L9.318 4.91559ZM18.003 18.2596L12.003 6.25659L6.012 18.2596H18.003ZM12 42.2596C10.942 42.2597 9.90276 41.9801 8.98767 41.4491C8.07259 40.9181 7.31418 40.1545 6.78936 39.2359C6.26455 38.3172 5.99197 37.2761 5.99929 36.2181C6.0066 35.1601 6.29353 34.1229 6.831 33.2116L15.048 41.4316C14.1242 41.9748 13.0717 42.2608 12 42.2596ZM8.952 31.0906C10.0983 30.4117 11.4379 30.1337 12.7596 30.3002C14.0813 30.4668 15.3101 31.0685 16.2521 32.0105C17.1941 32.9525 17.7958 34.1812 17.9624 35.503C18.1289 36.8247 17.8509 38.1643 17.172 39.3106L8.952 31.0906ZM12 45.2596C14.3869 45.2596 16.6761 44.3114 18.364 42.6236C20.0518 40.9357 21 38.6465 21 36.2596C21 33.8726 20.0518 31.5835 18.364 29.8956C16.6761 28.2078 14.3869 27.2596 12 27.2596C9.61305 27.2596 7.32387 28.2078 5.63604 29.8956C3.94821 31.5835 3 33.8726 3 36.2596C3 38.6465 3.94821 40.9357 5.63604 42.6236C7.32387 44.3114 9.61305 45.2596 12 45.2596ZM37.545 27.6976C37.0784 27.4173 36.5443 27.2692 36 27.2692C35.4557 27.2692 34.9216 27.4173 34.455 27.6976L28.455 31.2976C28.0113 31.5642 27.6441 31.9411 27.3891 32.3916C27.1341 32.8421 27.0001 33.3509 27 33.8686V38.6566C27.0004 39.1745 27.1349 39.6836 27.3904 40.1341C27.6459 40.5846 28.0137 40.9614 28.458 41.2276L34.458 44.8276C34.9239 45.1068 35.4569 45.2542 36 45.2542C36.5431 45.2542 37.0761 45.1068 37.542 44.8276L43.542 41.2276C43.9859 40.9616 44.3534 40.5854 44.6088 40.1354C44.8643 39.6854 44.9991 39.177 45 38.6596V33.8716C44.9996 33.3536 44.8651 32.8446 44.6096 32.3941C44.3541 31.9435 43.9863 31.5668 43.542 31.3006L37.545 27.6976ZM30 38.6566V33.8686L36 30.2686L42 33.8686V38.6566L36 42.2566L30 38.6566ZM30 9.25959C30 8.46394 30.3161 7.70087 30.8787 7.13827C31.4413 6.57566 32.2044 6.25959 33 6.25959H39C39.7957 6.25959 40.5587 6.57566 41.1213 7.13827C41.6839 7.70087 42 8.46394 42 9.25959V15.2596C42 16.0552 41.6839 16.8183 41.1213 17.3809C40.5587 17.9435 39.7957 18.2596 39 18.2596H33C32.2044 18.2596 31.4413 17.9435 30.8787 17.3809C30.3161 16.8183 30 16.0552 30 15.2596V9.25959ZM33 3.25959C31.4087 3.25959 29.8826 3.89173 28.7574 5.01695C27.6321 6.14216 27 7.66829 27 9.25959V15.2596C27 16.8509 27.6321 18.377 28.7574 19.5022C29.8826 20.6274 31.4087 21.2596 33 21.2596H39C40.5913 21.2596 42.1174 20.6274 43.2426 19.5022C44.3679 18.377 45 16.8509 45 15.2596V9.25959C45 7.66829 44.3679 6.14216 43.2426 5.01695C42.1174 3.89173 40.5913 3.25959 39 3.25959H33Z" fill="#38EF7D"/>
</svg>
