<svg width="48" height="49" viewBox="0 0 48 49" fill="none" xmlns="http://www.w3.org/2000/svg">
<path d="M22 4.25964C13.164 4.25964 6 11.3496 6 20.0976C6 23.0836 6.834 25.8776 8.286 28.2596M29 22.2596V26.2596M35 22.2596V26.2596M29 6.25964V10.2596M35 6.25964V10.2596M26 13.2596H22M26 19.2596H22M42 13.2596H38M42 19.2596H38M28 38.2596L27.74 39.5536C27.46 40.9676 27.318 41.6736 27 42.2336C26.51 43.0968 25.7166 43.7469 24.774 44.0576C24.164 44.2596 23.44 44.2596 22 44.2596C20.56 44.2596 19.836 44.2596 19.226 44.0596C18.2831 43.7484 17.4896 43.0975 17 42.2336C16.682 41.6736 16.54 40.9676 16.26 39.5536L16 38.2596M34 10.2596H30C28.114 10.2596 27.172 10.2596 26.586 10.8456C26 11.4316 26 12.3736 26 14.2596V18.2596C26 20.1456 26 21.0876 26.586 21.6736C27.172 22.2596 28.114 22.2596 30 22.2596H34C35.886 22.2596 36.828 22.2596 37.414 21.6736C38 21.0876 38 20.1456 38 18.2596V14.2596C38 12.3736 38 11.4316 37.414 10.8456C36.828 10.2596 35.886 10.2596 34 10.2596ZM12.766 34.4556C12.582 33.9036 12.49 33.6256 12.5 33.4016C12.5113 33.17 12.5895 32.9467 12.7251 32.7585C12.8607 32.5704 13.0479 32.4256 13.264 32.3416C13.472 32.2596 13.764 32.2596 14.344 32.2596H29.656C30.238 32.2596 30.528 32.2596 30.736 32.3396C30.9524 32.4238 31.1398 32.5689 31.2755 32.7574C31.4111 32.9459 31.4891 33.1697 31.5 33.4016C31.51 33.6256 31.418 33.9016 31.234 34.4556C30.894 35.4776 30.724 35.9896 30.462 36.4036C29.914 37.2689 29.055 37.8909 28.062 38.1416C27.586 38.2596 27.05 38.2596 25.976 38.2596H18.024C16.95 38.2596 16.412 38.2596 15.938 38.1396C14.9453 37.8894 14.0864 37.2681 13.538 36.4036C13.276 35.9896 13.106 35.4776 12.766 34.4556Z" stroke="#38EF7D" stroke-width="3" stroke-linecap="round" stroke-linejoin="round"/>
</svg>
