<svg width="128" height="109" viewBox="0 0 128 109" fill="none" xmlns="http://www.w3.org/2000/svg">
<path d="M30.7646 0C31.6546 0.44 32.6346 0.38 33.5746 0.54C41.0746 1.78 48.2246 4.13 55.1546 7.25C60.2046 9.52 64.9846 12.26 69.7346 15.06C70.2346 15.36 70.7446 15.66 70.9646 16.45C69.5346 16.11 68.4046 15.44 67.1946 14.96C59.9946 12.08 52.5446 10.13 44.8546 9.17C37.6746 8.27 30.5046 8.28 23.3846 9.81C21.3446 10.25 19.3346 10.77 17.6046 12.01C15.9346 13.21 15.3346 15 15.9046 16.97C16.3146 18.38 17.0846 19.59 17.9846 20.72C19.6046 22.77 21.5146 24.53 23.5546 26.15C24.2546 26.71 25.0446 26.81 25.9046 26.89C31.2746 27.42 36.6446 27.91 41.8246 29.57C42.4446 29.77 43.5746 29.78 43.4046 30.61C43.2946 31.15 42.2746 30.61 41.6846 30.5C39.6446 30.11 37.6246 29.67 35.5146 29.99C33.5146 30.29 31.4846 30.26 29.4046 30.26C52.7746 48.88 79.6846 59.11 108.655 65.16C106.675 62.61 104.495 60.5 102.235 58.5C93.5546 50.8 83.6546 44.97 73.3446 39.77C69.3146 37.74 65.3146 35.64 61.1246 33.94C60.7646 33.79 60.1946 33.64 60.3346 33.2C60.5246 32.62 61.0846 32.97 61.4746 33.08C69.5746 35.45 77.6046 38.05 85.4046 41.29C92.8046 44.36 99.9146 48 106.795 52.1C111.615 54.97 116.305 58.01 120.545 61.7C123.295 64.1 125.875 66.66 127.395 70.08C127.535 70.41 127.685 70.75 127.745 71.1C128.025 72.59 127.805 72.95 126.325 73.28C121.435 74.37 116.495 74.44 111.535 73.93C107.845 73.55 104.135 73.23 100.475 72.58C90.0746 70.71 79.8446 68.16 69.8246 64.78C61.7446 62.05 53.9146 58.75 46.2646 54.99C38.0746 50.96 30.1646 46.46 22.5546 41.42C20.7846 40.25 19.0646 39.02 17.3246 37.81C16.3146 37.1 15.9446 37.18 15.3946 38.28C14.5946 39.86 15.0946 41.35 15.8546 42.74C17.6946 46.11 20.5046 48.63 23.4646 50.95C30.0546 56.12 37.1846 60.47 44.6246 64.31C54.7246 69.53 65.2046 73.89 75.8846 77.76C76.0946 77.84 76.3046 78.02 76.6346 77.78C76.4346 77.1 75.9346 76.6 75.4746 76.06C72.8646 73.04 69.4546 71.08 66.0946 69.07C64.3546 68.02 62.5246 67.11 60.7446 66.12C60.2946 65.87 59.8446 65.62 59.5246 64.99C60.3046 65.03 60.9046 65.3 61.5046 65.55C69.7346 68.97 77.9746 72.37 86.1946 75.83C89.8046 77.35 93.3546 79.01 96.4946 81.42C97.2346 81.99 97.8746 82.63 98.4046 83.39C99.2946 84.64 99.0646 85.84 97.7446 86.66C96.5146 87.42 95.1246 87.59 93.7146 87.67C88.7146 87.94 83.8446 87.05 78.9846 86.08C72.2746 84.74 65.7046 82.88 59.1446 80.95C53.4246 79.26 47.7946 77.34 42.3646 74.86C37.2946 72.55 32.4346 69.87 27.9746 66.53C26.8846 65.72 26.6646 65.77 25.9946 66.98C24.8746 68.98 25.3446 70.83 26.4546 72.64C27.6746 74.63 29.3946 76.12 31.2946 77.4C37.3446 81.49 43.8846 84.68 50.5846 87.53C55.3046 89.53 60.1246 91.23 65.1446 92.33C65.4846 92.41 65.8346 92.46 66.3746 92.56C65.8846 91.1 65.1646 89.93 64.2646 88.89C63.0546 87.49 61.6546 86.31 60.0846 85.31C59.8046 85.13 59.3646 84.89 59.6346 84.48C59.8446 84.16 60.2246 84.41 60.5146 84.52C66.6846 86.89 72.4446 89.95 77.4246 94.36C78.7346 95.52 80.0846 96.68 81.0246 98.19C81.8746 99.55 81.6446 100.02 80.0946 100.16C74.1246 100.71 68.2146 100.22 62.3046 99.33C53.6746 98.03 46.0046 94.32 38.5546 90.04C38.0646 89.76 37.5946 89.47 37.0946 89.2C36.1046 88.67 35.6046 88.97 35.5946 90.11C35.5946 90.94 35.9146 91.67 36.3346 92.36C37.1546 93.7 38.1646 94.9 39.2846 95.98C43.2346 99.77 47.2146 103.53 51.1946 107.29C51.5646 107.64 51.7946 108.02 51.9046 108.51H51.1846C50.9546 108.16 50.5946 107.99 50.2346 107.8C46.0646 105.6 41.8846 103.42 37.9446 100.81C35.0146 98.86 32.1246 96.84 29.6046 94.38C26.7646 91.61 25.6046 88.09 25.4946 84.19C25.4746 83.46 25.4746 82.8 24.7146 82.33C20.9446 80.02 18.6046 76.58 17.0046 72.53C15.9346 69.83 15.8746 67.17 16.9346 64.47C17.4046 63.28 17.8146 62.06 18.3746 60.92C18.7546 60.14 18.6246 59.71 17.9046 59.26C16.8646 58.6 15.8446 57.88 14.8846 57.09C10.5946 53.57 7.17464 49.44 5.83464 43.9C5.47464 42.39 5.44464 40.93 6.10464 39.46C6.95464 37.58 8.27464 36.11 9.86464 34.88C10.6546 34.26 10.7446 33.89 10.0146 33.13C6.52464 29.5 3.57464 25.48 1.62464 20.81C-1.22536 13.95 -0.145363 8 6.64464 4.09C9.65464 2.35 12.9446 1.39 16.3246 0.68C17.4546 0.44 18.6346 0.43 19.7246 0L30.7646 0Z" fill="#0BB7BD"/>
</svg>
