<svg width="325" height="93" viewBox="0 0 325 93" fill="none" xmlns="http://www.w3.org/2000/svg">
<mask id="path-1-outside-1_1368_63" maskUnits="userSpaceOnUse" x="-1" y="-0.492188" width="327" height="94" fill="black">
<rect fill="white" x="-1" y="-0.492188" width="327" height="94"/>
<path d="M34.09 1.65181C43.562 1.65181 51.8393 3.52914 58.922 7.28381C66.0047 11.0385 71.466 16.3291 75.306 23.1558C79.2313 29.8971 81.194 37.7051 81.194 46.5798C81.194 55.3691 79.2313 63.1771 75.306 70.0038C71.466 76.8305 65.962 82.1211 58.794 85.8758C51.7113 89.6305 43.4767 91.5078 34.09 91.5078H0.426006V1.65181H34.09ZM32.682 72.5638C40.9593 72.5638 47.402 70.3025 52.01 65.7798C56.618 61.2571 58.922 54.8571 58.922 46.5798C58.922 38.3025 56.618 31.8598 52.01 27.2518C47.402 22.6438 40.9593 20.3398 32.682 20.3398H22.314V72.5638H32.682ZM119.154 1.65181V91.5078H97.266V1.65181H119.154ZM219.24 91.5078H197.352L160.744 36.0838V91.5078H138.856V1.65181H160.744L197.352 57.3318V1.65181H219.24V91.5078ZM298.594 30.0678C296.973 27.0811 294.626 24.8198 291.554 23.2838C288.567 21.6625 285.026 20.8518 280.93 20.8518C273.847 20.8518 268.173 23.1985 263.906 27.8918C259.639 32.4998 257.506 38.6865 257.506 46.4518C257.506 54.7291 259.725 61.2145 264.162 65.9078C268.685 70.5158 274.871 72.8198 282.722 72.8198C288.098 72.8198 292.621 71.4545 296.29 68.7238C300.045 65.9931 302.775 62.0678 304.482 56.9478H276.706V40.8198H324.322V61.1718C322.701 66.6331 319.927 71.7105 316.002 76.4038C312.162 81.0971 307.255 84.8945 301.282 87.7958C295.309 90.6971 288.567 92.1478 281.058 92.1478C272.183 92.1478 264.247 90.2278 257.25 86.3878C250.338 82.4625 244.919 77.0438 240.994 70.1318C237.154 63.2198 235.234 55.3265 235.234 46.4518C235.234 37.5771 237.154 29.6838 240.994 22.7718C244.919 15.7745 250.338 10.3558 257.25 6.51581C264.162 2.59047 272.055 0.627808 280.93 0.627808C291.682 0.627808 300.727 3.23047 308.066 8.43581C315.49 13.6411 320.397 20.8518 322.786 30.0678H298.594Z"/>
</mask>
<path d="M58.922 7.28381L59.3904 6.40028L59.3904 6.40028L58.922 7.28381ZM75.306 23.1558L74.4344 23.6461L74.4381 23.6526L74.4418 23.659L75.306 23.1558ZM75.306 70.0038L74.4391 69.5053L74.4344 69.5136L75.306 70.0038ZM58.794 85.8758L58.33 84.99L58.3256 84.9923L58.794 85.8758ZM0.426006 91.5078H-0.573994V92.5078H0.426006V91.5078ZM0.426006 1.65181V0.65181H-0.573994V1.65181H0.426006ZM22.314 20.3398V19.3398H21.314V20.3398H22.314ZM22.314 72.5638H21.314V73.5638H22.314V72.5638ZM34.09 2.65181C43.4283 2.65181 51.5393 4.50192 58.4536 8.16733L59.3904 6.40028C52.1394 2.55637 43.6957 0.65181 34.09 0.65181V2.65181ZM58.4536 8.16733C65.3712 11.8345 70.6907 16.9905 74.4344 23.6461L76.1776 22.6655C72.2413 15.6678 66.6382 10.2425 59.3904 6.40028L58.4536 8.16733ZM74.4418 23.659C78.2665 30.2275 80.194 37.8572 80.194 46.5798H82.194C82.194 37.5531 80.1962 29.5668 76.1702 22.6526L74.4418 23.659ZM80.194 46.5798C80.194 55.215 78.2674 62.8474 74.4391 69.5053L76.1729 70.5023C80.1953 63.5069 82.194 55.5233 82.194 46.5798H80.194ZM74.4344 69.5136C70.6925 76.1659 65.3328 81.3219 58.33 84.99L59.258 86.7616C66.5913 82.9204 72.2396 77.495 76.1776 70.4941L74.4344 69.5136ZM58.3256 84.9923C51.4101 88.6584 43.3413 90.5078 34.09 90.5078V92.5078C43.612 92.5078 52.0126 90.6026 59.2624 86.7593L58.3256 84.9923ZM34.09 90.5078H0.426006V92.5078H34.09V90.5078ZM1.42601 91.5078V1.65181H-0.573994V91.5078H1.42601ZM0.426006 2.65181H34.09V0.65181H0.426006V2.65181ZM32.682 73.5638C41.1442 73.5638 47.8668 71.2474 52.7105 66.4935L51.3095 65.0661C46.9372 69.3575 40.7745 71.5638 32.682 71.5638V73.5638ZM52.7105 66.4935C57.5602 61.7336 59.922 55.0461 59.922 46.5798H57.922C57.922 54.6682 55.6758 60.7807 51.3095 65.0661L52.7105 66.4935ZM59.922 46.5798C59.922 38.1125 57.5599 31.3875 52.7171 26.5447L51.3029 27.9589C55.6761 32.3321 57.922 38.4924 57.922 46.5798H59.922ZM52.7171 26.5447C47.8743 21.7019 41.1493 19.3398 32.682 19.3398V21.3398C40.7694 21.3398 46.9297 23.5857 51.3029 27.9589L52.7171 26.5447ZM32.682 19.3398H22.314V21.3398H32.682V19.3398ZM21.314 20.3398V72.5638H23.314V20.3398H21.314ZM22.314 73.5638H32.682V71.5638H22.314V73.5638ZM119.154 1.65181H120.154V0.65181H119.154V1.65181ZM119.154 91.5078V92.5078H120.154V91.5078H119.154ZM97.266 91.5078H96.266V92.5078H97.266V91.5078ZM97.266 1.65181V0.65181H96.266V1.65181H97.266ZM118.154 1.65181V91.5078H120.154V1.65181H118.154ZM119.154 90.5078H97.266V92.5078H119.154V90.5078ZM98.266 91.5078V1.65181H96.266V91.5078H98.266ZM97.266 2.65181H119.154V0.65181H97.266V2.65181ZM219.24 91.5078V92.5078H220.24V91.5078H219.24ZM197.352 91.5078L196.518 92.059L196.814 92.5078H197.352V91.5078ZM160.744 36.0838L161.578 35.5327L159.744 32.7554V36.0838H160.744ZM160.744 91.5078V92.5078H161.744V91.5078H160.744ZM138.856 91.5078H137.856V92.5078H138.856V91.5078ZM138.856 1.65181V0.65181H137.856V1.65181H138.856ZM160.744 1.65181L161.58 1.10244L161.283 0.65181H160.744V1.65181ZM197.352 57.3318L196.516 57.8812L198.352 60.6731V57.3318H197.352ZM197.352 1.65181V0.65181H196.352V1.65181H197.352ZM219.24 1.65181H220.24V0.65181H219.24V1.65181ZM219.24 90.5078H197.352V92.5078H219.24V90.5078ZM198.186 90.9567L161.578 35.5327L159.91 36.6349L196.518 92.059L198.186 90.9567ZM159.744 36.0838V91.5078H161.744V36.0838H159.744ZM160.744 90.5078H138.856V92.5078H160.744V90.5078ZM139.856 91.5078V1.65181H137.856V91.5078H139.856ZM138.856 2.65181H160.744V0.65181H138.856V2.65181ZM159.908 2.20118L196.516 57.8812L198.188 56.7824L161.58 1.10244L159.908 2.20118ZM198.352 57.3318V1.65181H196.352V57.3318H198.352ZM197.352 2.65181H219.24V0.65181H197.352V2.65181ZM218.24 1.65181V91.5078H220.24V1.65181H218.24ZM298.594 30.0678L297.715 30.5449L297.999 31.0678H298.594V30.0678ZM291.554 23.2838L291.077 24.1627L291.092 24.1707L291.107 24.1782L291.554 23.2838ZM263.906 27.8918L264.64 28.5712L264.646 28.5645L263.906 27.8918ZM264.162 65.9078L263.435 66.5948L263.442 66.6016L263.448 66.6083L264.162 65.9078ZM296.29 68.7238L295.702 67.915L295.693 67.9216L296.29 68.7238ZM304.482 56.9478L305.431 57.264L305.869 55.9478H304.482V56.9478ZM276.706 56.9478H275.706V57.9478H276.706V56.9478ZM276.706 40.8198V39.8198H275.706V40.8198H276.706ZM324.322 40.8198H325.322V39.8198H324.322V40.8198ZM324.322 61.1718L325.281 61.4564L325.322 61.3171V61.1718H324.322ZM316.002 76.4038L315.235 75.7622L315.228 75.7706L316.002 76.4038ZM301.282 87.7958L300.845 86.8963L300.845 86.8963L301.282 87.7958ZM257.25 86.3878L256.756 87.2574L256.763 87.261L256.769 87.2645L257.25 86.3878ZM240.994 70.1318L240.12 70.6175L240.124 70.6256L240.994 70.1318ZM240.994 22.7718L240.122 22.2826L240.12 22.2862L240.994 22.7718ZM257.25 6.51581L257.736 7.39L257.744 7.38537L257.25 6.51581ZM308.066 8.43581L307.487 9.25147L307.492 9.2546L308.066 8.43581ZM322.786 30.0678V31.0678H324.078L323.754 29.8168L322.786 30.0678ZM299.473 29.5907C297.753 26.422 295.254 24.0159 292.001 22.3894L291.107 24.1782C293.998 25.6237 296.193 27.7403 297.715 30.5449L299.473 29.5907ZM292.031 22.405C288.871 20.6893 285.159 19.8518 280.93 19.8518V21.8518C284.893 21.8518 288.264 22.6356 291.077 24.1627L292.031 22.405ZM280.93 19.8518C273.602 19.8518 267.646 22.2918 263.166 27.2191L264.646 28.5645C268.7 24.1052 274.093 21.8518 280.93 21.8518V19.8518ZM263.172 27.2124C258.696 32.0465 256.506 38.497 256.506 46.4518H258.506C258.506 38.876 260.582 32.9532 264.64 28.5712L263.172 27.2124ZM256.506 46.4518C256.506 54.9099 258.777 61.6678 263.435 66.5948L264.889 65.2208C260.672 60.7611 258.506 54.5483 258.506 46.4518H256.506ZM263.448 66.6083C268.198 71.448 274.665 73.8198 282.722 73.8198V71.8198C275.078 71.8198 269.171 69.5836 264.876 65.2073L263.448 66.6083ZM282.722 73.8198C288.274 73.8198 293.016 72.4066 296.887 69.526L295.693 67.9216C292.225 70.5023 287.922 71.8198 282.722 71.8198V73.8198ZM296.878 69.5325C300.828 66.6602 303.669 62.5486 305.431 57.264L303.533 56.6316C301.882 61.587 299.262 65.3261 295.702 67.9151L296.878 69.5325ZM304.482 55.9478H276.706V57.9478H304.482V55.9478ZM277.706 56.9478V40.8198H275.706V56.9478H277.706ZM276.706 41.8198H324.322V39.8198H276.706V41.8198ZM323.322 40.8198V61.1718H325.322V40.8198H323.322ZM323.363 60.8872C321.784 66.2083 319.079 71.1657 315.235 75.7623L316.769 77.0454C320.775 72.2552 323.618 67.058 325.281 61.4564L323.363 60.8872ZM315.228 75.7706C311.488 80.3415 306.701 84.0522 300.845 86.8963L301.719 88.6953C307.81 85.7368 312.836 81.8528 316.776 77.037L315.228 75.7706ZM300.845 86.8963C295.025 89.7233 288.436 91.1478 281.058 91.1478V93.1478C288.699 93.1478 295.593 91.671 301.719 88.6953L300.845 86.8963ZM281.058 91.1478C272.332 91.1478 264.565 89.2615 257.731 85.5111L256.769 87.2645C263.93 91.1941 272.034 93.1478 281.058 93.1478V91.1478ZM257.744 85.5183C250.989 81.682 245.7 76.3931 241.864 69.638L240.124 70.6256C244.139 77.6945 249.687 83.243 256.756 87.2574L257.744 85.5183ZM241.868 69.6462C238.12 62.9002 236.234 55.1777 236.234 46.4518H234.234C234.234 55.4753 236.188 63.5394 240.12 70.6175L241.868 69.6462ZM236.234 46.4518C236.234 37.7259 238.12 30.0034 241.868 23.2575L240.12 22.2862C236.188 29.3642 234.234 37.4284 234.234 46.4518H236.234ZM241.866 23.2611C245.702 16.4229 250.988 11.1386 257.736 7.38997L256.764 5.64165C249.688 9.57304 244.136 15.1261 240.122 22.2826L241.866 23.2611ZM257.744 7.38537C264.488 3.55515 272.208 1.62781 280.93 1.62781V-0.372192C271.903 -0.372192 263.836 1.62579 256.756 5.64625L257.744 7.38537ZM280.93 1.62781C291.516 1.62781 300.349 4.18795 307.487 9.25146L308.645 7.62015C301.106 2.273 291.848 -0.372192 280.93 -0.372192V1.62781ZM307.492 9.2546C314.711 14.3162 319.485 21.3203 321.818 30.3188L323.754 29.8168C321.308 20.3833 316.269 12.966 308.64 7.61702L307.492 9.2546ZM322.786 29.0678H298.594V31.0678H322.786V29.0678Z" fill="white" mask="url(#path-1-outside-1_1368_63)"/>
</svg>
