<svg width="70" height="71" viewBox="0 0 70 71" fill="none" xmlns="http://www.w3.org/2000/svg">
<mask id="mask0_1452_5703" style="mask-type:alpha" maskUnits="userSpaceOnUse" x="0" y="0" width="70" height="71">
<circle cx="35" cy="35.8203" r="35" fill="#D9D9D9"/>
</mask>
<g mask="url(#mask0_1452_5703)">
<path d="M54.1874 64.7162C54.0267 64.8309 53.8431 64.9457 53.6825 65.0604C53.4989 65.1752 53.3382 65.29 53.1546 65.3818C52.9939 65.4736 52.8562 65.5654 52.6956 65.6572C52.6726 65.6801 52.6497 65.6801 52.6267 65.7031C52.0988 66.0244 51.548 66.3228 50.9972 66.5982C50.8365 66.69 50.6529 66.7818 50.4923 66.8506C50.4923 66.8506 50.4693 66.8736 50.4464 66.8736C50.2628 66.9654 50.0792 67.0572 49.8955 67.149C49.5283 67.3326 49.1382 67.4933 48.7709 67.6539C48.5873 67.7457 48.3808 67.8146 48.1972 67.8834C48.0136 67.9523 47.807 68.0441 47.6234 68.1129C47.4398 68.1818 47.2332 68.2736 47.0496 68.3425C47.0496 68.3425 47.0496 68.3425 47.0267 68.3425C46.8431 68.4113 46.6365 68.4802 46.4529 68.549C46.0398 68.6867 45.6037 68.8244 45.1906 68.9621C45.0529 69.008 44.8922 69.0539 44.7545 69.0998C44.3184 69.2375 43.8824 69.3523 43.4463 69.4441C43.2856 69.49 43.125 69.513 42.9414 69.5589C42.5283 69.6507 42.0922 69.7425 41.6791 69.8343C41.5873 69.8572 41.5184 69.8572 41.4266 69.8802C41.2889 69.9031 41.1282 69.9261 40.9905 69.949C40.784 69.972 40.6004 70.0179 40.3938 70.0408C40.302 70.0638 40.2102 70.0638 40.1184 70.0867C40.0036 70.1097 39.8659 70.1326 39.7282 70.1326C39.361 70.1785 38.9708 70.2244 38.6036 70.2703C38.4889 70.2933 38.3512 70.2933 38.2364 70.3162H38.2135C38.0528 70.3392 37.8921 70.3392 37.7315 70.3621C37.5708 70.3851 37.4102 70.3851 37.2495 70.3851C37.1577 70.3851 37.0429 70.408 36.9511 70.408C36.7675 70.408 36.6069 70.431 36.4462 70.431C36.2167 70.431 36.0102 70.4539 35.7806 70.4539C35.5511 70.4539 35.3446 70.4539 35.1151 70.4539C34.9544 70.4539 34.7937 70.4539 34.6331 70.4539C24.9477 70.3162 16.2493 66.208 10.0295 59.6899C10.0295 59.6899 10.0295 59.6669 10.0066 59.6669C9.31806 59.0473 9.91479 55.7423 12.6919 53.6538C16.1804 51.0144 24.5346 49.3619 24.5346 49.3619C24.5346 49.3619 27.7707 48.834 39.7741 51.3357C46.7971 52.8046 52.1447 54.939 55.1284 60.7227C55.7481 61.9162 56.3677 63.7522 54.1874 64.7162Z" fill="white"/>
<path d="M39.8428 51.0836C44.2494 51.9787 48.9544 52.9427 52.5806 55.8575C53.797 56.8444 54.6003 58.2903 55.2659 59.6903C55.5872 60.3788 55.9085 61.0903 56.161 61.8477C56.2987 62.3526 56.5053 62.9264 56.3905 63.5231C56.3676 63.6838 56.2299 63.8903 56.1151 64.0051C55.5872 64.533 55.0134 64.8543 54.4397 65.2674C51.0659 67.6084 47.1871 69.2609 43.1707 70.133C34.2198 72.0839 24.5344 70.5691 16.6622 65.8641C14.0458 64.2805 11.6359 62.3526 9.57033 60.0805C9.34082 59.8051 9.34082 59.346 9.34082 59.0477C9.36377 58.3591 9.54738 57.6936 9.77689 57.0739C10.3277 55.6509 11.0392 54.2279 12.2556 53.241C13.1277 52.6443 14.0687 52.1394 15.0327 51.7263C18.0622 50.441 21.2524 49.5459 24.5344 49.1787C24.8098 49.1558 24.8557 49.5459 24.5803 49.5918C21.436 50.2345 18.3147 51.1984 15.3999 52.5066C14.3442 53.0345 13.2196 53.4935 12.3704 54.3197C11.5671 55.1919 10.9933 56.2706 10.5343 57.3722C10.2359 58.0378 10.0294 59.0936 10.1212 59.6214C11.5671 61.3428 13.2655 62.8575 15.1015 64.1658C25.1541 71.1888 40.4166 71.6478 51.1118 65.7953C52.0757 65.2674 53.0167 64.6707 53.9118 64.051C54.3479 63.7526 54.8069 63.5002 55.1511 63.1559C55.1741 63.133 55.1511 63.1559 55.1511 63.1789C55.1511 63.2018 55.1282 63.2248 55.1282 63.2248C55.1511 62.9493 55.0593 62.5821 54.9446 62.2149C54.5315 60.8838 53.8659 59.4837 53.1544 58.2673C52.0298 56.4542 50.1249 55.3066 48.197 54.3886C46.8658 53.7689 45.4658 53.287 44.0428 52.8279C42.6199 52.3689 41.174 51.9787 39.728 51.6345C39.3608 51.5427 39.4756 51.0148 39.8428 51.0836Z" fill="#EAF164"/>
<path d="M21.0918 45.2759C21.0918 45.2759 23.2262 44.771 24.1213 44.7021L24.3968 47.2038C24.3968 47.1809 21.1147 45.9186 21.0918 45.2759Z" fill="#EAF164"/>
<path d="M57.4233 78.9448H3.76367C3.76367 78.9448 7.18338 71.6234 8.37684 63.361C9.20307 57.6003 10.19 54.5019 13.2425 52.6658C16.6851 50.6002 22.2393 49.6592 24.4885 49.0625C24.4885 49.1773 24.5114 49.2691 24.5114 49.3838C24.5114 49.3838 26.9902 56.7511 33.4394 59.3675C38.6952 61.502 41.8165 60.079 42.2985 57.7151C42.5969 56.2003 41.6559 53.7216 41.1739 52.9183C40.8985 52.6888 40.7149 52.3445 40.6231 52.0002L40.4395 51.2429C41.0133 51.1281 41.5641 50.9674 42.0919 50.7609C45.0526 51.5412 50.7675 53.033 54.256 57.4626C55.1282 58.5642 57.8593 64.4168 57.3544 74.3087C57.1708 79.4497 57.4233 78.9448 57.4233 78.9448Z" fill="#EAF164"/>
<path d="M15.1241 78.9445L14.0913 70.4297" stroke="white" stroke-width="0.16207" stroke-miterlimit="10" stroke-linecap="round" stroke-linejoin="round"/>
<path d="M55.2198 67.5381C55.2198 67.5381 54.5312 69.2135 54.7378 70.8889C54.9444 72.5644 55.5411 75.0201 54.6919 78.9448" stroke="white" stroke-width="0.16207" stroke-miterlimit="10" stroke-linecap="round" stroke-linejoin="round"/>
<path d="M31.7181 63.637C19.0261 59.9648 15.8359 52.5057 15.8359 52.5057C15.8359 52.5057 17.8327 51.2664 18.7737 49.9811C19.3475 49.2008 24.5114 48.3057 24.5114 48.3057C24.6032 49.2926 24.5114 48.3057 24.5803 49.3844C24.5803 49.3844 27.059 56.7517 33.5083 59.3681C38.7641 61.5025 41.8854 60.0796 42.3674 57.7156C42.6657 56.2008 41.7247 53.7221 41.2428 52.9188C40.9674 52.6893 40.7837 52.3451 40.6919 52.0008L40.5083 51.2434C41.8165 50.968 43.0559 50.4631 44.1346 49.7975C44.1805 49.8663 44.2035 49.9352 44.2264 50.004C44.7084 51.1745 46.1772 52.2303 46.1772 52.2303C49.2297 59.4828 44.6395 67.378 31.7181 63.637Z" fill="#EAF164"/>
<path d="M47.0952 51.9091C47.0952 51.9091 48.151 51.4042 49.2067 51.5189C50.2625 51.6337 55.2887 55.696 55.7707 56.5452C56.2756 57.3944 56.2527 60.1026 55.656 60.4469C55.0592 60.7912 54.715 60.0338 54.715 60.0338C54.715 60.0338 55.151 57.5551 54.6691 57.096C54.1871 56.637 49.528 52.7353 49.3674 52.7124C49.2067 52.6894 48.3346 53.4239 48.3346 53.4239L47.0952 51.9091Z" fill="#EAF164"/>
<path d="M19.2788 50.5084C19.2788 50.5084 16.8919 49.292 15.9968 49.292C15.1017 49.292 9.89178 52.5051 9.18029 54.1806C8.46881 55.856 9.43275 59.2298 9.43275 59.2298L10.6951 57.7839C10.6951 57.7839 10.3508 55.2593 10.718 54.3412C11.0852 53.4232 15.2394 50.715 15.6066 50.7838C15.9738 50.8297 18.0165 52.1379 18.0165 52.1379L19.2788 50.5084Z" fill="#EAF164"/>
<path d="M24.6948 54.9385C26.8981 59.1615 31.3047 64.7845 38.672 67.4239C45.3049 69.8108 44.8918 61.8008 43.9278 57.0041C37.3179 58.45 30.6851 58.5647 24.6948 54.9385Z" fill="white"/>
<path d="M43.928 57.0267C43.6755 55.7643 43.3771 54.7315 43.1706 54.1578C42.7116 52.9184 42.023 51.8168 41.4033 50.9905C41.105 51.0823 40.8066 51.1512 40.5083 51.22L40.6919 51.9774C40.7837 52.3446 40.9673 52.666 41.2427 52.8955C41.2886 52.9873 41.3574 53.102 41.4263 53.2397C36.2164 55.2594 30.0655 52.5971 30.0655 52.5971C28.2065 52.5053 28.3442 54.3414 29.2163 56.5217C25.9114 53.3774 24.5573 49.384 24.5573 49.384C24.5114 48.6954 24.4655 48.0298 24.3966 47.3643C24.3966 47.3643 22.6982 48.3053 22.9966 50.4168C23.1343 51.3118 23.6622 52.9873 24.695 54.9381C30.6852 58.5644 37.3181 58.4496 43.928 57.0267Z" fill="white"/>
<path d="M43.8359 56.9577C43.7671 56.8429 43.7441 56.7741 43.6982 56.6364C43.4228 55.7413 43.1244 54.8003 42.7113 53.974C42.2293 53.0101 41.6097 52.1379 40.9211 51.3347L41.5638 51.5412L40.6228 51.7937L41.0818 51.0822C41.1277 51.2888 41.2425 51.7707 41.2884 51.9543C41.3572 52.2297 41.5638 52.4134 41.7244 52.6199C41.7015 52.8035 41.6785 52.9871 41.6326 53.1478C41.6785 53.2855 41.6326 53.4462 41.4949 53.515C40.8293 53.8363 40.0949 54.0888 39.3605 54.2494C36.6522 54.8003 33.8981 54.1806 31.3046 53.4232C30.7997 53.2625 30.3407 53.1478 29.7899 53.1937L29.9964 53.2396C29.8587 53.2396 29.6981 53.2396 29.5604 53.2855C28.8718 53.4921 29.1931 54.6855 29.3308 55.2593C29.4456 55.6265 29.5604 55.9937 29.721 56.3609C29.8587 56.6593 29.6981 57.0036 29.3997 57.1413C29.1702 57.2331 28.9407 57.1642 28.78 57.0036C28.2521 56.4757 27.7472 55.9478 27.2882 55.374C25.8882 53.6298 24.7865 51.7248 23.9832 49.6363L24.5341 50.0264C24.2128 50.0264 23.9603 49.774 23.9373 49.4756L23.7767 47.4789L24.6488 47.9379C23.616 48.5576 23.3177 49.8428 23.6619 50.9445C24.0062 52.2297 24.557 53.515 25.1767 54.7085L24.9472 54.479C30.5243 58.22 37.4785 58.5183 43.8359 56.9577ZM44.0195 57.0724C43.2621 57.6232 41.9539 58.0823 40.99 58.2888C38.7178 58.7937 36.3309 58.4954 34.0588 58.1282C33.3473 58.0134 32.3145 57.8757 31.5801 57.761L30.3636 57.5085C28.7341 57.1183 27.1275 56.5904 25.5669 55.9478L24.9931 55.6954L24.3964 55.4429C24.3275 55.4199 24.2587 55.3511 24.2128 55.2822C23.4554 53.8134 22.7668 52.2756 22.4455 50.6232C22.1472 49.1773 22.8357 47.5936 24.121 46.8362C24.4882 46.6297 24.9701 46.8821 24.9931 47.2953L25.1538 49.315C25.1538 49.315 24.557 48.7641 24.58 48.7641C24.8324 48.7641 25.0619 48.9248 25.1308 49.1543C25.8423 51.0822 26.921 52.9412 28.2292 54.5478C28.6653 55.0986 29.1472 55.5806 29.6292 56.0855L28.6882 56.7282C28.2292 55.4888 27.6095 53.9052 28.4358 52.6658C28.8259 52.1609 29.4915 51.9773 30.1112 52.0002L30.3177 52.0461C30.6391 52.4593 31.0981 52.6429 31.5341 52.7806C33.7834 53.515 36.2162 53.6527 38.5801 53.4691C39.5211 53.3773 40.4392 53.1937 41.3572 52.9642L41.2195 53.3314C41.0588 53.2625 40.9211 53.2166 40.7605 53.1937L40.8752 53.3314C40.4392 52.9642 40.1638 52.3445 40.0719 51.7937L39.9572 51.3347C39.8883 51.0133 40.0949 50.692 40.4162 50.6232L41.2654 50.4166H41.3113C41.5408 50.3478 41.7933 50.4625 41.908 50.6461C42.8261 52.0691 43.5146 53.6757 43.813 55.3511C43.9048 55.7413 43.9507 56.1773 44.0195 56.5904C43.9966 56.7282 44.0195 56.9347 44.0195 57.0724Z" fill="#EAF164"/>
<path d="M21.0918 45.2764C21.0918 45.2764 26.7607 45.46 31.0755 46.6075C31.4886 46.7223 31.4886 49.3846 31.5345 49.8207C31.6952 51.3814 28.4361 54.0437 28.8034 55.4437C29.2853 57.2568 42.2986 67.4471 42.4133 68.6406C42.5281 69.834 32.9804 69.5356 27.3115 62.7421C21.6197 55.9486 22.0557 54.7093 22.0557 54.7093C22.0557 54.7093 21.0918 48.1912 21.0918 45.2764Z" fill="#EAF164"/>
<path d="M46.5444 47.7314L48.0133 48.3511C48.4723 48.5347 48.7018 49.0626 48.5412 49.5446C47.8756 51.5643 46.2231 56.5906 46.1542 58.3348C46.0624 60.5381 41.5181 74.6989 41.5181 74.6989C41.5181 74.6989 38.7411 71.0497 40.7837 67.4464C42.3903 64.6005 42.4821 58.5184 42.3214 57.7152C42.1149 56.6594 41.2427 54.1807 40.7607 52.62C40.5083 51.7708 40.4624 51.243 40.4624 51.243C40.4624 51.243 43.6296 50.7151 46.5444 47.7314Z" fill="#EAF164"/>
<path d="M29.4688 51.4952C29.8364 51.4952 30.1344 51.1561 30.1344 50.7379C30.1344 50.3196 29.8364 49.9805 29.4688 49.9805C29.1012 49.9805 28.8032 50.3196 28.8032 50.7379C28.8032 51.1561 29.1012 51.4952 29.4688 51.4952Z" fill="white"/>
<path d="M41.2887 66.7813C41.1051 68.0207 40.9215 69.283 41.0133 70.5453C41.3116 72.4043 41.4264 74.2634 41.587 76.1224C41.61 76.5814 40.9444 76.6273 40.8985 76.1683C40.8296 74.3093 40.7837 72.4273 40.5542 70.5683C40.5083 69.26 40.7378 67.9748 40.9903 66.7125C41.0362 66.5518 41.3116 66.5977 41.2887 66.7813Z" fill="white"/>
<path d="M47.6462 52.9649C47.233 55.0075 46.774 57.0731 46.0166 59.024C44.8691 61.4568 43.3084 63.6601 41.9772 65.9552C41.8625 66.1618 41.5412 66.0011 41.633 65.7945C42.7346 63.2011 44.3412 60.883 45.4199 58.3125C45.5117 58.0371 46.0166 56.5223 46.1084 56.2239C46.4757 55.0993 46.8658 53.9747 47.3019 52.8731C47.3937 52.6665 47.6921 52.7354 47.6462 52.9649Z" fill="#EAF164"/>
<path d="M44.4786 66.4367C44.8969 66.4367 45.236 66.0976 45.236 65.6793C45.236 65.261 44.8969 64.9219 44.4786 64.9219C44.0603 64.9219 43.7212 65.261 43.7212 65.6793C43.7212 66.0976 44.0603 66.4367 44.4786 66.4367Z" fill="white"/>
<path d="M42.0004 57.1876C41.5184 59.5516 38.3971 60.9745 33.1413 58.8401C27.6789 56.6368 25.315 51.381 24.7183 49.8203C27.9544 43.7612 25.7052 39.5612 25.7052 39.5612C33.1643 38.9186 39.6824 47.64 39.6824 47.64L40.6922 51.9548C40.784 52.322 40.9676 52.6433 41.243 52.8728C41.725 53.722 42.2988 55.6728 42.0004 57.1876Z" fill="white"/>
<path d="M24.6034 49.8894C25.0395 49.2238 25.3149 48.4435 25.4985 47.6861C25.8428 46.1025 25.9576 44.4959 25.9805 42.8894V42.2926C25.9117 41.6959 25.7051 41.0762 25.4756 40.5254C25.1772 39.791 26.2559 39.3319 26.6002 40.0664C26.6461 40.1582 26.6461 40.3188 26.6461 40.4106C26.7149 43.532 26.8527 47.5484 24.8789 50.1419C24.7412 50.2796 24.4657 50.073 24.6034 49.8894Z" fill="#EAF164"/>
<path d="M39.9347 47.5937C40.2789 47.8002 40.3937 48.0756 40.4396 48.351C40.5773 48.9019 40.5314 49.4986 40.6691 50.0724C40.7839 50.6232 41.1281 51.1511 41.2199 51.7249C41.3347 52.3216 41.679 53.5839 41.8167 54.2036C41.8626 54.3413 41.7708 54.5019 41.6101 54.5249C41.5183 54.5478 41.4495 54.5249 41.3806 54.479C41.0822 54.2265 40.9445 53.9741 40.7609 53.6527C40.4626 53.1019 40.256 52.597 40.0724 51.9773C39.9117 51.4265 39.9806 50.8298 39.8429 50.256C39.7281 49.7052 39.4068 49.1773 39.2921 48.6035C39.2232 48.3281 39.2002 48.0297 39.4068 47.6855C39.5445 47.5478 39.774 47.5019 39.9347 47.5937Z" fill="#EAF164"/>
<path d="M41.5873 53.6535C37.2037 53.424 33.6233 52.0469 30.1348 45.8271C33.0725 48.4206 36.5381 49.4075 40.1873 49.8665L40.6693 51.978C40.7611 52.3452 41.3119 53.424 41.5873 53.6535Z" fill="#EAF164"/>
<path d="M41.4038 52.8044C42.1841 54.2732 42.6431 56.1093 42.1612 57.7388C41.794 58.8864 40.7382 59.7356 39.5907 60.0569C36.9283 60.7684 33.8529 59.6438 31.4889 58.3815C28.5741 56.7519 26.4167 54.0208 25.0397 51.0371C24.9479 50.8076 25.2692 50.624 25.4069 50.8535C25.8889 51.8175 26.4397 52.7585 27.0594 53.6076C27.679 54.4798 28.3905 55.2831 29.1938 55.9946C31.5348 58.1061 34.7021 59.4143 37.8693 59.4143C41.1284 59.3225 42.3677 57.6011 41.6103 54.4339C41.4956 53.929 41.312 53.4011 41.0595 52.965C40.9218 52.7814 41.2661 52.5748 41.4038 52.8044Z" fill="#EAF164"/>
<path d="M50.2859 25.2404C50.699 27.1683 50.9056 28.7289 49.781 33.87C48.6793 38.988 51.3646 40.0438 45.0072 48.2373C42.4137 51.5882 36.1251 50.6472 31.03 47.1816C29.3086 46.0111 28.5742 43.0045 27.2889 40.87C26.2791 39.1946 25.8201 40.9389 24.4889 39.493C22.6758 37.5192 20.4954 33.5486 21.5741 26.5256C23.3184 15.1419 32.3382 13.8107 39.0169 15.073C45.7416 16.3583 49.1843 20.1682 50.2859 25.2404Z" fill="white"/>
<path d="M25.6361 41.5356C25.1083 40.6405 24.4197 39.8602 23.7771 39.0339C23.1574 38.1847 22.6525 37.2437 22.2394 36.2798C19.5082 29.5781 20.5639 20.1452 27.2657 16.1976C30.0427 14.591 33.3936 14.2009 36.5149 14.4533C43.1937 14.9353 49.3216 18.0108 50.7675 25.0797C51.5479 28.201 50.4921 31.4142 49.8954 34.4667C49.62 35.9814 49.8495 37.5421 49.8266 39.1028C49.8036 40.6864 49.3675 42.27 48.7708 43.7389C48.4036 44.7487 47.761 45.6438 47.0954 46.4701C45.9937 47.8012 44.8921 49.1554 43.4921 50.1881C43.1707 50.4177 42.597 50.5324 42.2068 50.5783C41.1281 50.739 40.0723 50.7849 38.9936 50.716C34.7707 50.5324 30.2493 48.4898 28.5509 44.4045C28.4821 44.2438 28.7116 44.1291 28.8034 44.2668C31.0067 47.7553 35.0461 49.4767 39.0625 49.7062C40.3019 49.775 41.5642 49.7521 42.7806 49.4996C43.3773 49.2013 43.9052 48.6734 44.4101 48.1914C45.6495 46.952 46.9118 45.6209 47.8069 44.1061C48.8856 42.0635 49.4823 39.8372 49.2987 37.5192C49.2528 36.4864 49.2298 35.4077 49.4364 34.3749C49.62 33.3421 49.8495 32.3552 49.9872 31.2994C50.1249 30.2896 50.1938 29.2568 50.1938 28.2469C50.079 25.2862 49.1151 22.2337 47.2331 19.9386C43.0789 14.7747 33.2559 13.4205 27.7247 16.955C24.2361 19.1124 22.6066 23.1518 22.0787 27.0764C21.2754 31.7814 21.5049 36.4175 25.246 39.8372L26.3476 40.9848C26.7837 41.4897 26.0033 42.0864 25.6361 41.5356Z" fill="#EAF164"/>
<path d="M28.3442 34.2368C28.3442 34.2368 27.6328 30.7941 24.2819 31.2073C21.3901 31.5745 20.3802 38.5057 26.9442 40.4336" fill="white"/>
<path d="M26.6459 37.4279C26.118 37.1296 25.7508 36.6246 25.7279 36.005C25.7508 35.5459 25.8197 35.0181 25.7049 34.5591C25.6361 34.123 25.177 34.0082 24.8328 34.0312C24.4656 34.1 24.236 34.5591 24.1672 34.9263C24.1672 34.9492 24.1442 35.0181 24.1442 35.041C24.1213 35.1558 23.9377 35.1558 23.8918 35.041C23.5934 34.1459 24.259 33.159 25.2229 33.2738C26.5771 33.3656 26.7607 34.7886 26.5082 35.8673C26.3705 36.3263 26.5541 36.7394 26.8066 37.1296L26.8525 37.1984C26.9672 37.3361 26.7836 37.5197 26.6459 37.4279Z" fill="#EAF164"/>
<path d="M45.0069 31.8048C45.3512 33.4343 45.9938 34.9491 46.7971 36.3721C47.5086 38.1164 45.6725 39.7688 44.043 39.7C43.8594 39.7 43.8364 39.4475 43.9971 39.4016C45.0299 39.0803 45.9709 38.3918 46.1315 37.336C46.2004 37.0147 46.1086 36.7393 45.9479 36.4639C45.1905 35.0409 44.7315 33.4114 44.8463 31.8048C44.8463 31.6901 45.0069 31.6901 45.0069 31.8048Z" fill="#EAF164"/>
<path d="M28.2297 34.2599C27.7018 32.9058 26.5542 31.6206 25.0165 31.6435C24.8788 31.6206 24.6493 31.6665 24.5116 31.6665C24.1214 31.6894 23.8001 31.8271 23.5017 32.1025C22.0329 33.5714 22.2853 36.1649 23.4788 37.7944C23.8919 38.3682 24.4198 38.8731 25.0165 39.2862C25.6132 39.6993 26.2788 40.0207 26.9903 40.2961C27.151 40.342 27.0821 40.5944 26.9214 40.5715C25.3837 40.2502 23.9149 39.4928 22.905 38.2305C21.3443 36.3485 21.023 33.2042 22.8821 31.3681C23.2952 31.0009 23.869 30.7255 24.4427 30.7255C24.6263 30.7255 24.9018 30.6796 25.0854 30.7255C26.0493 30.7714 26.9674 31.2534 27.5641 32.0107C28.092 32.6534 28.3903 33.4337 28.4821 34.214C28.4821 34.3517 28.2756 34.3976 28.2297 34.2599Z" fill="#EAF164"/>
<path d="M43.2625 41.971C42.551 42.5447 41.5641 42.5677 40.7149 42.3611C40.4395 42.2923 40.1182 42.2464 39.9575 41.948C39.7969 41.6956 39.9575 41.3742 40.2559 41.3283C40.5542 41.2595 40.7379 41.3972 40.9903 41.466C41.6559 41.6956 42.3903 41.8333 43.0789 41.6037C43.2625 41.5578 43.4461 41.8333 43.2625 41.971Z" fill="#EAF164"/>
<path d="M40.7384 40.502C41.2204 41.3512 40.5318 42.3611 39.7056 42.6824C39.522 42.7742 38.6499 42.9578 38.6728 42.6135C38.6728 42.5676 38.7187 42.5217 38.7646 42.4988C39.5908 42.1316 40.1876 41.3742 40.3253 40.502C40.3482 40.3184 40.6007 40.2725 40.6925 40.4332L40.7384 40.502Z" fill="#EAF164"/>
<path d="M36.4464 34.1448C35.8956 34.1219 35.4825 33.6628 35.5284 33.112L35.5513 32.4694C35.5743 31.9186 36.0333 31.5054 36.5841 31.5513C37.135 31.5743 37.5481 32.0333 37.5022 32.5841L37.4792 33.2268C37.4563 33.7546 36.9973 34.1678 36.4464 34.1448Z" fill="#EAF164"/>
<path d="M46.1085 34.4894C45.6035 34.4665 45.2134 34.0304 45.2363 33.5255L45.2593 32.9288C45.2822 32.4238 45.7183 32.0337 46.2232 32.0566C46.7281 32.0796 47.1183 32.5156 47.0953 33.0206L47.0724 33.6173C47.0494 34.1222 46.6134 34.5124 46.1085 34.4894Z" fill="#EAF164"/>
<path d="M38.512 32.9066C37.7546 32.4017 36.9284 32.0574 36.0103 32.241C35.712 32.2869 35.4136 32.3788 35.23 32.5853C35.1611 32.6771 35.0005 32.6542 35.0005 32.5165C35.0234 32.0574 35.4136 31.7591 35.7808 31.5755C36.4923 31.2082 37.4792 31.2771 38.1218 31.7591C38.3513 31.8968 39.1317 32.746 38.7186 32.9296C38.6268 32.9755 38.5809 32.9525 38.512 32.9066Z" fill="#EAF164"/>
<path d="M45.0762 33.0209C45.0762 32.057 46.2696 31.7127 47.0041 32.057C47.4172 32.2406 47.7155 32.6078 47.8303 33.0438C47.8762 33.1816 47.6696 33.2963 47.5778 33.1816C47.1877 32.7225 46.5221 32.493 45.9942 32.7684C45.8336 32.8602 45.8106 32.9291 45.7647 33.0209C45.7647 33.4799 45.0991 33.457 45.0762 33.0209Z" fill="#EAF164"/>
<path d="M39.6135 29.119C40.0954 29.2796 40.5774 28.8436 40.4856 28.3157C40.4397 28.0403 40.3249 27.7649 40.0954 27.5583C39.4069 26.9386 36.561 26.3878 34.8396 27.1911C33.3249 27.9255 37.4102 28.3846 39.6135 29.119Z" fill="#EAF164"/>
<path d="M46.4759 29.4865C46.0857 29.6242 45.6726 29.2111 45.7415 28.7291C45.7644 28.4766 45.8562 28.2242 46.0398 28.0406C46.5906 27.4897 48.4726 27.0537 49.6661 27.9029C50.6989 28.6143 48.2661 28.8209 46.4759 29.4865Z" fill="#EAF164"/>
<path d="M47.6004 18.5382C46.4299 17.4595 44.961 16.4038 43.1708 15.6923C37.8691 13.5349 32.9346 13.6037 29.0559 15.2792C28.9411 13.0299 28.3444 9.58729 25.705 9.01351C21.7116 8.11842 23.0886 12.4791 24.328 15.2103C24.328 15.2103 19.5542 10.9414 17.4656 13.8332C15.4689 16.6103 20.4722 19.6399 20.4722 19.6399C20.4722 19.6399 13.059 20.2366 14.6197 24.4596C15.5377 26.8924 18.6132 26.0891 21.0689 24.9875C19.0722 32.9056 22.5378 38.2991 24.328 40.4565C26.1641 42.6598 26.3247 44.3352 26.3247 44.3352C27.2657 43.8073 26.1411 41.4434 26.187 40.204C20.4493 38.0007 21.4821 31.5974 24.2821 31.2301C27.2198 30.8629 28.1379 33.4794 28.2985 34.122C29.3543 32.8597 29.3543 31.6433 29.1477 30.381C28.3444 25.7678 28.8034 23.2661 31.5805 22.6694C36.0101 21.7055 40.0036 23.9547 45.2823 24.6661C47.2332 24.9416 48.4496 23.1514 49.8955 23.794C50.0561 24.276 50.1938 24.7579 50.3086 25.2629C50.4004 25.653 50.4693 26.0203 50.5152 26.4104C50.7447 23.1973 50.0791 20.8333 47.6004 18.5382Z" fill="#EAF164"/>
<path d="M66.145 20.1687C80.0763 46.9985 55.5875 77.2709 26.3938 69.8807C13.2887 66.6216 2.75417 55.2608 0.573823 41.9263C-1.90489 28.6606 4.08534 14.4079 15.2855 6.90294C30.6397 -3.65455 51.9154 -0.143035 62.9089 14.9588C62.9778 15.0276 62.9548 15.1424 62.863 15.2112C62.7942 15.2801 62.6794 15.2571 62.6105 15.1653C61.0958 13.2145 59.3745 11.4473 57.4925 9.86363C54.3941 7.22426 50.7678 5.15866 46.935 3.75865C27.4266 -3.31028 6.01323 8.44066 1.74433 28.8442C-3.0754 51.7034 16.3642 72.7495 39.5447 69.6053C57.4236 67.356 70.7123 50.8542 69.2434 32.9065C68.9221 28.5687 67.7745 24.2769 65.8696 20.3293C65.8237 20.2605 65.8696 20.1687 65.9385 20.1228C66.0073 20.0769 66.0991 20.0998 66.145 20.1687Z" fill="#EAF164"/>
</g>
</svg>
