<svg width="26" height="26" viewBox="0 0 26 26" fill="none" xmlns="http://www.w3.org/2000/svg">
<path d="M24.6623 22.4661L20.9123 18.7161C20.2873 18.0911 19.3498 18.0911 18.829 18.7161L17.3706 17.2578C18.9331 15.487 19.8706 13.1953 19.8706 10.6953C19.8706 5.17448 15.3915 0.695312 9.97481 0.695312C4.55815 0.695312 0.0789795 5.17448 0.0789795 10.5911C0.0789795 16.0078 4.55815 20.487 9.97481 20.487C12.4748 20.487 14.8706 19.5495 16.5373 17.987L17.9956 19.4453C17.4748 20.0703 17.4748 21.0078 17.9956 21.5286L21.7456 25.2786C22.0581 25.5911 22.4748 25.6953 22.8915 25.6953C23.3081 25.6953 23.7248 25.5911 24.0373 25.2786L24.6623 24.6536C25.1831 24.0286 25.1831 22.987 24.6623 22.4661ZM6.12065 2.67448L8.30815 4.54948L7.47481 6.21615C7.37065 6.32031 7.37065 6.52865 7.37065 6.63281C7.37065 6.73698 7.57898 6.84115 7.68315 6.94531L10.2873 7.77865L9.55815 9.86198L8.09981 9.13281C7.99565 9.02865 7.78731 9.02865 7.68315 9.02865C7.57898 9.02865 7.47481 9.23698 7.37065 9.34115L6.43315 12.1536H5.28731C5.07898 12.1536 4.97481 12.2578 4.87065 12.362C4.76648 12.4661 4.76648 12.6745 4.76648 12.7786L5.18315 14.5495L4.76648 14.9661L3.09981 13.2995C2.99565 13.2995 2.78731 13.1953 2.68315 13.1953H1.53731C1.22481 12.362 1.12065 11.5286 1.12065 10.5911C1.12065 7.15365 3.20398 4.13281 6.12065 2.67448ZM1.95398 14.237H2.47481L4.45398 16.2161C4.45398 16.3203 4.66231 16.3203 4.76648 16.3203C4.87065 16.3203 5.07898 16.3203 5.18315 16.2161L6.22481 15.1745C6.32898 14.9661 6.32898 14.7578 6.32898 14.6536L5.91231 13.1953H6.84981C7.05815 13.1953 7.26648 13.0911 7.37065 12.8828L8.20398 10.2786L9.76648 11.0078C9.87065 11.112 10.079 11.112 10.1831 11.112C10.2873 11.0078 10.3915 10.9036 10.4956 10.7995L11.5373 7.67448C11.6415 7.36198 11.4331 7.15365 11.2248 7.04948L8.62065 6.11198L9.34981 4.54948C9.55815 4.34115 9.45398 4.13281 9.24565 3.92448L7.16231 2.15365C8.09981 1.94531 9.03731 1.73698 9.97481 1.73698C14.2456 1.73698 17.7873 4.75781 18.6206 8.82031L16.0165 10.1745C15.8081 10.1745 15.704 10.3828 15.704 10.5911V11.4245L14.9748 12.1536H13.0998C12.8915 12.1536 12.6831 12.2578 12.6831 12.4661L11.6415 14.5495C11.5373 14.7578 11.5373 14.9661 11.7456 15.1745L12.7873 16.2161C12.8915 16.3203 12.9956 16.3203 13.204 16.3203H13.829L14.454 18.1953C13.0998 18.9245 11.6415 19.4453 9.97481 19.4453C6.43315 19.4453 3.30815 17.2578 1.95398 14.237ZM15.2873 17.6745L14.6623 15.5911C14.5581 15.3828 14.3498 15.2786 14.1415 15.2786H13.3081L12.6831 14.6536L13.4123 13.1953H15.1831C15.2873 13.1953 15.4956 13.0911 15.5998 13.0911L16.6415 12.0495C16.7456 11.9453 16.7456 11.8411 16.7456 11.6328V10.9036L18.829 9.86198C18.829 10.0703 18.829 10.2786 18.829 10.5911C18.829 13.5078 17.4748 16.0078 15.2873 17.6745ZM23.9331 23.9245L23.3081 24.5495C23.0998 24.7578 22.7873 24.7578 22.579 24.5495L18.829 20.7995C18.6206 20.5911 18.6206 20.2786 18.829 20.0703L19.454 19.4453C19.5581 19.3411 19.6623 19.3411 19.8706 19.3411C20.079 19.3411 20.1831 19.3411 20.2873 19.4453L24.0373 23.1953C24.0373 23.4036 24.0373 23.7161 23.9331 23.9245Z" fill="#64ECC7"/>
</svg>
