<svg width="169" height="91" viewBox="0 0 169 91" fill="none" xmlns="http://www.w3.org/2000/svg">
<mask id="path-1-outside-1_1368_67" maskUnits="userSpaceOnUse" x="-1" y="-0.492188" width="172" height="92" fill="black">
<rect fill="white" x="-1" y="-0.492188" width="172" height="92"/>
<path d="M68.871 29.5798C68.871 34.7851 67.6763 39.5638 65.287 43.9158C62.8977 48.1825 59.2283 51.6385 54.279 54.2838C49.3297 56.9291 43.1857 58.2518 35.847 58.2518H22.279V90.5078H0.391002V0.65181H35.847C43.015 0.65181 49.0737 1.88914 54.023 4.36381C58.9723 6.83847 62.6843 10.2518 65.159 14.6038C67.6337 18.9558 68.871 23.9478 68.871 29.5798ZM34.183 40.8438C38.3643 40.8438 41.479 39.8625 43.527 37.8998C45.575 35.9371 46.599 33.1638 46.599 29.5798C46.599 25.9958 45.575 23.2225 43.527 21.2598C41.479 19.2971 38.3643 18.3158 34.183 18.3158H22.279V40.8438H34.183ZM140.042 74.6358H106.506L101.13 90.5078H78.218L110.73 0.65181H136.074L168.586 90.5078H145.418L140.042 74.6358ZM134.41 57.7398L123.274 24.8438L112.266 57.7398H134.41Z"/>
</mask>
<path d="M65.287 43.9158L66.1595 44.4044L66.1636 44.3971L65.287 43.9158ZM54.279 54.2838L53.8076 53.4019L53.8076 53.4019L54.279 54.2838ZM22.279 58.2518V57.2518H21.279V58.2518H22.279ZM22.279 90.5078V91.5078H23.279V90.5078H22.279ZM0.391002 90.5078H-0.608998V91.5078H0.391002V90.5078ZM0.391002 0.65181V-0.34819H-0.608998V0.65181H0.391002ZM54.023 4.36381L54.4702 3.46938L54.4702 3.46938L54.023 4.36381ZM22.279 18.3158V17.3158H21.279V18.3158H22.279ZM22.279 40.8438H21.279V41.8438H22.279V40.8438ZM67.871 29.5798C67.871 34.6253 66.7148 39.2373 64.4104 43.4346L66.1636 44.3971C68.6379 39.8904 69.871 34.9449 69.871 29.5798H67.871ZM64.4145 43.4272C62.1317 47.5036 58.6139 50.833 53.8076 53.4019L54.7504 55.1657C59.8428 52.4439 63.6636 48.8614 66.1595 44.4044L64.4145 43.4272ZM53.8076 53.4019C49.0411 55.9495 43.0702 57.2518 35.847 57.2518V59.2518C43.3012 59.2518 49.6183 57.9088 54.7504 55.1657L53.8076 53.4019ZM35.847 57.2518H22.279V59.2518H35.847V57.2518ZM21.279 58.2518V90.5078H23.279V58.2518H21.279ZM22.279 89.5078H0.391002V91.5078H22.279V89.5078ZM1.391 90.5078V0.65181H-0.608998V90.5078H1.391ZM0.391002 1.65181H35.847V-0.34819H0.391002V1.65181ZM35.847 1.65181C42.904 1.65181 48.8001 2.8704 53.5758 5.25824L54.4702 3.46938C49.3472 0.907881 43.126 -0.34819 35.847 -0.34819V1.65181ZM53.5758 5.25823C58.3673 7.654 61.9232 10.9363 64.2897 15.0981L66.0283 14.1095C63.4455 9.56731 59.5774 6.02295 54.4702 3.46938L53.5758 5.25823ZM64.2897 15.0981C66.6684 19.2814 67.871 24.099 67.871 29.5798H69.871C69.871 23.7966 68.5989 18.6303 66.0283 14.1095L64.2897 15.0981ZM34.183 41.8438C38.5013 41.8438 41.9127 40.8319 44.2189 38.6218L42.8351 37.1778C41.0453 38.8931 38.2273 39.8438 34.183 39.8438V41.8438ZM44.2189 38.6218C46.5126 36.4237 47.599 33.3603 47.599 29.5798H45.599C45.599 32.9673 44.6374 35.4506 42.8351 37.1778L44.2189 38.6218ZM47.599 29.5798C47.599 25.7993 46.5126 22.736 44.2189 20.5378L42.8351 21.9818C44.6374 23.709 45.599 26.1923 45.599 29.5798H47.599ZM44.2189 20.5378C41.9127 18.3277 38.5013 17.3158 34.183 17.3158V19.3158C38.2273 19.3158 41.0453 20.2666 42.8351 21.9818L44.2189 20.5378ZM34.183 17.3158H22.279V19.3158H34.183V17.3158ZM21.279 18.3158V40.8438H23.279V18.3158H21.279ZM22.279 41.8438H34.183V39.8438H22.279V41.8438ZM140.042 74.6358L140.989 74.315L140.759 73.6358H140.042V74.6358ZM106.506 74.6358V73.6358H105.789L105.559 74.315L106.506 74.6358ZM101.13 90.5078V91.5078H101.847L102.077 90.8286L101.13 90.5078ZM78.218 90.5078L77.2777 90.1676L76.7927 91.5078H78.218V90.5078ZM110.73 0.65181V-0.34819H110.028L109.79 0.311573L110.73 0.65181ZM136.074 0.65181L137.014 0.311573L136.776 -0.34819H136.074V0.65181ZM168.586 90.5078V91.5078H170.011L169.526 90.1676L168.586 90.5078ZM145.418 90.5078L144.471 90.8286L144.701 91.5078H145.418V90.5078ZM134.41 57.7398V58.7398H135.804L135.357 57.4192L134.41 57.7398ZM123.274 24.8438L124.221 24.5232L123.269 21.7089L122.326 24.5265L123.274 24.8438ZM112.266 57.7398L111.318 57.4225L110.877 58.7398H112.266V57.7398ZM140.042 73.6358H106.506V75.6358H140.042V73.6358ZM105.559 74.315L100.183 90.187L102.077 90.8286L107.453 74.9566L105.559 74.315ZM101.13 89.5078H78.218V91.5078H101.13V89.5078ZM79.1583 90.848L111.67 0.992047L109.79 0.311573L77.2777 90.1676L79.1583 90.848ZM110.73 1.65181H136.074V-0.34819H110.73V1.65181ZM135.134 0.992047L167.646 90.848L169.526 90.1676L137.014 0.311573L135.134 0.992047ZM168.586 89.5078H145.418V91.5078H168.586V89.5078ZM146.365 90.187L140.989 74.315L139.095 74.9566L144.471 90.8286L146.365 90.187ZM135.357 57.4192L124.221 24.5232L122.327 25.1645L133.463 58.0605L135.357 57.4192ZM122.326 24.5265L111.318 57.4225L113.214 58.0571L124.222 25.1611L122.326 24.5265ZM112.266 58.7398H134.41V56.7398H112.266V58.7398Z" fill="white" mask="url(#path-1-outside-1_1368_67)"/>
</svg>
