<svg width="201" height="201" viewBox="0 0 201 201" fill="none" xmlns="http://www.w3.org/2000/svg">
<g clip-path="url(#clip0_2103_483)">
<path d="M199.063 135.414C198.266 170.716 169.407 199.081 133.914 199.081C98.4201 199.081 69.561 170.716 68.764 135.414H99.1121C99.8976 153.967 115.186 168.747 133.914 168.747C152.642 168.747 167.93 153.967 168.715 135.414H199.063Z" stroke="white" stroke-width="3"/>
<path d="M32.4321 133.894C32.4321 152.64 47.2118 167.929 65.7654 168.715V199.063C30.4627 198.266 2.08008 169.406 2.08008 133.894C2.08008 98.3829 30.4622 69.541 65.7654 68.7444V99.0926C47.2123 99.8781 32.4321 115.166 32.4321 133.894Z" stroke="#22BE86" stroke-width="3"/>
<path d="M67.2467 32.4134C48.5185 32.4134 33.2306 47.1937 32.4451 65.7467H2.09701C2.89453 30.445 31.7712 2.08008 67.2467 2.08008C102.74 2.08008 131.599 30.4448 132.396 65.7467H102.048C101.263 47.1937 85.975 32.4134 67.2467 32.4134Z" stroke="white" stroke-width="3"/>
<path d="M168.746 67.2467C168.746 48.5185 153.966 33.2306 135.413 32.4451V2.097C170.715 2.89402 199.08 31.7531 199.08 67.2467C199.08 102.74 170.715 131.599 135.413 132.396V102.048C153.966 101.263 168.746 85.975 168.746 67.2467Z" stroke="#22BE86" stroke-width="3"/>
</g>
<defs>
<clipPath id="clip0_2103_483">
<rect width="200" height="200" fill="white" transform="translate(0.580078 0.580078)"/>
</clipPath>
</defs>
</svg>
