<svg width="150" height="150" viewBox="0 0 150 150" fill="none" xmlns="http://www.w3.org/2000/svg">
<path d="M104.495 123.45L100.495 91.425C99.9277 86.8889 97.7232 82.7161 94.2956 79.6914C90.868 76.6666 86.4534 74.9982 81.882 75H68.107C63.5378 75.0013 59.1263 76.671 55.7013 79.6955C52.2763 82.72 50.0736 86.891 49.507 91.425L45.5008 123.45C45.2809 125.209 45.4379 126.996 45.9613 128.69C46.4846 130.384 47.3625 131.947 48.5364 133.276C49.7104 134.605 51.1536 135.669 52.7703 136.397C54.387 137.125 56.1401 137.501 57.9133 137.5H92.0883C93.8609 137.5 95.6133 137.124 97.2292 136.395C98.8452 135.666 100.288 134.602 101.461 133.274C102.634 131.945 103.511 130.382 104.034 128.688C104.558 126.994 104.714 125.209 104.495 123.45Z" stroke="#28FF7E" stroke-width="12.5" stroke-linecap="round" stroke-linejoin="round"/>
<path d="M75 12.498C70.0272 12.498 65.2581 14.4735 61.7417 17.9898C58.2254 21.5061 56.25 26.2752 56.25 31.248C56.25 36.2209 58.2254 40.99 61.7417 44.5063C65.2581 48.0226 70.0272 49.998 75 49.998C79.9728 49.998 84.7419 48.0226 88.2583 44.5063C91.7746 40.99 93.75 36.2209 93.75 31.248C93.75 26.2752 91.7746 21.5061 88.2583 17.9898C84.7419 14.4735 79.9728 12.498 75 12.498Z" stroke="#28FF7E" stroke-width="12.5" stroke-linecap="round" stroke-linejoin="round"/>
<path d="M25.001 43.752C21.6858 43.752 18.5063 45.0689 16.1621 47.4131C13.8179 49.7573 12.501 52.9367 12.501 56.252C12.501 59.5672 13.8179 62.7466 16.1621 65.0908C18.5063 67.435 21.6858 68.752 25.001 68.752C28.3162 68.752 31.4956 67.435 33.8398 65.0908C36.184 62.7466 37.501 59.5672 37.501 56.252C37.501 52.9367 36.184 49.7573 33.8398 47.4131C31.4956 45.0689 28.3162 43.752 25.001 43.752Z" stroke="#28FF7E" stroke-width="12.5" stroke-linecap="round" stroke-linejoin="round"/>
<path d="M125 43.752C121.685 43.752 118.505 45.0689 116.161 47.4131C113.817 49.7573 112.5 52.9367 112.5 56.252C112.5 59.5672 113.817 62.7466 116.161 65.0908C118.505 67.435 121.685 68.752 125 68.752C128.315 68.752 131.495 67.435 133.839 65.0908C136.183 62.7466 137.5 59.5672 137.5 56.252C137.5 52.9367 136.183 49.7573 133.839 47.4131C131.495 45.0689 128.315 43.752 125 43.752Z" stroke="#28FF7E" stroke-width="12.5" stroke-linecap="round" stroke-linejoin="round"/>
<path d="M24.9992 87.498H23.0867C20.1277 87.4977 17.2645 88.547 15.0065 90.4594C12.7486 92.3717 11.2422 95.0231 10.7554 97.9418L8.67419 110.442C8.37552 112.233 8.47058 114.067 8.95275 115.818C9.43492 117.568 10.2926 119.192 11.4662 120.578C12.6398 121.963 14.1012 123.076 15.7485 123.84C17.3959 124.603 19.1898 124.998 21.0054 124.998H43.7492" stroke="#28FF7E" stroke-width="12.5" stroke-linecap="round" stroke-linejoin="round"/>
<path d="M125.001 87.498H126.913C129.872 87.4977 132.736 88.547 134.994 90.4594C137.252 92.3717 138.758 95.0231 139.245 97.9418L141.326 110.442C141.625 112.233 141.53 114.067 141.047 115.818C140.565 117.568 139.708 119.192 138.534 120.578C137.36 121.963 135.899 123.076 134.252 123.84C132.604 124.603 130.81 124.998 128.995 124.998H106.251" stroke="#28FF7E" stroke-width="12.5" stroke-linecap="round" stroke-linejoin="round"/>
</svg>
