<svg width="36" height="36" viewBox="0 0 36 36" fill="none" xmlns="http://www.w3.org/2000/svg">
<path fill-rule="evenodd" clip-rule="evenodd" d="M14.3535 14.3543C14.3535 12.34 15.9851 10.7085 17.9993 10.7085C20.0137 10.7085 21.6452 12.34 21.6452 14.3543C21.6452 16.3687 20.0137 18.0002 17.9993 18.0002C15.9851 18.0002 14.3535 16.3687 14.3535 14.3543ZM17.9993 12.5314C19.002 12.5314 19.8223 13.3517 19.8223 14.3543C19.8223 15.3569 19.002 16.1772 17.9993 16.1772C16.9967 16.1772 16.1764 15.3569 16.1764 14.3543C16.1764 13.3517 16.9967 12.5314 17.9993 12.5314Z" fill="white"/>
<path fill-rule="evenodd" clip-rule="evenodd" d="M18.0007 19.8228C15.5671 19.8228 10.709 21.0441 10.709 23.4686V25.2915H25.2923V23.4686C25.2923 21.0441 20.4343 19.8228 18.0007 19.8228ZM18.0007 21.6457C20.4616 21.6457 23.2871 22.8215 23.4694 23.4686H12.5319C12.7415 22.8123 15.5489 21.6457 18.0007 21.6457Z" fill="white"/>
<path fill-rule="evenodd" clip-rule="evenodd" d="M32.5827 17.9998C32.5827 26.0539 26.0534 32.5832 17.9993 32.5832C9.94519 32.5832 3.41602 26.0539 3.41602 17.9998C3.41602 9.94568 9.94519 3.4165 17.9993 3.4165C26.0534 3.4165 32.5827 9.94568 32.5827 17.9998ZM29.666 17.9998C29.666 24.4432 24.4427 29.6665 17.9993 29.6665C11.556 29.6665 6.33268 24.4432 6.33268 17.9998C6.33268 11.5565 11.556 6.33317 17.9993 6.33317C24.4427 6.33317 29.666 11.5565 29.666 17.9998Z" fill="white"/>
</svg>
