<svg width="48" height="49" viewBox="0 0 48 49" fill="none" xmlns="http://www.w3.org/2000/svg">
<path d="M34 8.25964C33.4696 8.25964 32.9609 8.04893 32.5858 7.67386C32.2107 7.29878 32 6.79008 32 6.25964C32 5.72921 32.2107 5.2205 32.5858 4.84543C32.9609 4.47036 33.4696 4.25964 34 4.25964H42C42.5304 4.25964 43.0391 4.47036 43.4142 4.84543C43.7893 5.2205 44 5.72921 44 6.25964V14.2596C44 14.7901 43.7893 15.2988 43.4142 15.6739C43.0391 16.0489 42.5304 16.2596 42 16.2596C41.4696 16.2596 40.9609 16.0489 40.5858 15.6739C40.2107 15.2988 40 14.7901 40 14.2596V11.0876L28.414 22.6736C28.0389 23.0486 27.5303 23.2592 27 23.2592C26.4697 23.2592 25.9611 23.0486 25.586 22.6736L20 17.0876L9.414 27.6736C9.0368 28.038 8.53159 28.2395 8.0072 28.235C7.4828 28.2304 6.98118 28.0201 6.61036 27.6493C6.23955 27.2785 6.02921 26.7768 6.02465 26.2524C6.0201 25.7281 6.22168 25.2228 6.586 24.8456L18.586 12.8456C18.9611 12.4707 19.4697 12.2601 20 12.2601C20.5303 12.2601 21.0389 12.4707 21.414 12.8456L27 18.4316L37.172 8.25964H34ZM10 36.2596V42.2596C10 42.7901 9.78929 43.2988 9.41421 43.6739C9.03914 44.0489 8.53043 44.2596 8 44.2596C7.46957 44.2596 6.96086 44.0489 6.58579 43.6739C6.21071 43.2988 6 42.7901 6 42.2596V36.2596C6 35.7292 6.21071 35.2205 6.58579 34.8454C6.96086 34.4704 7.46957 34.2596 8 34.2596C8.53043 34.2596 9.03914 34.4704 9.41421 34.8454C9.78929 35.2205 10 35.7292 10 36.2596ZM20 28.2596C20 27.7292 19.7893 27.2205 19.4142 26.8454C19.0391 26.4704 18.5304 26.2596 18 26.2596C17.4696 26.2596 16.9609 26.4704 16.5858 26.8454C16.2107 27.2205 16 27.7292 16 28.2596V42.2596C16 42.7901 16.2107 43.2988 16.5858 43.6739C16.9609 44.0489 17.4696 44.2596 18 44.2596C18.5304 44.2596 19.0391 44.0489 19.4142 43.6739C19.7893 43.2988 20 42.7901 20 42.2596V28.2596ZM28 30.2596C28.5304 30.2596 29.0391 30.4704 29.4142 30.8454C29.7893 31.2205 30 31.7292 30 32.2596V42.2596C30 42.7901 29.7893 43.2988 29.4142 43.6739C29.0391 44.0489 28.5304 44.2596 28 44.2596C27.4696 44.2596 26.9609 44.0489 26.5858 43.6739C26.2107 43.2988 26 42.7901 26 42.2596V32.2596C26 31.7292 26.2107 31.2205 26.5858 30.8454C26.9609 30.4704 27.4696 30.2596 28 30.2596ZM40 22.2596C40 21.7292 39.7893 21.2205 39.4142 20.8454C39.0391 20.4704 38.5304 20.2596 38 20.2596C37.4696 20.2596 36.9609 20.4704 36.5858 20.8454C36.2107 21.2205 36 21.7292 36 22.2596V42.2596C36 42.7901 36.2107 43.2988 36.5858 43.6739C36.9609 44.0489 37.4696 44.2596 38 44.2596C38.5304 44.2596 39.0391 44.0489 39.4142 43.6739C39.7893 43.2988 40 42.7901 40 42.2596V22.2596Z" fill="#38EF7D"/>
</svg>
