<svg width="48" height="48" viewBox="0 0 48 48" fill="none" xmlns="http://www.w3.org/2000/svg">
<path d="M34 8C33.4696 8 32.9609 7.78929 32.5858 7.41421C32.2107 7.03914 32 6.53043 32 6C32 5.46957 32.2107 4.96086 32.5858 4.58579C32.9609 4.21071 33.4696 4 34 4H42C42.5304 4 43.0391 4.21071 43.4142 4.58579C43.7893 4.96086 44 5.46957 44 6V14C44 14.5304 43.7893 15.0391 43.4142 15.4142C43.0391 15.7893 42.5304 16 42 16C41.4696 16 40.9609 15.7893 40.5858 15.4142C40.2107 15.0391 40 14.5304 40 14V10.828L28.414 22.414C28.0389 22.7889 27.5303 22.9996 27 22.9996C26.4697 22.9996 25.9611 22.7889 25.586 22.414L20 16.828L9.414 27.414C9.0368 27.7783 8.53159 27.9799 8.0072 27.9753C7.4828 27.9708 6.98118 27.7605 6.61036 27.3896C6.23955 27.0188 6.02921 26.5172 6.02465 25.9928C6.0201 25.4684 6.22168 24.9632 6.586 24.586L18.586 12.586C18.9611 12.2111 19.4697 12.0004 20 12.0004C20.5303 12.0004 21.0389 12.2111 21.414 12.586L27 18.172L37.172 8H34ZM10 36V42C10 42.5304 9.78929 43.0391 9.41421 43.4142C9.03914 43.7893 8.53043 44 8 44C7.46957 44 6.96086 43.7893 6.58579 43.4142C6.21071 43.0391 6 42.5304 6 42V36C6 35.4696 6.21071 34.9609 6.58579 34.5858C6.96086 34.2107 7.46957 34 8 34C8.53043 34 9.03914 34.2107 9.41421 34.5858C9.78929 34.9609 10 35.4696 10 36ZM20 28C20 27.4696 19.7893 26.9609 19.4142 26.5858C19.0391 26.2107 18.5304 26 18 26C17.4696 26 16.9609 26.2107 16.5858 26.5858C16.2107 26.9609 16 27.4696 16 28V42C16 42.5304 16.2107 43.0391 16.5858 43.4142C16.9609 43.7893 17.4696 44 18 44C18.5304 44 19.0391 43.7893 19.4142 43.4142C19.7893 43.0391 20 42.5304 20 42V28ZM28 30C28.5304 30 29.0391 30.2107 29.4142 30.5858C29.7893 30.9609 30 31.4696 30 32V42C30 42.5304 29.7893 43.0391 29.4142 43.4142C29.0391 43.7893 28.5304 44 28 44C27.4696 44 26.9609 43.7893 26.5858 43.4142C26.2107 43.0391 26 42.5304 26 42V32C26 31.4696 26.2107 30.9609 26.5858 30.5858C26.9609 30.2107 27.4696 30 28 30ZM40 22C40 21.4696 39.7893 20.9609 39.4142 20.5858C39.0391 20.2107 38.5304 20 38 20C37.4696 20 36.9609 20.2107 36.5858 20.5858C36.2107 20.9609 36 21.4696 36 22V42C36 42.5304 36.2107 43.0391 36.5858 43.4142C36.9609 43.7893 37.4696 44 38 44C38.5304 44 39.0391 43.7893 39.4142 43.4142C39.7893 43.0391 40 42.5304 40 42V22Z" fill="url(#paint0_linear_1883_272)"/>
<defs>
<linearGradient id="paint0_linear_1883_272" x1="6" y1="24" x2="44" y2="24" gradientUnits="userSpaceOnUse">
<stop stop-color="white"/>
<stop offset="1" stop-color="#38EF7D"/>
</linearGradient>
</defs>
</svg>
