<svg width="40" height="41" viewBox="0 0 40 41" fill="none" xmlns="http://www.w3.org/2000/svg">
<path d="M25.8198 12.7598H25.8332M30.8198 12.7598H30.8332M36.6665 12.3982C36.6665 16.8015 32.9348 20.3715 28.3332 20.3715C27.7909 20.3715 27.2537 20.3215 26.7215 20.2215C26.3382 20.1498 26.1465 20.1148 26.0132 20.1348C25.8798 20.1548 25.6898 20.2548 25.3132 20.4565C24.2347 21.0313 22.9936 21.2246 21.7915 21.0048C22.251 20.4371 22.5625 19.7642 22.6982 19.0465C22.7815 18.6048 22.5748 18.1765 22.2648 17.8632C20.8185 16.4116 20.0043 14.4473 19.9998 12.3982C19.9998 7.99651 23.7315 4.42651 28.3332 4.42651C32.9348 4.42651 36.6665 7.99651 36.6665 12.3982ZM12.5032 36.0932H7.86316C7.32483 36.0932 6.78316 36.0165 6.28816 35.8048C4.67816 35.1132 3.85983 34.1982 3.47983 33.6265C3.3767 33.4682 3.32603 33.2814 3.335 33.0926C3.34397 32.9038 3.41214 32.7227 3.52983 32.5748C5.39649 30.0948 9.72983 28.5982 12.5115 28.5982C15.2915 28.5982 19.6182 30.0948 21.4848 32.5748C21.7198 32.8865 21.7515 33.3015 21.5348 33.6265C21.1532 34.1982 20.3348 35.1132 18.7248 35.8048C18.2246 36.0061 17.6889 36.1042 17.1498 36.0932H12.5032ZM17.1432 19.9082C17.1423 20.5158 17.0217 21.1172 16.7884 21.6782C16.5551 22.2392 16.2136 22.7488 15.7833 23.1778C15.3531 23.6068 14.8426 23.9468 14.2809 24.1785C13.7192 24.4103 13.1174 24.5291 12.5098 24.5282C11.2833 24.5291 10.1067 24.0429 9.23848 23.1766C8.37028 22.3103 7.88159 21.1347 7.87983 19.9082C7.88048 19.3006 8.0008 18.6991 8.23392 18.138C8.46704 17.5769 8.80839 17.0673 9.23848 16.6381C9.66857 16.2089 10.179 15.8687 10.7406 15.6368C11.3021 15.4049 11.9039 15.2859 12.5115 15.2865C13.1191 15.2859 13.7208 15.4049 14.2824 15.6368C14.844 15.8687 15.3544 16.2089 15.7845 16.6381C16.2146 17.0673 16.5559 17.5769 16.7891 18.138C17.0222 18.6991 17.1425 19.3006 17.1432 19.9082Z" stroke="#38EF7D" stroke-width="2" stroke-linecap="round" stroke-linejoin="round"/>
</svg>
