<svg width="26" height="26" viewBox="0 0 26 26" fill="none" xmlns="http://www.w3.org/2000/svg">
<path d="M16.7457 6.78516C19.6919 6.78516 21.1651 6.78516 22.0804 7.72392C22.9957 8.66268 22.9957 10.1736 22.9957 13.1954C22.9957 16.2173 22.9957 17.7281 22.0804 18.6669C21.1651 19.6056 19.6919 19.6056 16.7457 19.6056H8.41235C5.46607 19.6056 3.99294 19.6056 3.07765 18.6669C2.16235 17.7281 2.16235 16.2173 2.16235 13.1954C2.16235 10.1736 2.16235 8.66268 3.07765 7.72392C3.99294 6.78516 5.46607 6.78516 8.41235 6.78516H16.7457Z" fill="#64ECC7"/>
<path fill-rule="evenodd" clip-rule="evenodd" d="M21.1727 3.5796C21.1727 4.02214 20.8229 4.38088 20.3915 4.38088H4.76648C4.33501 4.38088 3.98523 4.02213 3.98523 3.5796C3.98523 3.13707 4.33501 2.77832 4.76648 2.77832H20.3915C20.8229 2.77832 21.1727 3.13707 21.1727 3.5796ZM21.1727 22.8104C21.1727 23.2529 20.8229 23.6117 20.3915 23.6117H4.76648C4.33501 23.6117 3.98523 23.2529 3.98523 22.8104C3.98523 22.3678 4.33501 22.009 4.76648 22.009H20.3915C20.8229 22.009 21.1727 22.3678 21.1727 22.8104Z" fill="#64ECC7"/>
</svg>
