<svg width="50" height="51" viewBox="0 0 50 51" fill="none" xmlns="http://www.w3.org/2000/svg" style="fill: black;">
<g clip-path="url(#clip0_198_1593)">
<path d="M9.9642 5.9939L10.3113 6.13624L10.0013 6.64907L10.5706 6.46383L10.6311 6.84406H10.0363L10.4731 7.25745L10.1787 7.49144L9.8706 6.97861L9.73801 7.56359L9.36752 7.41344L9.67366 6.90451L9.11208 7.09365L9.05164 6.71342L9.65611 6.70367L9.22128 6.28639L9.51962 6.05044L9.81991 6.57497L9.96225 5.9978L9.9642 5.9939Z" fill="#2D2D2D"/>
<path d="M13.6319 3.60327L13.8191 3.93476L13.1581 4.30524L14.3651 6.45406L13.9576 6.6822L12.7506 4.53338L12.0856 4.90582L11.8984 4.57433L13.63 3.60132L13.6319 3.60327Z" fill="#2D2D2D"/>
<path d="M16.3716 2.39819L17.4733 5.02279L17.0423 5.20414L16.5607 4.05563L15.3264 4.57431L15.808 5.72282L15.3771 5.90416L14.2754 3.27956L14.7063 3.09822L15.1782 4.22332L16.4125 3.70464L15.9406 2.57954L16.3716 2.39819Z" fill="#2D2D2D"/>
<path d="M17.7327 2.36119L17.9687 3.16261L18.9105 2.88572L19.0177 3.25036L18.0759 3.52725L18.3216 4.36376L19.3824 4.05178L19.4896 4.41641L17.9804 4.861L17.175 2.1272L18.6823 1.68262L18.7896 2.04725L17.7288 2.35924L17.7327 2.36119Z" fill="#2D2D2D"/>
<path d="M22.7187 2.6165C22.8415 2.73544 22.9156 2.87779 22.939 3.04548C22.9585 3.18977 22.939 3.32237 22.8805 3.44716C22.822 3.57196 22.7265 3.67725 22.5959 3.76305C22.4652 3.84885 22.3053 3.90345 22.1181 3.9288L20.9911 4.08284L20.6069 1.26325L21.6813 1.117C21.8744 1.09165 22.0421 1.1014 22.1903 1.14625C22.3385 1.1911 22.4535 1.2652 22.5393 1.36464C22.6251 1.46409 22.6758 1.58303 22.6953 1.71758C22.7168 1.87942 22.6934 2.02177 22.6212 2.14071C22.5491 2.25966 22.4438 2.35715 22.3053 2.42735C22.4613 2.4332 22.5998 2.4956 22.7226 2.61455L22.7187 2.6165ZM21.229 2.38445L21.8003 2.30646C21.9524 2.28501 22.0655 2.23431 22.1415 2.15436C22.2176 2.07442 22.2468 1.96912 22.2293 1.83847C22.2117 1.71173 22.1552 1.61813 22.0616 1.55769C21.966 1.49724 21.8432 1.47774 21.6911 1.49919L21.1198 1.57718L21.2309 2.38445H21.229ZM22.3794 3.39452C22.4574 3.30677 22.4886 3.19562 22.4691 3.05913C22.4496 2.92068 22.3872 2.81734 22.2819 2.74909C22.1766 2.68084 22.044 2.65744 21.888 2.67889L21.2797 2.76274L21.4006 3.64411L22.0265 3.55831C22.1825 3.53686 22.3014 3.48226 22.3794 3.39452Z" fill="#2D2D2D"/>
<path d="M23.8652 1.30034L23.8925 2.13491L24.8752 2.10176L24.8869 2.48199L23.9042 2.51514L23.9334 3.38676L25.039 3.34971L25.0507 3.72995L23.4791 3.78064L23.3855 0.931802L24.9571 0.881104L24.9688 1.26134L23.8632 1.29839L23.8652 1.30034Z" fill="#2D2D2D"/>
<path d="M25.9828 3.69109C25.8346 3.61504 25.7215 3.51169 25.6415 3.383C25.5616 3.2543 25.5284 3.10806 25.5401 2.94427L26.0393 2.97741C26.0413 3.10026 26.0842 3.20556 26.1641 3.2894C26.244 3.37325 26.363 3.422 26.517 3.43175C26.6769 3.44345 26.8056 3.41225 26.9012 3.3401C26.9967 3.26795 27.0474 3.17046 27.0552 3.04956C27.0611 2.95401 27.0396 2.87407 26.987 2.81167C26.9343 2.74927 26.868 2.69662 26.7881 2.65958C26.7062 2.62058 26.595 2.57768 26.4507 2.53088C26.2694 2.46848 26.1212 2.40999 26.0101 2.35149C25.897 2.29299 25.8034 2.20914 25.7293 2.09605C25.6552 1.9849 25.624 1.84061 25.6357 1.66316C25.6474 1.49937 25.6981 1.35898 25.7878 1.24198C25.8775 1.12498 25.9984 1.03919 26.1505 0.98264C26.3025 0.926092 26.4741 0.906592 26.6672 0.918292C26.9421 0.935841 27.1625 1.01969 27.3302 1.16983C27.4979 1.31998 27.5817 1.51497 27.5837 1.75481L27.0689 1.71971C27.0689 1.61637 27.024 1.52472 26.9402 1.44477C26.8563 1.36483 26.7393 1.31998 26.5911 1.31023C26.4585 1.30048 26.3474 1.32778 26.2577 1.39017C26.168 1.45257 26.1193 1.54812 26.1115 1.67486C26.1056 1.76261 26.1271 1.83476 26.1758 1.8952C26.2246 1.95565 26.2889 2.00245 26.3688 2.04145C26.4488 2.08045 26.558 2.12335 26.6964 2.17014C26.8817 2.23449 27.0299 2.29689 27.1449 2.35539C27.26 2.41584 27.3555 2.50163 27.4316 2.61473C27.5076 2.72782 27.5388 2.87407 27.5271 3.05346C27.5174 3.19776 27.4706 3.33035 27.3828 3.4532C27.297 3.57604 27.1761 3.67159 27.024 3.73983C26.87 3.80808 26.6925 3.83538 26.4917 3.82173C26.3006 3.80808 26.131 3.76518 25.9828 3.68719V3.69109Z" fill="#2D2D2D"/>
<path d="M30.2452 1.43499L30.1809 1.80938L29.434 1.68068L29.0148 4.11029L28.5546 4.03034L28.9739 1.60073L28.2231 1.47009L28.2875 1.0957L30.2452 1.43499Z" fill="#2D2D2D"/>
<path d="M31.9066 2.53478C32.1016 2.36904 32.3258 2.26569 32.5774 2.22279C32.8289 2.1799 33.0785 2.20134 33.3281 2.28909C33.6128 2.39049 33.8429 2.55038 34.0164 2.76877C34.1899 2.98716 34.2816 3.2426 34.2913 3.53704L33.7629 3.34985C33.7434 3.18411 33.6849 3.04371 33.5855 2.93062C33.486 2.81752 33.3554 2.73172 33.1935 2.67518C33.0161 2.61278 32.8445 2.59718 32.6768 2.62643C32.5091 2.65763 32.3609 2.73367 32.2303 2.85457C32.0996 2.97546 31.9982 3.13536 31.928 3.33425C31.8578 3.53314 31.8364 3.72034 31.8617 3.89778C31.8871 4.07522 31.9553 4.22927 32.0665 4.35796C32.1776 4.48666 32.32 4.58415 32.4994 4.64655C32.6612 4.7031 32.8172 4.7187 32.9654 4.69335C33.1136 4.668 33.2481 4.59585 33.3671 4.47886L33.8955 4.66605C33.7044 4.88834 33.4724 5.02874 33.2013 5.08918C32.9303 5.14963 32.6514 5.13013 32.3648 5.02874C32.1133 4.93904 31.9027 4.8006 31.735 4.6095C31.5673 4.41841 31.46 4.19807 31.4113 3.94653C31.3625 3.69499 31.384 3.4376 31.4776 3.17436C31.5712 2.91112 31.7135 2.69858 31.9105 2.53283L31.9066 2.53478Z" fill="#2D2D2D"/>
<path d="M37.3449 4.13746L36.0501 6.67237L35.6348 6.45983L36.2003 5.35032L35.0069 4.74194L34.4415 5.85145L34.0261 5.63891L35.3209 3.104L35.7362 3.31655L35.1805 4.40265L36.3738 5.01103L36.9296 3.92492L37.3449 4.13746Z" fill="#2D2D2D"/>
<path d="M37.0603 7.12671C36.9472 6.89857 36.9024 6.65483 36.9219 6.39744C36.9414 6.14004 37.0311 5.89825 37.189 5.66816C37.347 5.44002 37.5439 5.27038 37.776 5.16313C38.008 5.05589 38.2517 5.01299 38.5052 5.03834C38.7587 5.06369 38.9947 5.15143 39.2131 5.30158C39.4334 5.45367 39.5991 5.64476 39.7103 5.8729C39.8234 6.10105 39.8682 6.34284 39.8487 6.59828C39.8292 6.85372 39.7395 7.09551 39.5796 7.32365C39.4217 7.55179 39.2267 7.72143 38.9947 7.83258C38.7626 7.94178 38.5189 7.98467 38.2654 7.96128C38.0119 7.93788 37.776 7.84818 37.5556 7.69609C37.3372 7.54594 37.1734 7.35485 37.0603 7.12671ZM38.2751 7.54204C38.4448 7.55569 38.6105 7.52059 38.7704 7.43675C38.9303 7.3529 39.0688 7.2242 39.1897 7.05261C39.3086 6.87907 39.3808 6.70357 39.4022 6.52613C39.4237 6.34869 39.3983 6.18294 39.3262 6.0289C39.254 5.87485 39.139 5.74421 38.9849 5.63696C38.8309 5.52972 38.669 5.46927 38.4994 5.45367C38.3297 5.44002 38.1659 5.47317 38.008 5.55702C37.8501 5.63891 37.7097 5.76761 37.5907 5.94115C37.4718 6.1147 37.3996 6.29019 37.3782 6.46763C37.3548 6.64703 37.3801 6.81277 37.4523 6.96681C37.5244 7.12086 37.6375 7.2515 37.7935 7.35875C37.9476 7.46599 38.1114 7.52644 38.281 7.54009L38.2751 7.54204Z" fill="#2D2D2D"/>
<path d="M41.2332 6.90454L39.4022 9.0826L39.0454 8.78231L40.8764 6.60425L41.2332 6.90454Z" fill="#2D2D2D"/>
<path d="M41.4144 7.91831C41.6621 7.85592 41.9097 7.85981 42.1534 7.93001C42.3972 8.00021 42.6136 8.13085 42.7989 8.32C43.0114 8.53644 43.1479 8.78018 43.2084 9.05122C43.2688 9.32226 43.2396 9.5933 43.1187 9.86239L42.7248 9.46265C42.7794 9.30471 42.7872 9.15262 42.7482 9.00832C42.7092 8.86403 42.6273 8.72948 42.5083 8.60664C42.3757 8.47209 42.2275 8.3824 42.0638 8.33755C41.9 8.2927 41.7323 8.29465 41.5607 8.3473C41.3891 8.39994 41.2292 8.49939 41.079 8.64759C40.9289 8.79578 40.8275 8.95372 40.7729 9.12532C40.7183 9.29496 40.7125 9.4646 40.7553 9.6284C40.7982 9.79414 40.886 9.94429 41.0166 10.0769C41.1375 10.1997 41.2701 10.2816 41.4144 10.3226C41.5587 10.3635 41.7108 10.3577 41.8688 10.305L42.2626 10.7048C41.9936 10.8198 41.7245 10.8471 41.4534 10.7828C41.1824 10.7184 40.9406 10.578 40.7281 10.3635C40.5409 10.1724 40.4122 9.95599 40.3459 9.71029C40.2796 9.46655 40.2776 9.21891 40.3459 8.97127C40.4122 8.72363 40.5448 8.50134 40.7417 8.30635C40.9406 8.11136 41.1629 7.98071 41.4125 7.91831H41.4144Z" fill="#2D2D2D"/>
<path d="M44.1931 10.5041L43.534 11.0189L44.1385 11.793L43.8382 12.027L43.2337 11.2529L42.5474 11.7891L43.2279 12.6608L42.9276 12.8947L41.9585 11.6565L44.2048 9.90161L45.1739 11.1398L44.8736 11.3738L44.1931 10.5022V10.5041Z" fill="#2D2D2D"/>
<path d="M47.0927 14.2049L46.7632 14.396L46.1587 13.3489L45.4314 13.7681L45.9033 14.5832L45.5737 14.7743L45.1018 13.9592L44.0235 14.5812L43.7896 14.1776L46.2543 12.7542L47.0908 14.2049H47.0927Z" fill="#2D2D2D"/>
<path d="M45.174 16.3908C45.1993 16.1373 45.289 15.9073 45.4431 15.7006C45.5952 15.4939 45.7999 15.334 46.0553 15.2248C46.3108 15.1136 46.5662 15.0746 46.8197 15.1058C47.0732 15.137 47.3013 15.2306 47.5041 15.3866C47.7069 15.5426 47.859 15.7415 47.9643 15.9833C48.0696 16.229 48.1106 16.4786 48.0852 16.7321C48.0599 16.9856 47.9702 17.2157 47.8181 17.4204C47.666 17.6251 47.4612 17.7831 47.2058 17.8942C46.9504 18.0054 46.6949 18.0444 46.4395 18.0151C46.184 17.9859 45.9559 17.8923 45.7531 17.7382C45.5503 17.5822 45.3963 17.3834 45.291 17.1377C45.1857 16.8939 45.1467 16.6463 45.172 16.3928L45.174 16.3908ZM45.9812 17.3853C46.1177 17.4867 46.2776 17.5432 46.457 17.5569C46.6364 17.5705 46.8236 17.5354 47.0167 17.4516C47.2097 17.3678 47.3618 17.2566 47.4749 17.1182C47.588 16.9797 47.6543 16.8257 47.6718 16.656C47.6913 16.4864 47.664 16.3167 47.5899 16.1432C47.5158 15.9697 47.4105 15.8332 47.274 15.7318C47.1376 15.6304 46.9816 15.5719 46.8022 15.5582C46.6228 15.5446 46.4375 15.5797 46.2445 15.6616C46.0514 15.7454 45.8974 15.8566 45.7843 15.995C45.6712 16.1354 45.603 16.2894 45.5835 16.4591C45.562 16.6287 45.5893 16.8003 45.6654 16.9719C45.7395 17.1455 45.8467 17.282 45.9832 17.3834L45.9812 17.3853Z" fill="#2D2D2D"/>
<path d="M46.3985 20.242L47.313 19.2982L47.2155 18.955L46.1216 19.269L45.9929 18.8205L48.7287 18.0366L48.9997 18.9804C49.0602 19.191 49.0738 19.3782 49.0426 19.5459C49.0114 19.7136 48.9432 19.8501 48.8418 19.9573C48.7404 20.0645 48.6117 20.1406 48.4596 20.1835C48.2802 20.2342 48.1047 20.2283 47.9292 20.1679C47.7537 20.1055 47.6094 19.9748 47.4944 19.774L46.5545 20.7763L46.4005 20.24L46.3985 20.242ZM47.5724 18.8536L47.7147 19.3489C47.7635 19.5166 47.8414 19.6317 47.9487 19.6921C48.0579 19.7526 48.1827 19.7643 48.3231 19.7233C48.4635 19.6824 48.5629 19.6083 48.6195 19.503C48.676 19.3957 48.6799 19.2573 48.6292 19.0876L48.4869 18.5923L47.5704 18.8556L47.5724 18.8536Z" fill="#2D2D2D"/>
<path d="M49.9221 24.0111L48.0073 23.2954L46.9835 23.4202L46.927 22.9561L47.9507 22.8314L49.6374 21.6731L49.6998 22.1898L48.3933 23.0127L49.8597 23.4982L49.9221 24.0111Z" fill="#2D2D2D"/>
<path d="M47.2857 25.1948C47.4144 24.9745 47.5899 24.8009 47.8141 24.6742C48.0384 24.5474 48.2899 24.487 48.5688 24.4909C48.8476 24.4948 49.0952 24.565 49.3156 24.6976C49.534 24.8302 49.7036 25.0096 49.8245 25.2338C49.9454 25.4581 50.0039 25.7038 49.9981 25.967C49.9942 26.2341 49.9279 26.4779 49.7992 26.6982C49.6705 26.9186 49.4969 27.0901 49.2727 27.2149C49.0485 27.3397 48.7989 27.4002 48.52 27.3943C48.2412 27.3904 47.9916 27.3222 47.7713 27.1896C47.5509 27.057 47.3813 26.8796 47.2604 26.6553C47.1395 26.4311 47.081 26.1854 47.0868 25.9182C47.0907 25.6531 47.157 25.4113 47.2857 25.1909V25.1948ZM47.6133 26.435C47.6972 26.5832 47.818 26.7002 47.976 26.786C48.1339 26.8718 48.3192 26.9166 48.5278 26.9205C48.7384 26.9244 48.9237 26.8854 49.0835 26.8055C49.2434 26.7255 49.3663 26.6105 49.454 26.4662C49.5418 26.3199 49.5866 26.1522 49.5886 25.965C49.5905 25.7779 49.5515 25.6082 49.4696 25.46C49.3877 25.3118 49.2668 25.1929 49.1108 25.109C48.9549 25.0232 48.7696 24.9784 48.561 24.9745C48.3523 24.9706 48.1651 25.0096 48.0033 25.0895C47.8414 25.1695 47.7186 25.2845 47.6289 25.4288C47.5392 25.5731 47.4944 25.7428 47.4924 25.9299C47.4885 26.1191 47.5295 26.2868 47.6133 26.435Z" fill="#2D2D2D"/>
<path d="M49.8244 28.5934L48.0266 28.3517C47.8121 28.3224 47.6444 28.3575 47.5216 28.455C47.3987 28.5525 47.3227 28.7007 47.2954 28.9015C47.2681 29.1043 47.3012 29.2701 47.3948 29.3968C47.4884 29.5236 47.6405 29.6016 47.855 29.6308L49.6528 29.8726L49.5905 30.3347L47.8004 30.0949C47.5703 30.0637 47.3831 29.9876 47.2369 29.8667C47.0906 29.7458 46.9892 29.5957 46.9347 29.4163C46.8781 29.2389 46.8645 29.0478 46.8918 28.845C46.9191 28.6422 46.9834 28.4628 47.0848 28.3068C47.1862 28.1508 47.3227 28.0358 47.4943 27.9597C47.6659 27.8837 47.8687 27.8622 48.0988 27.8915L49.8888 28.1313L49.8264 28.5934H49.8244Z" fill="#2D2D2D"/>
<path d="M46.2932 31.9005L47.5587 31.5514L47.6484 31.2063L46.5467 30.9216L46.6637 30.4692L49.419 31.181L49.1733 32.1325C49.1187 32.3431 49.0348 32.5128 48.9237 32.6415C48.8125 32.7682 48.6838 32.852 48.5415 32.893C48.3992 32.9339 48.251 32.9339 48.0969 32.893C47.9175 32.8462 47.7674 32.7526 47.6484 32.6103C47.5295 32.4679 47.471 32.2807 47.4729 32.0506L46.1548 32.4387L46.2932 31.8985V31.9005ZM48.0092 31.2999L47.8805 31.7991C47.8376 31.9687 47.8454 32.1072 47.9078 32.2144C47.9702 32.3217 48.0735 32.3938 48.2159 32.4309C48.3582 32.4679 48.481 32.4543 48.5844 32.3899C48.6877 32.3256 48.7599 32.2086 48.8047 32.037L48.9334 31.5378L48.0092 31.2999Z" fill="#2D2D2D"/>
<path d="M46.0047 36.1047C45.8389 36.1476 45.679 36.1359 45.525 36.0677C45.3924 36.0092 45.289 35.9234 45.213 35.8083C45.1369 35.6933 45.096 35.5568 45.0921 35.4008C45.0882 35.2448 45.1233 35.0791 45.1993 34.9075L45.6576 33.8643L48.2627 35.0089L47.8259 36.0033C47.7479 36.1808 47.6504 36.3192 47.5353 36.4206C47.4203 36.522 47.2975 36.5825 47.1668 36.6039C47.0362 36.6254 46.9094 36.6078 46.7846 36.5532C46.6345 36.4869 46.5272 36.3933 46.4629 36.2685C46.3985 36.1457 46.3712 36.0053 46.3829 35.8493C46.2971 35.978 46.1704 36.0638 46.0047 36.1086V36.1047ZM45.5191 35.4086C45.5523 35.5217 45.6322 35.6055 45.757 35.6601C45.8838 35.7167 46.0047 35.7167 46.1177 35.6621C46.2308 35.6075 46.3205 35.508 46.3829 35.3618L46.6306 34.8002L45.8175 34.4434L45.564 35.0206C45.4996 35.1649 45.486 35.2955 45.5191 35.4086ZM46.9796 34.9543L46.7476 35.4827C46.6852 35.6231 46.6696 35.7459 46.6988 35.8532C46.7281 35.9604 46.8022 36.0404 46.9231 36.093C47.0401 36.1437 47.1493 36.1457 47.2507 36.095C47.3521 36.0462 47.432 35.9507 47.4944 35.8103L47.7264 35.2819L46.9796 34.9543Z" fill="#2D2D2D"/>
<path d="M46.8469 37.9823L45.2831 37.062C45.0978 36.9528 44.9282 36.9196 44.7761 36.9606C44.624 37.0035 44.4972 37.1107 44.3958 37.2843C44.2925 37.4598 44.2574 37.6255 44.2945 37.7776C44.3315 37.9297 44.4426 38.0623 44.6279 38.1715L46.1917 39.0919L45.9558 39.4935L44.3997 38.5771C44.1989 38.4601 44.0566 38.3158 43.9688 38.1481C43.8811 37.9785 43.846 37.801 43.8635 37.6158C43.8811 37.4305 43.9415 37.2492 44.0449 37.0717C44.1482 36.8943 44.2769 36.7558 44.4309 36.6505C44.585 36.5453 44.7546 36.4926 44.9438 36.4887C45.1329 36.4848 45.326 36.5433 45.5268 36.6603L47.0828 37.5768L46.8469 37.9785V37.9823Z" fill="#2D2D2D"/>
<path d="M43.0036 38.8637C43.1498 38.7818 43.298 38.7428 43.4482 38.7486C43.5983 38.7525 43.7387 38.8052 43.8694 38.9046L43.5671 39.3024C43.4618 39.2361 43.3526 39.2147 43.2376 39.2361C43.1226 39.2576 43.0192 39.3297 42.9237 39.4525C42.8262 39.5812 42.7813 39.7041 42.7891 39.823C42.7969 39.942 42.8496 40.0375 42.9471 40.1116C43.0231 40.1701 43.1031 40.1935 43.183 40.1857C43.2649 40.1779 43.3429 40.1506 43.4209 40.1038C43.4969 40.057 43.5944 39.9868 43.7153 39.8932C43.8674 39.7743 43.9981 39.6846 44.1073 39.6222C44.2184 39.5598 44.3393 39.5286 44.4738 39.5286C44.6084 39.5286 44.7468 39.5812 44.8872 39.6885C45.0179 39.7879 45.1076 39.9069 45.1563 40.0453C45.2051 40.1838 45.2109 40.3339 45.1739 40.4899C45.1368 40.6478 45.0608 40.8019 44.9438 40.9579C44.778 41.1782 44.5869 41.3167 44.3705 41.3732C44.1541 41.4298 43.9454 41.3947 43.7426 41.264L44.0546 40.8526C44.1424 40.9091 44.2418 40.9228 44.3549 40.8955C44.468 40.8682 44.5694 40.796 44.6571 40.679C44.739 40.5718 44.7761 40.4646 44.7741 40.3554C44.7702 40.2462 44.7176 40.1545 44.6162 40.0765C44.546 40.0239 44.4738 40.0024 44.3959 40.0102C44.3198 40.018 44.2438 40.0453 44.1677 40.0921C44.0917 40.137 43.9961 40.2052 43.8791 40.2949C43.7251 40.4139 43.5905 40.5055 43.4774 40.5679C43.3643 40.6322 43.2395 40.6634 43.1031 40.6654C42.9666 40.6654 42.8262 40.6127 42.6838 40.5036C42.5688 40.4158 42.483 40.3027 42.4284 40.1643C42.3738 40.0239 42.3601 39.8718 42.3874 39.706C42.4147 39.5403 42.4908 39.3765 42.6117 39.2166C42.7267 39.0645 42.8574 38.9475 43.0036 38.8656V38.8637Z" fill="#2D2D2D"/>
<path d="M43.5243 42.6174L41.395 40.7299L41.7051 40.3809L43.8344 42.2684L43.5243 42.6174Z" fill="#2D2D2D"/>
<path d="M39.3398 42.7637L39.6791 42.442L42.1594 43.0211L40.6989 41.4768L41.0382 41.157L42.996 43.2278L42.6567 43.5476L40.1783 42.9704L41.6349 44.5109L41.2956 44.8306L39.3379 42.7598L39.3398 42.7637Z" fill="#2D2D2D"/>
<path d="M40.0281 45.3452L39.525 44.6783L38.7411 45.2711L38.5111 44.9669L39.2949 44.3741L38.7704 43.678L37.8871 44.3449L37.657 44.0407L38.9127 43.093L40.6287 45.3686L39.3729 46.3162L39.1428 46.0121L40.0261 45.3452H40.0281Z" fill="#2D2D2D"/>
<path d="M36.9258 44.6081C37.0916 44.5867 37.2437 44.6042 37.3821 44.6647C37.5206 44.7251 37.6317 44.8246 37.7175 44.965L37.2905 45.2243C37.2164 45.1249 37.1228 45.0644 37.0097 45.041C36.8946 45.0176 36.7718 45.0469 36.6392 45.1268C36.5008 45.2107 36.415 45.3082 36.3779 45.4213C36.3409 45.5343 36.3545 45.6435 36.4189 45.7488C36.4676 45.8307 36.532 45.8834 36.6119 45.9048C36.6918 45.9263 36.7737 45.9302 36.8634 45.9146C36.9512 45.899 37.0682 45.8697 37.2144 45.8268C37.3977 45.7722 37.5537 45.7371 37.6785 45.7196C37.8033 45.702 37.93 45.7196 38.0548 45.7664C38.1796 45.8151 38.2888 45.9146 38.3805 46.0667C38.4663 46.2071 38.5053 46.3514 38.4994 46.4976C38.4936 46.6458 38.4448 46.7843 38.3512 46.9168C38.2596 47.0494 38.1309 47.1664 37.9651 47.2659C37.7292 47.4082 37.5011 47.4667 37.2788 47.4414C37.0565 47.416 36.8751 47.3029 36.7347 47.1079L37.1754 46.8408C37.2359 46.9246 37.3236 46.9753 37.4387 46.9909C37.5537 47.0065 37.6746 46.9773 37.8014 46.9012C37.9164 46.831 37.9905 46.7452 38.0275 46.6439C38.0646 46.5425 38.049 46.4352 37.9827 46.326C37.9378 46.2519 37.8774 46.2032 37.8033 46.1837C37.7292 46.1642 37.6473 46.1603 37.5615 46.1759C37.4757 46.1915 37.3607 46.2188 37.2203 46.2597C37.0331 46.3124 36.8732 46.3494 36.7464 46.365C36.6177 46.3826 36.491 46.365 36.3623 46.3182C36.2356 46.2695 36.1244 46.1681 36.0308 46.014C35.9548 45.8912 35.9177 45.7527 35.9177 45.6026C35.9177 45.4524 35.9606 45.3062 36.0484 45.1619C36.1361 45.0176 36.2648 44.8928 36.4384 44.7895C36.6021 44.69 36.7659 44.6296 36.9317 44.6081H36.9258Z" fill="#2D2D2D"/>
<path d="M34.8276 45.7917C34.9953 45.7878 35.1435 45.8229 35.2741 45.897C35.4047 45.9711 35.5061 46.0823 35.5744 46.2305L35.122 46.4411C35.0596 46.3338 34.9738 46.2636 34.8627 46.2285C34.7515 46.1934 34.6248 46.209 34.4844 46.2734C34.3381 46.3416 34.2406 46.4294 34.1919 46.5386C34.1431 46.6478 34.1451 46.7569 34.1977 46.8681C34.2387 46.9539 34.2972 47.0124 34.3732 47.0436C34.4493 47.0748 34.5312 47.0865 34.6209 47.0806C34.7106 47.0748 34.8295 47.0592 34.9797 47.0299C35.1688 46.9968 35.3268 46.9773 35.4535 46.9734C35.5802 46.9695 35.7031 46.9987 35.822 47.0611C35.941 47.1235 36.0385 47.2347 36.1126 47.3946C36.1828 47.5428 36.2062 47.691 36.1828 47.8353C36.1613 47.9815 36.097 48.1141 35.9897 48.2369C35.8844 48.3578 35.744 48.4612 35.5666 48.5431C35.317 48.6601 35.083 48.6932 34.8646 48.6425C34.6462 48.5918 34.4785 48.4612 34.3596 48.2525L34.8276 48.0341C34.8783 48.1238 34.9602 48.1843 35.0733 48.2135C35.1864 48.2428 35.3092 48.2252 35.4437 48.1628C35.5646 48.1063 35.6504 48.0283 35.6972 47.9308C35.744 47.8333 35.7421 47.7261 35.6875 47.6091C35.6504 47.5291 35.5958 47.4765 35.5237 47.4472C35.4515 47.418 35.3716 47.4082 35.2839 47.4121C35.1961 47.418 35.0791 47.4316 34.9348 47.457C34.7418 47.4901 34.5819 47.5077 34.4512 47.5116C34.3206 47.5155 34.1958 47.4862 34.0749 47.4219C33.954 47.3595 33.8546 47.2464 33.7785 47.0826C33.7181 46.9519 33.6947 46.8115 33.7103 46.6614C33.7259 46.5113 33.7863 46.3709 33.8877 46.2383C33.9891 46.1057 34.1314 45.9945 34.3147 45.9107C34.4883 45.8307 34.6579 45.7878 34.8256 45.7839L34.8276 45.7917Z" fill="#2D2D2D"/>
<path d="M30.3956 49.4967L30.2025 49.2901L30.575 49.0366L30.1284 48.9859L30.2045 48.707L30.612 48.8923L30.4424 48.475L30.7173 48.4067L30.768 48.8533L31.041 48.4945L31.2477 48.7129L30.8791 48.9664L31.3218 49.0132L31.2457 49.292L30.8304 49.1087L30.9981 49.5299L30.7192 49.5981L30.6763 49.1458L30.3995 49.4967H30.3956Z" fill="#2D2D2D"/>
<path d="M25.3276 50.8734L25.3081 50.4932L26.0647 50.4542L25.934 47.9934L26.4001 47.968L26.5307 50.4288L27.2912 50.3879L27.3107 50.7681L25.3276 50.8734Z" fill="#2D2D2D"/>
<path d="M22.3481 50.7427L22.5178 47.9016L22.9838 47.9289L22.9097 49.171L24.2454 49.251L24.3195 48.0089L24.7855 48.0362L24.6159 50.8772L24.1499 50.8499L24.222 49.6312L22.8844 49.5512L22.8122 50.77L22.3462 50.7427H22.3481Z" fill="#2D2D2D"/>
<path d="M21.108 50.1773L21.2484 49.3545L20.2793 49.1887L20.3436 48.8143L21.3127 48.9801L21.459 48.1202L20.3689 47.933L20.4333 47.5586L21.9835 47.8238L21.5038 50.6336L19.9536 50.3684L20.018 49.9921L21.108 50.1793V50.1773Z" fill="#2D2D2D"/>
<path d="M16.7401 47.7535C16.6816 47.5936 16.6777 47.4317 16.7323 47.2719C16.7772 47.1354 16.8552 47.0223 16.9624 46.9365C17.0697 46.8507 17.2023 46.798 17.3583 46.7785C17.5143 46.759 17.6819 46.7785 17.8594 46.839L18.9396 47.1978L18.0427 49.8984L17.0131 49.5572C16.8298 49.4967 16.6816 49.4129 16.5705 49.3056C16.4593 49.2003 16.3872 49.0833 16.354 48.9566C16.3209 48.8298 16.3267 48.7011 16.3696 48.5705C16.4203 48.4145 16.5061 48.2995 16.6231 48.2234C16.7401 48.1474 16.8766 48.1084 17.0326 48.1045C16.8961 48.0304 16.7986 47.9134 16.7401 47.7535ZM17.9764 48.6154L17.4285 48.434C17.2842 48.3853 17.1594 48.3814 17.056 48.4204C16.9527 48.4594 16.8805 48.5413 16.8396 48.6661C16.7986 48.7869 16.8084 48.8961 16.8669 48.9917C16.9254 49.0872 17.0287 49.1594 17.173 49.2081L17.7209 49.3895L17.9783 48.6154H17.9764ZM17.3895 47.2036C17.2803 47.2485 17.2042 47.3343 17.1613 47.4649C17.1165 47.5975 17.1282 47.7164 17.1925 47.8256C17.2569 47.9329 17.3641 48.0128 17.5162 48.0616L18.0992 48.2546L18.38 47.4122L17.7814 47.2134C17.6312 47.1627 17.5006 47.1607 17.3914 47.2056L17.3895 47.2036Z" fill="#2D2D2D"/>
<path d="M15.1314 48.4282L15.4746 47.6677L14.5796 47.2621L14.7355 46.915L15.6306 47.3206L15.9894 46.5251L14.9812 46.0688L15.1372 45.7217L16.5704 46.3691L15.3966 48.9664L13.9634 48.319L14.1194 47.9719L15.1275 48.4282H15.1314Z" fill="#2D2D2D"/>
<path d="M14.2931 45.3473C14.3925 45.4818 14.4471 45.6242 14.4627 45.7743C14.4764 45.9244 14.4432 46.0707 14.3594 46.2111L13.9285 45.9595C13.9811 45.8484 13.9889 45.7353 13.9538 45.6242C13.9187 45.513 13.8349 45.4175 13.7003 45.3395C13.5619 45.2576 13.4332 45.2283 13.3162 45.2517C13.1992 45.2732 13.1095 45.3375 13.049 45.4448C13.0003 45.5267 12.9866 45.6086 13.0042 45.6885C13.0217 45.7685 13.0588 45.8425 13.1153 45.9147C13.1719 45.9849 13.2538 46.0726 13.361 46.1799C13.4975 46.3164 13.6028 46.4353 13.6769 46.5367C13.751 46.6381 13.7978 46.7571 13.8154 46.8897C13.8329 47.0223 13.7978 47.1665 13.7081 47.3206C13.6262 47.4629 13.519 47.5663 13.3864 47.6306C13.2538 47.695 13.1075 47.7203 12.9477 47.7028C12.7878 47.6852 12.624 47.6287 12.4563 47.5312C12.2184 47.3927 12.0565 47.2192 11.9746 47.0125C11.8927 46.8058 11.9025 46.5933 12.0058 46.3749L12.4524 46.6342C12.4075 46.7278 12.4056 46.8292 12.4465 46.9384C12.4875 47.0476 12.5713 47.1393 12.6981 47.2133C12.8131 47.2796 12.9262 47.305 13.0334 47.2894C13.1407 47.2738 13.2265 47.2094 13.2908 47.0983C13.3337 47.0223 13.3474 46.9482 13.3298 46.8721C13.3123 46.798 13.2752 46.7239 13.2206 46.6557C13.166 46.5855 13.088 46.4997 12.9847 46.3944C12.8482 46.254 12.741 46.1331 12.6649 46.0278C12.5889 45.9225 12.5401 45.8035 12.5226 45.669C12.505 45.5345 12.5401 45.3882 12.6318 45.2322C12.7039 45.1074 12.8073 45.008 12.9379 44.9358C13.0685 44.8637 13.2187 44.8325 13.3864 44.8383C13.5541 44.8442 13.7257 44.9007 13.8992 45.0021C14.065 45.0977 14.1956 45.2127 14.295 45.3473H14.2931Z" fill="#2D2D2D"/>
<path d="M9.46887 45.4779L9.69311 45.1698L10.3054 45.6164L11.76 43.6255L12.1364 43.9004L10.6817 45.8913L11.2979 46.3398L11.0737 46.6479L9.46887 45.476V45.4779Z" fill="#2D2D2D"/>
<path d="M8.4705 43.76C8.22091 43.8224 7.97522 43.8165 7.73148 43.7444C7.48774 43.6722 7.27325 43.5416 7.08801 43.3525C6.87546 43.136 6.74092 42.8903 6.68242 42.6173C6.62392 42.3443 6.65512 42.0753 6.77602 41.8081L7.16795 42.2098C7.1114 42.3677 7.10361 42.5179 7.1426 42.6641C7.1816 42.8084 7.26155 42.943 7.38049 43.0658C7.51114 43.2004 7.65933 43.2901 7.82313 43.3369C7.98692 43.3837 8.15462 43.3798 8.32621 43.3291C8.4978 43.2784 8.6577 43.1789 8.80784 43.0327C8.95798 42.8864 9.06133 42.7265 9.11593 42.5569C9.17053 42.3872 9.17833 42.2196 9.13543 42.0538C9.09448 41.8881 9.00673 41.7379 8.87609 41.6034C8.75519 41.4805 8.6226 41.3986 8.4783 41.3557C8.33401 41.3128 8.18191 41.3187 8.02397 41.3713L7.63204 40.9697C7.90113 40.8546 8.17217 40.8312 8.44125 40.8956C8.71229 40.9618 8.95214 41.1022 9.16468 41.3187C9.35187 41.5098 9.47862 41.7282 9.54491 41.9739C9.61121 42.2196 9.60926 42.4652 9.54296 42.7129C9.47471 42.9605 9.34212 43.1809 9.14323 43.3759C8.94434 43.5709 8.72009 43.6995 8.47245 43.76H8.4705Z" fill="#2D2D2D"/>
<path d="M4.29577 39.9225L6.57328 38.2163L6.85212 38.5907L5.85571 39.3375L6.65713 40.41L7.65354 39.6632L7.93238 40.0375L5.65292 41.7437L5.37408 41.3693L6.35099 40.6381L5.54762 39.5657L4.57071 40.2969L4.29187 39.9225H4.29577Z" fill="#2D2D2D"/>
<path d="M5.86543 37.3661C5.86543 37.6216 5.79913 37.8595 5.66849 38.0818C5.53784 38.304 5.35065 38.4815 5.10691 38.618C4.86317 38.7545 4.61358 38.8188 4.35814 38.813C4.1027 38.8071 3.86481 38.7389 3.64836 38.6043C3.43192 38.4698 3.25838 38.2884 3.12968 38.0564C2.99904 37.8224 2.93469 37.5787 2.93469 37.3232C2.93469 37.0678 2.99904 36.8318 3.12968 36.6115C3.26033 36.3912 3.44752 36.2137 3.69126 36.0772C3.935 35.9407 4.18459 35.8744 4.44199 35.8783C4.69938 35.8822 4.93532 35.9505 5.15176 36.085C5.3682 36.2196 5.54174 36.4029 5.67239 36.6369C5.80108 36.8689 5.86543 37.1107 5.86543 37.3661ZM4.96067 36.4575C4.81442 36.3697 4.65063 36.3307 4.46928 36.3346C4.28989 36.3405 4.1066 36.3931 3.9233 36.4965C3.74001 36.5998 3.59962 36.7246 3.50212 36.8747C3.40462 37.0249 3.35393 37.1848 3.35198 37.3544C3.35003 37.5241 3.39487 37.6918 3.48652 37.8556C3.57817 38.0194 3.69711 38.1461 3.84336 38.2338C3.9896 38.3216 4.15145 38.3625 4.33084 38.3586C4.51023 38.3547 4.69158 38.3001 4.87487 38.1987C5.05816 38.0974 5.20051 37.9706 5.298 37.8185C5.3955 37.6664 5.44815 37.5065 5.45205 37.3369C5.45595 37.1672 5.4111 36.9995 5.31945 36.8338C5.22781 36.67 5.10886 36.5433 4.96067 36.4575Z" fill="#2D2D2D"/>
<path d="M2.02209 35.7244L4.62719 34.5779L4.81439 35.0049L2.20928 36.1515L2.02014 35.7244H2.02209Z" fill="#2D2D2D"/>
<path d="M2.30488 34.7338C2.05334 34.6812 1.83495 34.5681 1.6458 34.3965C1.45861 34.2249 1.32212 34.0123 1.23827 33.7627C1.14272 33.4761 1.12712 33.1953 1.19537 32.9243C1.26362 32.6532 1.40791 32.4231 1.6341 32.2359L1.81155 32.7683C1.6926 32.8853 1.61851 33.0179 1.58926 33.1661C1.56001 33.3143 1.57366 33.4683 1.62826 33.6321C1.6887 33.8115 1.78035 33.9577 1.90709 34.0708C2.03384 34.1839 2.18593 34.2541 2.36143 34.2834C2.53887 34.3126 2.72606 34.2931 2.92496 34.2268C3.12385 34.1605 3.28569 34.063 3.41049 33.9343C3.53528 33.8056 3.61328 33.6574 3.64838 33.4898C3.68348 33.3221 3.67178 33.1505 3.61133 32.9711C3.55673 32.8073 3.47483 32.6766 3.36369 32.5752C3.25254 32.4738 3.1141 32.4134 2.94835 32.39L2.77091 31.8577C3.0634 31.8733 3.31689 31.9688 3.53138 32.1463C3.74587 32.3237 3.90187 32.5557 3.99741 32.8443C4.08126 33.0978 4.10076 33.3494 4.05201 33.5989C4.00326 33.8485 3.89602 34.0689 3.72638 34.2619C3.55673 34.455 3.34029 34.5954 3.07705 34.6831C2.81186 34.7709 2.55447 34.7884 2.30488 34.7358V34.7338Z" fill="#2D2D2D"/>
<path d="M0.955445 31.1829L1.77441 31.0133L1.57552 30.05L1.94796 29.972L2.14685 30.9353L3.00092 30.7579L2.77668 29.6757L3.14911 29.5977L3.4689 31.1381L0.678556 31.7153L0.360718 30.1748L0.733154 30.0968L0.957395 31.179L0.955445 31.1829Z" fill="#2D2D2D"/>
<path d="M0 26.5832L0.380235 26.5579L0.458232 27.7629L1.2967 27.7083L1.23625 26.7685L1.61649 26.7431L1.67694 27.683L2.91904 27.603L2.94829 28.0691L0.109196 28.2523L0.00194993 26.5813L0 26.5832Z" fill="#2D2D2D"/>
<path d="M2.68698 25.4697C2.55244 25.6861 2.36915 25.8519 2.141 25.9708C1.91286 26.0898 1.65937 26.1424 1.38053 26.1268C1.10169 26.1132 0.856003 26.0352 0.641511 25.8948C0.427019 25.7544 0.263226 25.5691 0.15013 25.341C0.0370344 25.1129 -0.0117137 24.8652 -1.41802e-05 24.602C0.0136353 24.3348 0.0877325 24.093 0.222277 23.8766C0.356822 23.6602 0.538165 23.4944 0.766307 23.3774C0.994448 23.2604 1.24599 23.2078 1.52483 23.2234C1.80367 23.237 2.04936 23.3131 2.2658 23.4535C2.48224 23.5919 2.64603 23.7772 2.75913 24.0053C2.87223 24.2334 2.92097 24.4811 2.90927 24.7482C2.89563 25.0134 2.82153 25.2533 2.68698 25.4697ZM2.40229 24.2198C2.3243 24.0677 2.2073 23.9468 2.05131 23.8552C1.89531 23.7635 1.71397 23.7128 1.50338 23.7031C1.29279 23.6933 1.10754 23.7245 0.9457 23.8006C0.783856 23.8766 0.657111 23.9858 0.563514 24.1281C0.471868 24.2705 0.42117 24.4362 0.41142 24.6254C0.40167 24.8126 0.436769 24.9822 0.512816 25.1343C0.590813 25.2864 0.705859 25.4073 0.859903 25.4989C1.01395 25.5906 1.19529 25.6413 1.40588 25.651C1.61647 25.6608 1.80172 25.6296 1.96551 25.5535C2.1293 25.4775 2.258 25.3703 2.3516 25.226C2.44519 25.0836 2.49589 24.9179 2.50564 24.7287C2.51539 24.5415 2.48029 24.3699 2.40229 24.2198Z" fill="#2D2D2D"/>
<path d="M3.28563 21.4724L2.04937 21.917L1.98698 22.268L3.10818 22.4688L3.02629 22.929L0.224243 22.4279L0.397787 21.4607C0.436785 21.2462 0.506982 21.0707 0.608378 20.9342C0.709775 20.7977 0.83067 20.7061 0.971065 20.6534C1.11146 20.6008 1.2577 20.591 1.4137 20.6183C1.59699 20.6515 1.75299 20.7334 1.88363 20.866C2.01428 20.9986 2.08642 21.1799 2.10007 21.41L3.38507 20.9245L3.28758 21.4724H3.28563ZM1.62039 22.2017L1.71204 21.6947C1.74324 21.5231 1.72374 21.3846 1.65354 21.2832C1.58334 21.1799 1.4761 21.1156 1.32985 21.0902C1.18361 21.0649 1.06271 21.0863 0.965215 21.1585C0.867719 21.2306 0.803371 21.3534 0.772172 21.527L0.680526 22.034L1.62039 22.2017Z" fill="#2D2D2D"/>
<path d="M1.7823 16.5391L3.18429 18.0249L4.15926 18.3642L4.00521 18.8049L3.03025 18.4656L1.00623 18.762L1.17782 18.2706L2.71436 18.1088L1.61265 17.0265L1.7823 16.5391Z" fill="#2D2D2D"/>
<path d="M4.68378 16.6345C4.47319 16.7788 4.2392 16.8588 3.98376 16.8763C3.72637 16.8939 3.47288 16.8393 3.22524 16.7164C2.9776 16.5936 2.78065 16.424 2.64026 16.2095C2.49986 15.995 2.42382 15.761 2.41212 15.5055C2.40042 15.2501 2.45307 15.0044 2.57006 14.7685C2.68901 14.5286 2.8528 14.3375 3.06339 14.1932C3.27398 14.0489 3.50603 13.969 3.76147 13.9514C4.01691 13.9339 4.26845 13.9885 4.51804 14.1133C4.76763 14.2381 4.96262 14.4058 5.10497 14.6203C5.24731 14.8348 5.32531 15.0688 5.33701 15.3222C5.34871 15.5777 5.29606 15.8234 5.17711 16.0632C5.06012 16.3011 4.89632 16.4903 4.68573 16.6345H4.68378ZM4.92167 15.3729C4.90997 15.2033 4.85147 15.0454 4.74618 14.8991C4.64088 14.7529 4.49269 14.6339 4.3055 14.5403C4.1183 14.4467 3.93306 14.4019 3.75562 14.4058C3.57622 14.4097 3.41633 14.4584 3.27593 14.554C3.13554 14.6476 3.02244 14.7802 2.9386 14.9479C2.85475 15.1156 2.8177 15.2852 2.82745 15.4548C2.8372 15.6245 2.8957 15.7824 2.99905 15.9267C3.10434 16.071 3.25059 16.1919 3.43778 16.2836C3.62692 16.3772 3.81021 16.422 3.98961 16.4181C4.169 16.4142 4.33084 16.3655 4.47319 16.2719C4.61553 16.1783 4.72863 16.0476 4.81248 15.878C4.89632 15.7083 4.93337 15.5406 4.92167 15.369V15.3729Z" fill="#2D2D2D"/>
<path d="M3.89984 12.4676L5.40323 13.4815C5.58262 13.6024 5.74837 13.6453 5.90241 13.6122C6.05645 13.579 6.18905 13.4796 6.30215 13.3119C6.41719 13.1423 6.46009 12.9804 6.43279 12.8244C6.40549 12.6684 6.30215 12.5319 6.12275 12.411L4.61936 11.3971L4.88065 11.009L6.37819 12.0191C6.57123 12.1497 6.70578 12.2999 6.78183 12.4734C6.85982 12.647 6.88322 12.8264 6.85397 13.0116C6.82473 13.1969 6.75258 13.3743 6.63948 13.5439C6.52444 13.7136 6.38794 13.8462 6.22805 13.9417C6.06815 14.0373 5.89461 14.0802 5.70547 14.0724C5.51632 14.0646 5.32718 13.9944 5.13414 13.8657L3.6366 12.8556L3.89789 12.4676H3.89984Z" fill="#2D2D2D"/>
<path d="M8.53284 11.0655L7.24199 10.8179L7.00995 11.087L7.87182 11.8299L7.56763 12.1828L5.41101 10.3246L6.05254 9.57969C6.19488 9.41395 6.34503 9.2989 6.50102 9.23456C6.65701 9.17021 6.80911 9.15071 6.95535 9.17801C7.1016 9.20531 7.23419 9.26965 7.35509 9.373C7.49548 9.4939 7.58908 9.64599 7.63198 9.82538C7.67682 10.0067 7.64563 10.1998 7.54228 10.4045L8.89553 10.6405L8.53284 11.0616V11.0655ZM6.72721 10.8452L7.06455 10.4552C7.17764 10.3226 7.23224 10.1939 7.22249 10.0711C7.21469 9.94628 7.15424 9.83708 7.0431 9.73959C6.93195 9.64404 6.81496 9.60114 6.69601 9.61284C6.57707 9.62454 6.45812 9.69864 6.34307 9.83123L6.00574 10.2212L6.72916 10.8432L6.72721 10.8452Z" fill="#2D2D2D"/>
<path d="M24.8753 18.2998L25.8776 23.2214L29.8086 20.0957L27.4141 24.5103L32.4332 24.6429L27.7612 26.4836L31.5206 29.8122L26.7589 28.221L27.4999 33.1875L24.8753 28.9074L22.2507 33.1875L22.9917 28.221L18.228 29.8122L21.9875 26.4836L17.3174 24.6429L22.3365 24.5103L19.942 20.0957L23.873 23.2214L24.8753 18.2998Z" fill="#2D2D2D"/>
</g>
<defs>
<clipPath id="clip0_198_1593">
<rect width="50" height="49.9941" fill="white" transform="translate(0 0.883301)"/>
</clipPath>
</defs>
</svg>
