<svg width="265" height="182" viewBox="0 0 265 182" fill="none" xmlns="http://www.w3.org/2000/svg">
<path d="M0.765625 90.25C0.765625 61.4167 4.93229 39.25 13.2656 23.75C21.599 8.08333 36.9323 0.249997 59.2656 0.249997C81.4323 0.249997 96.6823 8.08333 105.016 23.75C113.349 39.25 117.516 61.4167 117.516 90.25C117.516 119.417 113.349 141.917 105.016 157.75C96.6823 173.417 81.4323 181.25 59.2656 181.25C36.9323 181.25 21.599 173.417 13.2656 157.75C4.93229 141.917 0.765625 119.417 0.765625 90.25ZM106.516 90.25C106.516 73.5833 105.266 59.5 102.766 48C100.432 36.5 95.7656 27.4167 88.7656 20.75C81.9323 13.9167 72.099 10.5 59.2656 10.5C46.4323 10.5 36.5156 13.9167 29.5156 20.75C22.6823 27.4167 18.0156 36.5 15.5156 48C13.1823 59.5 12.0156 73.5833 12.0156 90.25C12.0156 107.25 13.1823 121.583 15.5156 133.25C18.0156 144.75 22.6823 153.917 29.5156 160.75C36.5156 167.583 46.4323 171 59.2656 171C72.099 171 81.9323 167.583 88.7656 160.75C95.7656 153.917 100.432 144.75 102.766 133.25C105.266 121.583 106.516 107.25 106.516 90.25Z" fill="white"/>
<path d="M146.906 171.75C178.24 150.083 202.906 129.167 220.906 109C239.073 88.8333 248.156 69.5 248.156 51C248.156 38.8333 244.906 28.9167 238.406 21.25C232.073 13.5833 221.656 9.74999 207.156 9.74999C192.656 9.74999 181.573 14.1667 173.906 23C166.24 31.8333 161.906 43.5 160.906 58H149.906C151.073 39.6667 156.74 25.4167 166.906 15.25C177.073 5.08333 190.49 0 207.156 0C222.323 0 234.74 4.25 244.406 12.75C254.24 21.25 259.156 33.9167 259.156 50.75C259.156 71.5833 249.573 92.5833 230.406 113.75C211.406 134.917 189.656 153.583 165.156 169.75H264.906V179.25H146.906V171.75Z" fill="#C2FAD7"/>
</svg>
