<svg width="26" height="26" viewBox="0 0 26 26" fill="none" xmlns="http://www.w3.org/2000/svg">
<path d="M2.52256 0.378271C1.18275 -0.124157 -0.125623 1.18421 0.376806 2.52402L8.55316 24.3277C9.14884 25.9162 11.4602 25.7028 11.755 24.0321L13.157 16.0871C13.4208 14.5925 14.591 13.4223 16.0856 13.1585L24.0306 11.7565C25.7013 11.4617 25.9147 9.15031 24.3262 8.55463L2.52256 0.378271Z" fill="#7EFFE1"/>
<path d="M16.0132 12.7482L16.0856 13.1585L16.0132 12.7482C14.3461 13.0424 13.0409 14.3476 12.7467 16.0147L13.157 16.0871L12.7467 16.0147L11.3447 23.9597C11.1236 25.2127 9.39006 25.3727 8.9433 24.1814L0.766943 2.37772C0.390122 1.37287 1.3714 0.391587 2.37626 0.768408L24.1799 8.94477C25.3713 9.39153 25.2112 11.125 23.9582 11.3462L16.0132 12.7482Z" stroke="white" stroke-width="0.833333"/>
</svg>
