<svg width="30" height="30" viewBox="0 0 30 30" fill="none" xmlns="http://www.w3.org/2000/svg">
<path d="M8.30814 1.15381H4.61583C3.69778 1.15381 2.81732 1.51851 2.16816 2.16767C1.51899 2.81683 1.1543 3.69729 1.1543 4.61535V8.07688C1.1543 8.99494 1.51899 9.8754 2.16816 10.5246C2.81732 11.1737 3.69778 11.5384 4.61583 11.5384H8.30814C9.2262 11.5384 10.1067 11.1737 10.7558 10.5246C11.405 9.8754 11.7697 8.99494 11.7697 8.07688V4.61535C11.7697 3.69729 11.405 2.81683 10.7558 2.16767C10.1067 1.51851 9.2262 1.15381 8.30814 1.15381ZM6.65237 8.7115H6.2716C5.66522 8.68153 5.09358 8.41954 4.67502 7.97977C4.25645 7.54 4.023 6.95612 4.023 6.349C4.023 5.74188 4.25645 5.158 4.67502 4.71823C5.09358 4.27846 5.66522 4.01647 6.2716 3.9865H6.65237C7.25875 4.01647 7.83039 4.27846 8.24896 4.71823C8.66753 5.158 8.90097 5.74188 8.90097 6.349C8.90097 6.95612 8.66753 7.54 8.24896 7.97977C7.83039 8.41954 7.25875 8.68153 6.65237 8.7115Z" fill="white"/>
<path d="M18.0006 11.5384H21.6929C22.611 11.5384 23.4914 11.1737 24.1406 10.5246C24.7897 9.8754 25.1544 8.99494 25.1544 8.07688V4.61535C25.1544 3.69729 24.7897 2.81683 24.1406 2.16767C23.4914 1.51851 22.611 1.15381 21.6929 1.15381H18.0006C17.0825 1.15381 16.2021 1.51851 15.5529 2.16767C14.9038 2.81683 14.5391 3.69729 14.5391 4.61535V8.07688C14.5391 8.99494 14.9038 9.8754 15.5529 10.5246C16.2021 11.1737 17.0825 11.5384 18.0006 11.5384ZM19.6564 3.9865H20.0371C20.6435 4.01647 21.2152 4.27846 21.6337 4.71823C22.0523 5.158 22.2857 5.74188 22.2857 6.349C22.2857 6.95612 22.0523 7.54 21.6337 7.97977C21.2152 8.41954 20.6435 8.68153 20.0371 8.7115H19.6564C19.05 8.68153 18.4783 8.41954 18.0598 7.97977C17.6412 7.54 17.4078 6.95612 17.4078 6.349C17.4078 5.74188 17.6412 5.158 18.0598 4.71823C18.4783 4.27846 19.05 4.01647 19.6564 3.9865Z" fill="white"/>
<path d="M8.30814 14.3828L4.61583 14.4232C3.69778 14.4232 2.81732 14.7879 2.16816 15.4371C1.51899 16.0862 1.1543 16.9667 1.1543 17.8847V21.2713C1.1543 22.1893 1.51899 23.0698 2.16816 23.7189C2.81732 24.3681 3.69778 24.7328 4.61583 24.7328H8.30814C9.2262 24.7328 10.1067 24.3681 10.7558 23.7189C11.405 23.0698 11.7697 22.1893 11.7697 21.2713V17.8444C11.7697 16.9263 11.405 16.0458 10.7558 15.3967C10.1067 14.7475 9.2262 14.3828 8.30814 14.3828ZM6.65237 21.9232H6.2716C5.66522 21.8932 5.09358 21.6312 4.67502 21.1915C4.25645 20.7517 4.023 20.1678 4.023 19.5607C4.023 18.9536 4.25645 18.3697 4.67502 17.9299C5.09358 17.4902 5.66522 17.2282 6.2716 17.1982H6.65237C7.25875 17.2282 7.83039 17.4902 8.24896 17.9299C8.66753 18.3697 8.90097 18.9536 8.90097 19.5607C8.90097 20.1678 8.66753 20.7517 8.24896 21.1915C7.83039 21.6312 7.25875 21.8932 6.65237 21.9232Z" fill="white"/>
<path d="M28.4254 20.2328C28.0615 20.2137 27.6993 20.1713 27.3408 20.1059C27.3102 20.1031 27.2816 20.0893 27.2603 20.067C27.2391 20.0447 27.2267 20.0155 27.2254 19.9848C27.0867 19.5909 26.9249 19.2057 26.7408 18.8309V18.6463C26.9254 18.3405 27.2254 18.0348 27.4043 17.7232C27.4683 17.6304 27.4971 17.5178 27.4854 17.4057C27.4738 17.2936 27.4225 17.1893 27.3408 17.1117L26.1408 15.8771C26.0593 15.8009 25.9524 15.7577 25.8408 15.7559C25.7363 15.7842 25.6356 15.8249 25.5408 15.8771C25.2408 16.0617 24.9639 16.3732 24.6408 16.5578C24.6332 16.557 24.6256 16.5577 24.6183 16.5599C24.6109 16.5621 24.6041 16.5657 24.5982 16.5706C24.5923 16.5754 24.5875 16.5813 24.5839 16.5881C24.5803 16.5948 24.5781 16.6022 24.5773 16.6098H24.5197C24.0985 16.4886 23.7985 16.2405 23.3658 16.1194C23.3345 16.1168 23.3052 16.1031 23.2831 16.081C23.2609 16.0588 23.2473 16.0295 23.2447 15.9982C23.187 15.629 23.187 15.3174 23.1235 14.9482C23.1281 14.8459 23.102 14.7445 23.0486 14.6571C22.9951 14.5697 22.9167 14.5003 22.8235 14.4578C22.7924 14.4224 22.7492 14.3998 22.7023 14.3944H20.9716C20.8674 14.3833 20.7624 14.4055 20.6716 14.4578C20.5504 14.579 20.3716 14.7636 20.3716 14.9482C20.3601 15.3009 20.3195 15.6521 20.2504 15.9982C20.2478 16.0295 20.2342 16.0588 20.212 16.081C20.1898 16.1031 20.1605 16.1168 20.1293 16.1194C19.7081 16.2405 19.4081 16.4886 18.9754 16.6098H18.9177C18.8543 16.6098 18.8543 16.6098 18.7966 16.5521C18.4966 16.3674 18.2543 16.0559 17.8966 15.8713C17.859 15.8281 17.8116 15.7946 17.7584 15.7735C17.7052 15.7524 17.6477 15.7444 17.5908 15.7501C17.412 15.7501 17.412 15.8136 17.2331 15.8713L16.0331 17.1059C15.9514 17.1836 15.9001 17.2878 15.8885 17.4C15.8769 17.5121 15.9056 17.6247 15.9697 17.7174C16.1485 18.029 16.4485 18.2944 16.6331 18.6405C16.6446 18.6518 16.6538 18.6653 16.66 18.6801C16.6663 18.695 16.6695 18.7109 16.6695 18.7271C16.6695 18.7432 16.6663 18.7591 16.66 18.774C16.6538 18.7889 16.6446 18.8023 16.6331 18.8136C16.512 19.2463 16.2697 19.5521 16.1485 19.9674C16.1472 19.9982 16.1348 20.0274 16.1136 20.0497C16.0924 20.072 16.0638 20.0858 16.0331 20.0886C15.6697 20.1521 15.3697 20.1521 15.0062 20.2155C14.8971 20.2167 14.7913 20.2533 14.7049 20.3199C14.6185 20.3866 14.5562 20.4795 14.5273 20.5848V22.6732C14.6332 22.8588 14.8005 23.0017 15.0004 23.0771C15.3459 23.0877 15.6897 23.1302 16.0273 23.204C16.058 23.2068 16.0866 23.2206 16.1078 23.2429C16.129 23.2651 16.1415 23.2944 16.1427 23.3251C16.2639 23.7578 16.5062 24.0636 16.6273 24.479C16.6273 24.5367 16.685 24.6001 16.6273 24.6636C16.4427 24.9694 16.1427 25.2751 15.9639 25.5867C15.8999 25.6795 15.8711 25.792 15.8827 25.9042C15.8944 26.0163 15.9456 26.1206 16.0273 26.1982L17.2273 27.4328C17.3485 27.554 17.4062 27.554 17.585 27.554C17.6933 27.5319 17.7968 27.4909 17.8908 27.4328C18.1793 27.1905 18.4677 26.9655 18.7908 26.7521C18.8485 26.7521 18.8485 26.6944 18.912 26.6944H18.9697C19.3908 26.8155 19.6908 27.0636 20.1235 27.1848C20.1548 27.1874 20.1841 27.201 20.2062 27.2232C20.2284 27.2453 20.242 27.2747 20.2447 27.3059C20.3023 27.6751 20.3023 28.0444 20.3658 28.4136C20.4293 28.7828 20.5447 28.8463 20.8447 28.8463H22.5754C22.8754 28.8463 22.9966 28.7251 23.06 28.4136C23.1235 28.1021 23.1177 27.6751 23.1812 27.3059C23.1825 27.2752 23.1949 27.2459 23.2161 27.2236C23.2373 27.2013 23.2659 27.1875 23.2966 27.1848C23.6905 27.0441 24.0758 26.8803 24.4504 26.6944H24.5139C24.5217 26.6934 24.5296 26.6943 24.537 26.6969C24.5444 26.6994 24.5512 26.7037 24.5567 26.7092C24.5623 26.7148 24.5665 26.7215 24.5691 26.7289C24.5716 26.7364 24.5725 26.7443 24.5716 26.7521C24.8716 26.9367 25.1485 27.2482 25.4716 27.4328C25.5568 27.5068 25.6646 27.5495 25.7773 27.554C25.8927 27.554 25.9562 27.4905 26.135 27.4328L27.335 26.1982C27.4167 26.1206 27.468 26.0163 27.4797 25.9042C27.4913 25.792 27.4625 25.6795 27.3985 25.5867C27.2197 25.2751 26.9197 25.0098 26.735 24.6636C26.7235 24.6523 26.7144 24.6389 26.7081 24.624C26.7019 24.6091 26.6987 24.5932 26.6987 24.5771C26.6987 24.5609 26.7019 24.545 26.7081 24.5301C26.7144 24.5153 26.7235 24.5018 26.735 24.4905C26.8562 24.0578 27.0985 23.7521 27.2197 23.3367C27.2209 23.3059 27.2333 23.2767 27.2546 23.2544C27.2758 23.2321 27.3044 23.2183 27.335 23.2155C27.6985 23.1521 28.062 23.1521 28.4197 23.0886C28.7773 23.0251 28.8408 22.904 28.8408 22.5982V20.8674C28.8466 20.4174 28.7254 20.2905 28.4254 20.2328ZM24.4447 21.6463C24.4267 22.3623 24.1394 23.0452 23.6399 23.5586C23.1404 24.0719 22.4657 24.378 21.7504 24.4155C21.3981 24.4193 21.0485 24.3537 20.7216 24.2224C20.3946 24.0911 20.0968 23.8967 19.845 23.6502C19.5932 23.4038 19.3924 23.1102 19.2541 22.7861C19.1158 22.4621 19.0426 22.114 19.0389 21.7617V21.6463C19.01 20.9318 19.2651 20.2349 19.7484 19.708C20.2318 19.181 20.9041 18.8668 21.6184 18.834C22.3327 18.8012 23.031 19.0526 23.5605 19.533C24.0901 20.0135 24.408 20.6841 24.4447 21.3982C24.4504 21.4808 24.4504 21.5637 24.4447 21.6463Z" fill="white"/>
</svg>
