<svg width="274" height="182" viewBox="0 0 274 182" fill="none" xmlns="http://www.w3.org/2000/svg">
<path d="M0 90.5C0 61.6667 4.16667 39.5 12.5 24C20.8333 8.33333 36.1667 0.499994 58.5 0.499994C80.6667 0.499994 95.9167 8.33333 104.25 24C112.583 39.5 116.75 61.6667 116.75 90.5C116.75 119.667 112.583 142.167 104.25 158C95.9167 173.667 80.6667 181.5 58.5 181.5C36.1667 181.5 20.8333 173.667 12.5 158C4.16667 142.167 0 119.667 0 90.5ZM105.75 90.5C105.75 73.8333 104.5 59.75 102 48.25C99.6667 36.75 95 27.6667 88 21C81.1667 14.1667 71.3333 10.75 58.5 10.75C45.6667 10.75 35.75 14.1667 28.75 21C21.9167 27.6667 17.25 36.75 14.75 48.25C12.4167 59.75 11.25 73.8333 11.25 90.5C11.25 107.5 12.4167 121.833 14.75 133.5C17.25 145 21.9167 154.167 28.75 161C35.75 167.833 45.6667 171.25 58.5 171.25C71.3333 171.25 81.1667 167.833 88 161C95 154.167 99.6667 145 102 133.5C104.5 121.833 105.75 107.5 105.75 90.5Z" fill="white"/>
<path d="M256.391 47.25C254.557 35.25 250.141 26 243.141 19.5C236.141 12.8333 226.557 9.5 214.391 9.5C197.224 9.5 184.057 15.8333 174.891 28.5C165.891 41.1667 161.391 61.6667 161.391 90L161.641 99.75C164.307 88.25 170.724 79.1667 180.891 72.5C191.057 65.6667 202.891 62.25 216.391 62.25C234.391 62.25 248.474 67.6667 258.641 78.5C268.807 89.3333 273.891 104.167 273.891 123C273.891 133.667 271.891 143.417 267.891 152.25C263.891 161.083 257.557 168.167 248.891 173.5C240.224 178.833 229.391 181.5 216.391 181.5C191.391 181.5 174.307 173.667 165.141 158C155.974 142.167 151.391 120.417 151.391 92.75C151.391 62.9167 156.307 40 166.141 24C176.141 8 192.224 0 214.391 0C229.891 0 242.057 4.33333 250.891 13C259.891 21.5 265.307 32.9167 267.141 47.25H256.391ZM214.641 72C206.141 72 197.974 73.75 190.141 77.25C182.307 80.75 175.891 86.0833 170.891 93.25C166.057 100.25 163.641 108.833 163.641 119C163.641 128.333 165.474 137.083 169.141 145.25C172.974 153.25 178.807 159.75 186.641 164.75C194.474 169.583 204.224 172 215.891 172C230.224 172 241.641 167.667 250.141 159C258.641 150.333 262.891 138.417 262.891 123.25C262.891 106.917 258.641 94.3333 250.141 85.5C241.641 76.5 229.807 72 214.641 72Z" fill="white"/>
</svg>
