<svg width="26" height="26" viewBox="0 0 26 26" fill="none" xmlns="http://www.w3.org/2000/svg">
<path d="M7.49336 7.66548H7.50399M11.1732 3.36084H8.29077C6.50488 3.36084 5.61194 3.36084 4.92983 3.7084C4.32982 4.01412 3.842 4.50193 3.53628 5.10195C3.18872 5.78406 3.18872 6.677 3.18872 8.46289V11.3453C3.18872 12.1252 3.18872 12.5152 3.27683 12.8822C3.35494 13.2076 3.48378 13.5186 3.65862 13.804C3.85581 14.1257 4.13157 14.4015 4.68308 14.953L9.67884 19.9488C10.9416 21.2115 11.5731 21.843 12.3011 22.0795C12.9416 22.2876 13.6314 22.2876 14.272 22.0795C15 21.843 15.6315 21.2115 16.8942 19.9488L19.7767 17.0663C21.0394 15.8036 21.6709 15.1721 21.9074 14.4441C22.1155 13.8036 22.1155 13.1137 21.9074 12.4732C21.6709 11.7452 21.0394 11.1137 19.7767 9.85096L14.7809 4.8552C14.2293 4.30369 13.9536 4.02793 13.6319 3.83074C13.3465 3.6559 13.0355 3.52706 12.7101 3.44895C12.3431 3.36084 11.9531 3.36084 11.1732 3.36084ZM8.02483 7.66548C8.02483 7.95901 7.78689 8.19695 7.49336 8.19695C7.19985 8.19695 6.9619 7.95901 6.9619 7.66548C6.9619 7.37197 7.19985 7.13402 7.49336 7.13402C7.78689 7.13402 8.02483 7.37197 8.02483 7.66548Z" stroke="white" stroke-width="2.12585" stroke-linecap="round" stroke-linejoin="round"/>
</svg>
