<svg width="235" height="72" viewBox="0 0 235 72" fill="none" xmlns="http://www.w3.org/2000/svg">
<path d="M0.32 12V2.016H20.288V72H9.248V12H0.32ZM35.3225 36.096C35.3225 25.024 37.1785 16.384 40.8905 10.176C44.6665 3.904 51.1305 0.767996 60.2825 0.767996C69.4345 0.767996 75.8665 3.904 79.5785 10.176C83.3545 16.384 85.2425 25.024 85.2425 36.096C85.2425 47.296 83.3545 56.064 79.5785 62.4C75.8665 68.672 69.4345 71.808 60.2825 71.808C51.1305 71.808 44.6665 68.672 40.8905 62.4C37.1785 56.064 35.3225 47.296 35.3225 36.096ZM74.4905 36.096C74.4905 30.912 74.1385 26.528 73.4345 22.944C72.7945 19.36 71.4505 16.448 69.4025 14.208C67.3545 11.904 64.3145 10.752 60.2825 10.752C56.2505 10.752 53.2105 11.904 51.1625 14.208C49.1145 16.448 47.7385 19.36 47.0345 22.944C46.3945 26.528 46.0745 30.912 46.0745 36.096C46.0745 41.472 46.3945 45.984 47.0345 49.632C47.6745 53.28 49.0185 56.224 51.0665 58.464C53.1785 60.704 56.2505 61.824 60.2825 61.824C64.3145 61.824 67.3545 60.704 69.4025 58.464C71.5145 56.224 72.8905 53.28 73.5305 49.632C74.1705 45.984 74.4905 41.472 74.4905 36.096ZM168.535 5.27999V72H157.591V26.304L137.239 72H129.655L109.207 26.304V72H98.2625V5.27999H110.071L133.495 57.6L156.823 5.27999H168.535ZM234.471 41.952H215.079V61.824H204.903V41.952H185.511V32.736H204.903V12.864H215.079V32.736H234.471V41.952Z" fill="white"/>
</svg>
