<svg width="263" height="182" viewBox="0 0 263 182" fill="none" xmlns="http://www.w3.org/2000/svg">
<path d="M0.0449219 90.25C0.0449219 61.4167 4.21159 39.25 12.5449 23.75C20.8783 8.08333 36.2116 0.249997 58.5449 0.249997C80.7116 0.249997 95.9616 8.08333 104.295 23.75C112.628 39.25 116.795 61.4167 116.795 90.25C116.795 119.417 112.628 141.917 104.295 157.75C95.9616 173.417 80.7116 181.25 58.5449 181.25C36.2116 181.25 20.8783 173.417 12.5449 157.75C4.21159 141.917 0.0449219 119.417 0.0449219 90.25ZM105.795 90.25C105.795 73.5833 104.545 59.5 102.045 48C99.7116 36.5 95.0449 27.4167 88.0449 20.75C81.2116 13.9167 71.3783 10.5 58.5449 10.5C45.7116 10.5 35.7949 13.9167 28.7949 20.75C21.9616 27.4167 17.2949 36.5 14.7949 48C12.4616 59.5 11.2949 73.5833 11.2949 90.25C11.2949 107.25 12.4616 121.583 14.7949 133.25C17.2949 144.75 21.9616 153.917 28.7949 160.75C35.7949 167.583 45.7116 171 58.5449 171C71.3783 171 81.2116 167.583 88.0449 160.75C95.0449 153.917 99.7116 144.75 102.045 133.25C104.545 121.583 105.795 107.25 105.795 90.25Z" fill="white"/>
<path d="M149.686 48.75C151.186 33.5833 157.019 21.6667 167.186 13C177.519 4.33333 191.102 0 207.936 0C218.769 0 228.019 2 235.686 6C243.352 9.83333 249.186 15.0833 253.186 21.75C257.186 28.4167 259.186 36 259.186 44.5C259.186 55.1667 255.936 64.4167 249.436 72.25C242.936 79.9167 233.019 84.5 219.686 86V87.5C232.519 89.5 242.852 94.4167 250.686 102.25C258.519 110.083 262.436 120.583 262.436 133.75C262.436 147.75 257.769 159.25 248.436 168.25C239.269 177.083 225.769 181.5 207.936 181.5C191.102 181.5 177.186 177 166.186 168C155.352 159 148.852 146.25 146.686 129.75H157.686C159.686 142.083 165.019 152.167 173.686 160C182.352 167.667 193.769 171.5 207.936 171.5C222.269 171.5 233.102 167.917 240.436 160.75C247.936 153.583 251.686 144.333 251.686 133C251.686 119.333 246.436 109.083 235.936 102.25C225.602 95.4167 210.769 92 191.436 92H186.686V82.25H191.686C229.352 82.0833 248.186 69.75 248.186 45.25C248.186 34.5833 244.602 26 237.436 19.5C230.436 13 220.519 9.74999 207.686 9.74999C195.186 9.74999 184.602 13.0833 175.936 19.75C167.436 26.25 162.352 35.9167 160.686 48.75H149.686Z" fill="white"/>
</svg>
