<svg width="530" height="160" viewBox="0 0 530 160" fill="none" xmlns="http://www.w3.org/2000/svg">
<mask id="path-1-outside-1_1441_2558" maskUnits="userSpaceOnUse" x="0" y="0" width="530" height="160" fill="black">
<rect fill="white" width="530" height="160"/>
<path d="M32.1188 22.68V89.88C32.1188 96.6 33.7721 101.773 37.0788 105.4C40.3854 109.027 45.2388 110.84 51.6388 110.84C58.0388 110.84 62.9454 109.027 66.3588 105.4C69.7721 101.773 71.4788 96.6 71.4788 89.88V22.68H98.8388V89.72C98.8388 99.7467 96.7054 108.227 92.4388 115.16C88.1721 122.093 82.4121 127.32 75.1588 130.84C68.0121 134.36 60.0121 136.12 51.1588 136.12C42.3054 136.12 34.3588 134.413 27.3188 131C20.3854 127.48 14.8921 122.253 10.8388 115.32C6.78542 108.28 4.75876 99.7467 4.75876 89.72V22.68H32.1188ZM150.211 22.68V135H122.851V22.68H150.211ZM240.585 155.64H213.225V4.59999H240.585V155.64ZM330.494 22.68V89.88C330.494 96.6 332.147 101.773 335.454 105.4C338.76 109.027 343.614 110.84 350.014 110.84C356.414 110.84 361.32 109.027 364.734 105.4C368.147 101.773 369.854 96.6 369.854 89.88V22.68H397.214V89.72C397.214 99.7467 395.08 108.227 390.814 115.16C386.547 122.093 380.787 127.32 373.534 130.84C366.387 134.36 358.387 136.12 349.534 136.12C340.68 136.12 332.734 134.413 325.694 131C318.76 127.48 313.267 122.253 309.214 115.32C305.16 108.28 303.134 99.7467 303.134 89.72V22.68H330.494ZM490.026 135L467.146 100.6L446.986 135H415.946L451.946 77.88L415.146 22.68H446.986L469.546 56.6L489.386 22.68H520.426L484.746 79.32L521.866 135H490.026Z"/>
</mask>
<path d="M32.1188 22.68H36.1188V18.68H32.1188V22.68ZM37.0788 105.4L34.1229 108.095L34.1229 108.095L37.0788 105.4ZM66.3588 105.4L69.2716 108.141L69.2716 108.141L66.3588 105.4ZM71.4788 22.68V18.68H67.4788V22.68H71.4788ZM98.8388 22.68H102.839V18.68H98.8388V22.68ZM92.4388 115.16L95.8454 117.256L95.8454 117.256L92.4388 115.16ZM75.1588 130.84L73.4124 127.241L73.4018 127.246L73.3914 127.252L75.1588 130.84ZM27.3188 131L25.508 134.567L25.5407 134.583L25.5737 134.599L27.3188 131ZM10.8388 115.32L7.37227 117.316L7.37888 117.327L7.38557 117.339L10.8388 115.32ZM4.75876 22.68V18.68H0.758757V22.68H4.75876ZM28.1188 22.68V89.88H36.1188V22.68H28.1188ZM28.1188 89.88C28.1188 97.2255 29.9303 103.497 34.1229 108.095L40.0346 102.705C37.6139 100.05 36.1188 95.9745 36.1188 89.88H28.1188ZM34.1229 108.095C38.4009 112.787 44.4752 114.84 51.6388 114.84V106.84C46.0023 106.84 42.3699 105.266 40.0346 102.705L34.1229 108.095ZM51.6388 114.84C58.8095 114.84 64.9014 112.785 69.2716 108.141L63.446 102.659C60.9895 105.269 57.268 106.84 51.6388 106.84V114.84ZM69.2716 108.141C73.5975 103.545 75.4788 97.2561 75.4788 89.88H67.4788C67.4788 95.9439 65.9467 100.002 63.446 102.659L69.2716 108.141ZM75.4788 89.88V22.68H67.4788V89.88H75.4788ZM71.4788 26.68H98.8388V18.68H71.4788V26.68ZM94.8388 22.68V89.72H102.839V22.68H94.8388ZM94.8388 89.72C94.8388 99.1776 92.83 106.892 89.0321 113.064L95.8454 117.256C100.581 109.561 102.839 100.316 102.839 89.72H94.8388ZM89.0321 113.064C85.1605 119.355 79.9735 124.057 73.4124 127.241L76.9052 134.439C84.8507 130.583 91.1837 124.832 95.8454 117.256L89.0321 113.064ZM73.3914 127.252C66.8532 130.472 59.4682 132.12 51.1588 132.12V140.12C60.556 140.12 69.1709 138.248 76.9262 134.428L73.3914 127.252ZM51.1588 132.12C42.83 132.12 35.4923 130.518 29.0639 127.401L25.5737 134.599C33.2252 138.309 41.7809 140.12 51.1588 140.12V132.12ZM29.1295 127.433C22.9043 124.273 17.9712 119.595 14.2919 113.301L7.38557 117.339C11.813 124.912 17.8666 130.687 25.508 134.567L29.1295 127.433ZM14.3052 113.324C10.6746 107.018 8.75876 99.2089 8.75876 89.72H0.758757C0.758757 100.284 2.89626 109.542 7.37227 117.316L14.3052 113.324ZM8.75876 89.72V22.68H0.758757V89.72H8.75876ZM4.75876 26.68H32.1188V18.68H4.75876V26.68ZM150.211 22.68H154.211V18.68H150.211V22.68ZM150.211 135V139H154.211V135H150.211ZM122.851 135H118.851V139H122.851V135ZM122.851 22.68V18.68H118.851V22.68H122.851ZM146.211 22.68V135H154.211V22.68H146.211ZM150.211 131H122.851V139H150.211V131ZM126.851 135V22.68H118.851V135H126.851ZM122.851 26.68H150.211V18.68H122.851V26.68ZM240.585 155.64V159.64H244.585V155.64H240.585ZM213.225 155.64H209.225V159.64H213.225V155.64ZM213.225 4.59999V0.599991H209.225V4.59999H213.225ZM240.585 4.59999H244.585V0.599991H240.585V4.59999ZM240.585 151.64H213.225V159.64H240.585V151.64ZM217.225 155.64V4.59999H209.225V155.64H217.225ZM213.225 8.59999H240.585V0.599991H213.225V8.59999ZM236.585 4.59999V155.64H244.585V4.59999H236.585ZM330.494 22.68H334.494V18.68H330.494V22.68ZM335.454 105.4L332.498 108.095L332.498 108.095L335.454 105.4ZM364.734 105.4L367.647 108.141L367.647 108.141L364.734 105.4ZM369.854 22.68V18.68H365.854V22.68H369.854ZM397.214 22.68H401.214V18.68H397.214V22.68ZM390.814 115.16L394.22 117.256L394.22 117.256L390.814 115.16ZM373.534 130.84L371.787 127.241L371.777 127.246L371.766 127.252L373.534 130.84ZM325.694 131L323.883 134.567L323.916 134.583L323.949 134.599L325.694 131ZM309.214 115.32L305.747 117.316L305.754 117.327L305.761 117.339L309.214 115.32ZM303.134 22.68V18.68H299.134V22.68H303.134ZM326.494 22.68V89.88H334.494V22.68H326.494ZM326.494 89.88C326.494 97.2255 328.305 103.497 332.498 108.095L338.41 102.705C335.989 100.05 334.494 95.9745 334.494 89.88H326.494ZM332.498 108.095C336.776 112.787 342.85 114.84 350.014 114.84V106.84C344.377 106.84 340.745 105.266 338.41 102.705L332.498 108.095ZM350.014 114.84C357.184 114.84 363.276 112.785 367.647 108.141L361.821 102.659C359.364 105.269 355.643 106.84 350.014 106.84V114.84ZM367.647 108.141C371.973 103.545 373.854 97.2561 373.854 89.88H365.854C365.854 95.9439 364.322 100.002 361.821 102.659L367.647 108.141ZM373.854 89.88V22.68H365.854V89.88H373.854ZM369.854 26.68H397.214V18.68H369.854V26.68ZM393.214 22.68V89.72H401.214V22.68H393.214ZM393.214 89.72C393.214 99.1776 391.205 106.892 387.407 113.064L394.22 117.256C398.956 109.561 401.214 100.316 401.214 89.72H393.214ZM387.407 113.064C383.535 119.355 378.349 124.057 371.787 127.241L375.28 134.439C383.226 130.583 389.559 124.832 394.22 117.256L387.407 113.064ZM371.766 127.252C365.228 130.472 357.843 132.12 349.534 132.12V140.12C358.931 140.12 367.546 138.248 375.301 134.428L371.766 127.252ZM349.534 132.12C341.205 132.12 333.867 130.518 327.439 127.401L323.949 134.599C331.6 138.309 340.156 140.12 349.534 140.12V132.12ZM327.505 127.433C321.279 124.273 316.346 119.595 312.667 113.301L305.761 117.339C310.188 124.912 316.242 130.687 323.883 134.567L327.505 127.433ZM312.68 113.324C309.05 107.018 307.134 99.2089 307.134 89.72H299.134C299.134 100.284 301.271 109.542 305.747 117.316L312.68 113.324ZM307.134 89.72V22.68H299.134V89.72H307.134ZM303.134 26.68H330.494V18.68H303.134V26.68ZM490.026 135L486.696 137.215L487.883 139H490.026V135ZM467.146 100.6L470.477 98.3848L466.932 93.0548L463.695 98.5775L467.146 100.6ZM446.986 135V139H449.278L450.437 137.022L446.986 135ZM415.946 135L412.562 132.867L408.697 139H415.946V135ZM451.946 77.88L455.33 80.0128L456.713 77.8189L455.274 75.6612L451.946 77.88ZM415.146 22.68V18.68H407.672L411.818 24.8988L415.146 22.68ZM446.986 22.68L450.317 20.4648L449.13 18.68H446.986V22.68ZM469.546 56.6L466.216 58.8152L469.764 64.1503L472.999 58.6195L469.546 56.6ZM489.386 22.68V18.68H487.092L485.933 20.6605L489.386 22.68ZM520.426 22.68L523.811 24.812L527.674 18.68H520.426V22.68ZM484.746 79.32L481.362 77.188L479.98 79.3816L481.418 81.5388L484.746 79.32ZM521.866 135V139H529.34L525.194 132.781L521.866 135ZM493.357 132.785L470.477 98.3848L463.816 102.815L486.696 137.215L493.357 132.785ZM463.695 98.5775L443.535 132.978L450.437 137.022L470.597 102.622L463.695 98.5775ZM446.986 131H415.946V139H446.986V131ZM419.33 137.133L455.33 80.0128L448.562 75.7472L412.562 132.867L419.33 137.133ZM455.274 75.6612L418.474 20.4612L411.818 24.8988L448.618 80.0988L455.274 75.6612ZM415.146 26.68H446.986V18.68H415.146V26.68ZM443.656 24.8952L466.216 58.8152L472.877 54.3848L450.317 20.4648L443.656 24.8952ZM472.999 58.6195L492.839 24.6995L485.933 20.6605L466.093 54.5805L472.999 58.6195ZM489.386 26.68H520.426V18.68H489.386V26.68ZM517.042 20.548L481.362 77.188L488.131 81.452L523.811 24.812L517.042 20.548ZM481.418 81.5388L518.538 137.219L525.194 132.781L488.074 77.1012L481.418 81.5388ZM521.866 131H490.026V139H521.866V131Z" fill="white" mask="url(#path-1-outside-1_1441_2558)"/>
</svg>
