<svg width="571" height="99" viewBox="0 0 571 99" fill="none" xmlns="http://www.w3.org/2000/svg">
<mask id="path-1-outside-1_1688_216" maskUnits="userSpaceOnUse" x="0" y="0" width="571" height="99" fill="black">
<rect fill="white" width="571" height="99"/>
<path d="M132.752 5.144L109.328 95H82.8315L68.4955 35.864L53.6475 95H27.1515L4.36751 5.144H27.7915L40.7195 70.552L56.7195 5.144H80.7835L96.1435 70.552L109.2 5.144H132.752ZM169.457 22.68V40.856H198.769V57.752H169.457V77.464H202.609V95H147.569V5.144H202.609V22.68H169.457ZM275.059 48.92C280.264 50.0293 284.445 52.632 287.603 56.728C290.76 60.7387 292.339 65.3467 292.339 70.552C292.339 78.0613 289.693 84.0347 284.403 88.472C279.197 92.824 271.901 95 262.515 95H220.659V5.144H261.107C270.237 5.144 277.363 7.23466 282.483 11.416C287.688 15.5973 290.291 21.272 290.291 28.44C290.291 33.7307 288.883 38.1253 286.067 41.624C283.336 45.1227 279.667 47.5547 275.059 48.92ZM242.547 41.496H256.883C260.467 41.496 263.197 40.728 265.075 39.192C267.037 37.5707 268.019 35.224 268.019 32.152C268.019 29.08 267.037 26.7333 265.075 25.112C263.197 23.4907 260.467 22.68 256.883 22.68H242.547V41.496ZM258.675 77.336C262.344 77.336 265.16 76.5253 267.123 74.904C269.171 73.1973 270.195 70.7653 270.195 67.608C270.195 64.4507 269.128 61.976 266.995 60.184C264.947 58.392 262.088 57.496 258.419 57.496H242.547V77.336H258.675ZM341.386 95.896C334.815 95.896 328.927 94.8293 323.722 92.696C318.516 90.5627 314.335 87.4053 311.178 83.224C308.106 79.0427 306.484 74.008 306.314 68.12H329.61C329.951 71.448 331.103 74.008 333.066 75.8C335.028 77.5067 337.588 78.36 340.746 78.36C343.988 78.36 346.548 77.6347 348.426 76.184C350.303 74.648 351.242 72.5573 351.242 69.912C351.242 67.6933 350.474 65.8587 348.938 64.408C347.487 62.9573 345.652 61.7627 343.434 60.824C341.3 59.8853 338.228 58.8187 334.218 57.624C328.415 55.832 323.679 54.04 320.01 52.248C316.34 50.456 313.183 47.8107 310.538 44.312C307.892 40.8133 306.57 36.248 306.57 30.616C306.57 22.2533 309.599 15.7253 315.658 11.032C321.716 6.25333 329.61 3.864 339.338 3.864C349.236 3.864 357.215 6.25333 363.274 11.032C369.332 15.7253 372.575 22.296 373.002 30.744H349.322C349.151 27.8427 348.084 25.5813 346.122 23.96C344.159 22.2533 341.642 21.4 338.569 21.4C335.924 21.4 333.791 22.1253 332.17 23.576C330.548 24.9413 329.738 26.9467 329.738 29.592C329.738 32.4933 331.103 34.7547 333.833 36.376C336.564 37.9973 340.831 39.7467 346.634 41.624C352.436 43.5867 357.13 45.464 360.714 47.256C364.383 49.048 367.54 51.6507 370.186 55.064C372.831 58.4773 374.154 62.872 374.154 68.248C374.154 73.368 372.831 78.0187 370.186 82.2C367.626 86.3813 363.871 89.7093 358.922 92.184C353.972 94.6587 348.127 95.896 341.386 95.896ZM413.351 5.144V95H391.463V5.144H413.351ZM497.694 5.144V22.68H473.886V95H451.998V22.68H428.19V5.144H497.694ZM534.407 22.68V40.856H563.719V57.752H534.407V77.464H567.559V95H512.519V5.144H567.559V22.68H534.407Z"/>
</mask>
<path d="M132.752 5.144L135.654 5.90076L136.634 2.144H132.752V5.144ZM109.328 95V98H111.646L112.23 95.7568L109.328 95ZM82.8315 95L79.916 95.7068L80.4719 98H82.8315V95ZM68.4955 35.864L71.4111 35.1572L65.5858 35.1334L68.4955 35.864ZM53.6475 95V98H55.9874L56.5572 95.7306L53.6475 95ZM27.1515 95L24.2435 95.7374L24.8173 98H27.1515V95ZM4.36751 5.144V2.144H0.511889L1.45954 5.88135L4.36751 5.144ZM27.7915 5.144L30.7346 4.56229L30.2566 2.144H27.7915V5.144ZM40.7195 70.552L37.7765 71.1337L43.6336 71.2648L40.7195 70.552ZM56.7195 5.144V2.144H54.3649L53.8054 4.43116L56.7195 5.144ZM80.7835 5.144L83.7041 4.45815L83.1606 2.144H80.7835V5.144ZM96.1435 70.552L93.223 71.2378L99.0855 71.1392L96.1435 70.552ZM109.2 5.144V2.144H106.739L106.258 4.55676L109.2 5.144ZM129.849 4.38724L106.425 94.2432L112.23 95.7568L135.654 5.90076L129.849 4.38724ZM109.328 92H82.8315V98H109.328V92ZM85.7471 94.2932L71.4111 35.1572L65.58 36.5708L79.916 95.7068L85.7471 94.2932ZM65.5858 35.1334L50.7378 94.2694L56.5572 95.7306L71.4052 36.5946L65.5858 35.1334ZM53.6475 92H27.1515V98H53.6475V92ZM30.0595 94.2626L7.27549 4.40665L1.45954 5.88135L24.2435 95.7374L30.0595 94.2626ZM4.36751 8.144H27.7915V2.144H4.36751V8.144ZM24.8484 5.7257L37.7765 71.1337L43.6626 69.9703L30.7346 4.56229L24.8484 5.7257ZM43.6336 71.2648L59.6336 5.85683L53.8054 4.43116L37.8054 69.8392L43.6336 71.2648ZM56.7195 8.144H80.7835V2.144H56.7195V8.144ZM77.863 5.82984L93.223 71.2378L99.0641 69.8662L83.7041 4.45815L77.863 5.82984ZM99.0855 71.1392L112.141 5.73124L106.258 4.55676L93.2016 69.9648L99.0855 71.1392ZM109.2 8.144H132.752V2.144H109.2V8.144ZM169.457 22.68V19.68H166.457V22.68H169.457ZM169.457 40.856H166.457V43.856H169.457V40.856ZM198.769 40.856H201.769V37.856H198.769V40.856ZM198.769 57.752V60.752H201.769V57.752H198.769ZM169.457 57.752V54.752H166.457V57.752H169.457ZM169.457 77.464H166.457V80.464H169.457V77.464ZM202.609 77.464H205.609V74.464H202.609V77.464ZM202.609 95V98H205.609V95H202.609ZM147.569 95H144.569V98H147.569V95ZM147.569 5.144V2.144H144.569V5.144H147.569ZM202.609 5.144H205.609V2.144H202.609V5.144ZM202.609 22.68V25.68H205.609V22.68H202.609ZM166.457 22.68V40.856H172.457V22.68H166.457ZM169.457 43.856H198.769V37.856H169.457V43.856ZM195.769 40.856V57.752H201.769V40.856H195.769ZM198.769 54.752H169.457V60.752H198.769V54.752ZM166.457 57.752V77.464H172.457V57.752H166.457ZM169.457 80.464H202.609V74.464H169.457V80.464ZM199.609 77.464V95H205.609V77.464H199.609ZM202.609 92H147.569V98H202.609V92ZM150.569 95V5.144H144.569V95H150.569ZM147.569 8.144H202.609V2.144H147.569V8.144ZM199.609 5.144V22.68H205.609V5.144H199.609ZM202.609 19.68H169.457V25.68H202.609V19.68ZM275.059 48.92L274.206 46.0436L274.433 51.8541L275.059 48.92ZM287.603 56.728L285.226 58.5595L285.236 58.5716L285.245 58.5837L287.603 56.728ZM284.402 88.472L286.327 90.7736L286.33 90.7706L284.402 88.472ZM220.659 95H217.659V98H220.659V95ZM220.659 5.144V2.144H217.659V5.144H220.659ZM282.483 11.416L280.585 13.7396L280.594 13.7473L280.604 13.7549L282.483 11.416ZM286.066 41.624L283.729 39.743L283.715 39.7605L283.702 39.7782L286.066 41.624ZM242.547 41.496H239.547V44.496H242.547V41.496ZM265.074 39.192L266.974 41.5139L266.98 41.5094L266.985 41.5049L265.074 39.192ZM265.074 25.112L263.114 27.3825L263.139 27.404L263.164 27.4249L265.074 25.112ZM242.547 22.68V19.68H239.547V22.68H242.547ZM267.122 74.904L269.033 77.2169L269.043 77.2087L267.122 74.904ZM266.995 60.184L265.019 62.4417L265.042 62.4617L265.065 62.4811L266.995 60.184ZM242.547 57.496V54.496H239.547V57.496H242.547ZM242.547 77.336H239.547V80.336H242.547V77.336ZM274.433 51.8541C278.965 52.8199 282.517 55.0447 285.226 58.5595L289.979 54.8965C286.373 50.2193 281.563 47.2388 275.684 45.9859L274.433 51.8541ZM285.245 58.5837C287.977 62.0542 289.339 66.0054 289.339 70.552H295.339C295.339 64.6879 293.542 59.4231 289.96 54.8723L285.245 58.5837ZM289.339 70.552C289.339 77.2624 287.021 82.3604 282.475 86.1734L286.33 90.7706C292.365 85.709 295.339 78.8603 295.339 70.552H289.339ZM282.478 86.1704C277.988 89.9249 271.466 92 262.514 92V98C272.337 98 280.407 95.7231 286.327 90.7736L282.478 86.1704ZM262.514 92H220.659V98H262.514V92ZM223.659 95V5.144H217.659V95H223.659ZM220.659 8.144H261.107V2.144H220.659V8.144ZM261.107 8.144C269.807 8.144 276.173 10.1365 280.585 13.7396L284.38 9.0924C278.552 4.33281 270.667 2.144 261.107 2.144V8.144ZM280.604 13.7549C285.042 17.3204 287.29 22.1045 287.29 28.44H293.29C293.29 20.4395 290.333 13.8743 284.361 9.07713L280.604 13.7549ZM287.29 28.44C287.29 33.1735 286.043 36.8686 283.729 39.743L288.404 43.505C291.722 39.3821 293.29 34.2878 293.29 28.44H287.29ZM283.702 39.7782C281.388 42.7428 278.267 44.8403 274.206 46.0436L275.911 51.7964C281.066 50.269 285.284 47.5026 288.431 43.4698L283.702 39.7782ZM242.547 44.496H256.883V38.496H242.547V44.496ZM256.883 44.496C260.839 44.496 264.357 43.6553 266.974 41.5139L263.175 36.8701C262.037 37.8008 260.094 38.496 256.883 38.496V44.496ZM266.985 41.5049C269.781 39.1953 271.018 35.9148 271.018 32.152H265.018C265.018 34.5332 264.293 35.946 263.164 36.8791L266.985 41.5049ZM271.018 32.152C271.018 28.3892 269.781 25.1087 266.985 22.7991L263.164 27.4249C264.293 28.358 265.018 29.7708 265.018 32.152H271.018ZM267.035 22.8415C264.415 20.5783 260.872 19.68 256.883 19.68V25.68C260.061 25.68 261.98 26.403 263.114 27.3825L267.035 22.8415ZM256.883 19.68H242.547V25.68H256.883V19.68ZM239.547 22.68V41.496H245.547V22.68H239.547ZM258.674 80.336C262.741 80.336 266.339 79.4422 269.033 77.2169L265.212 72.5911C263.98 73.6085 261.947 74.336 258.674 74.336V80.336ZM269.043 77.2087C271.903 74.825 273.195 71.4739 273.195 67.608H267.195C267.195 70.0568 266.438 71.5696 265.202 72.5993L269.043 77.2087ZM273.195 67.608C273.195 63.6968 271.831 60.3289 268.924 57.8869L265.065 62.4811C266.424 63.6231 267.195 65.2045 267.195 67.608H273.195ZM268.97 57.9263C266.209 55.5108 262.559 54.496 258.419 54.496V60.496C261.617 60.496 263.684 61.2732 265.019 62.4417L268.97 57.9263ZM258.419 54.496H242.547V60.496H258.419V54.496ZM239.547 57.496V77.336H245.547V57.496H239.547ZM242.547 80.336H258.674V74.336H242.547V80.336ZM323.721 92.696L322.584 95.4719L323.721 92.696ZM311.177 83.224L308.76 85.0002L308.772 85.0161L308.783 85.0318L311.177 83.224ZM306.314 68.12V65.12H303.225L303.315 68.2069L306.314 68.12ZM329.609 68.12L332.594 67.8139L332.318 65.12H329.609V68.12ZM333.065 75.8L331.043 78.0155L331.07 78.04L331.097 78.0638L333.065 75.8ZM348.426 76.184L350.26 78.5579L350.293 78.5323L350.325 78.5059L348.426 76.184ZM348.938 64.408L346.816 66.5293L346.846 66.5596L346.878 66.589L348.938 64.408ZM343.434 60.824L342.225 63.5699L342.245 63.5786L342.265 63.5869L343.434 60.824ZM334.217 57.624L333.332 60.4904L333.347 60.4949L333.361 60.4992L334.217 57.624ZM320.009 52.248L318.693 54.9437L320.009 52.248ZM310.538 44.312L312.93 42.5027L310.538 44.312ZM315.658 11.032L317.495 13.4036L317.505 13.3956L317.515 13.3875L315.658 11.032ZM363.273 11.032L361.416 13.3875L361.426 13.3956L361.436 13.4036L363.273 11.032ZM373.001 30.744V33.744H376.157L375.998 30.5927L373.001 30.744ZM349.322 30.744L346.327 30.9202L346.493 33.744H349.322V30.744ZM346.121 23.96L344.153 26.2238L344.182 26.2487L344.211 26.2729L346.121 23.96ZM332.169 23.576L334.102 25.8707L334.136 25.8417L334.17 25.8117L332.169 23.576ZM333.833 36.376L335.365 33.7964L333.833 36.376ZM346.634 41.624L347.595 38.7822L347.576 38.7758L347.557 38.7697L346.634 41.624ZM360.714 47.256L359.372 49.9393L359.384 49.9455L359.397 49.9517L360.714 47.256ZM370.185 55.064L367.814 56.9017L367.814 56.9017L370.185 55.064ZM370.185 82.2L367.65 80.5961L367.638 80.6147L367.627 80.6335L370.185 82.2ZM358.922 92.184L357.58 89.5007L358.922 92.184ZM341.385 92.896C335.14 92.896 329.648 91.8828 324.859 89.9201L322.584 95.4719C328.206 97.7759 334.489 98.896 341.385 98.896V92.896ZM324.859 89.9201C320.114 87.9753 316.381 85.1363 313.572 81.4162L308.783 85.0318C312.289 89.6744 316.918 93.15 322.584 95.4719L324.859 89.9201ZM313.595 81.4478C310.931 77.8221 309.468 73.3974 309.312 68.0331L303.315 68.2069C303.501 74.6186 305.28 80.2633 308.76 85.0002L313.595 81.4478ZM306.314 71.12H329.609V65.12H306.314V71.12ZM326.625 68.4261C327.022 72.2905 328.406 75.6079 331.043 78.0155L335.088 73.5845C333.8 72.4081 332.88 70.6055 332.594 67.8139L326.625 68.4261ZM331.097 78.0638C333.716 80.3415 337.026 81.36 340.746 81.36V75.36C338.15 75.36 336.34 74.6718 335.034 73.5362L331.097 78.0638ZM340.746 81.36C344.411 81.36 347.694 80.5404 350.26 78.5579L346.591 73.8101C345.402 74.7289 343.565 75.36 340.746 75.36V81.36ZM350.325 78.5059C352.968 76.3438 354.242 73.3643 354.242 69.912H348.242C348.242 71.7504 347.638 72.9522 346.526 73.8621L350.325 78.5059ZM354.242 69.912C354.242 66.9144 353.166 64.2755 350.997 62.227L346.878 66.589C347.781 67.4418 348.242 68.4722 348.242 69.912H354.242ZM351.059 62.2867C349.292 60.5196 347.116 59.1245 344.602 58.0611L342.265 63.5869C344.188 64.4008 345.682 65.3951 346.816 66.5293L351.059 62.2867ZM344.642 58.0781C342.338 57.0644 339.126 55.9559 335.074 54.7488L333.361 60.4992C337.33 61.6814 340.262 62.7063 342.225 63.5699L344.642 58.0781ZM335.103 54.7576C329.384 52.9915 324.807 51.2522 321.326 49.5523L318.693 54.9437C322.551 56.8278 327.446 58.6725 333.332 60.4904L335.103 54.7576ZM321.326 49.5523C318.111 47.9822 315.313 45.6539 312.93 42.5027L308.145 46.1213C311.053 49.9674 314.569 52.9298 318.693 54.9437L321.326 49.5523ZM312.93 42.5027C310.779 39.6565 309.569 35.7817 309.569 30.616H303.569C303.569 36.7143 305.006 41.9701 308.145 46.1213L312.93 42.5027ZM309.569 30.616C309.569 23.0839 312.243 17.4717 317.495 13.4036L313.82 8.66035C306.954 13.9789 303.569 21.4228 303.569 30.616H309.569ZM317.515 13.3875C322.92 9.12506 330.105 6.864 339.337 6.864V0.863998C329.114 0.863998 320.513 3.38161 313.8 8.6765L317.515 13.3875ZM339.337 6.864C348.755 6.864 356.02 9.1319 361.416 13.3875L365.131 8.6765C358.41 3.37476 349.717 0.863998 339.337 0.863998V6.864ZM361.436 13.4036C366.727 17.5017 369.618 23.219 370.005 30.8953L375.998 30.5927C375.532 21.373 371.938 13.9489 365.111 8.66035L361.436 13.4036ZM373.001 27.744H349.322V33.744H373.001V27.744ZM352.316 30.5678C352.104 26.9642 350.731 23.8766 348.032 21.6471L344.211 26.2729C345.437 27.2861 346.197 28.7212 346.327 30.9202L352.316 30.5678ZM348.09 21.6962C345.486 19.4314 342.227 18.4 338.569 18.4V24.4C341.056 24.4 342.832 25.0752 344.153 26.2238L348.09 21.6962ZM338.569 18.4C335.353 18.4 332.453 19.2964 330.169 21.3403L334.17 25.8117C335.128 24.9543 336.495 24.4 338.569 24.4V18.4ZM330.237 21.2813C327.775 23.3542 326.737 26.3003 326.737 29.592H332.737C332.737 27.593 333.321 26.5284 334.102 25.8707L330.237 21.2813ZM326.737 29.592C326.737 33.6676 328.765 36.8555 332.302 38.9556L335.365 33.7964C333.441 32.6539 332.737 31.319 332.737 29.592H326.737ZM332.302 38.9556C335.327 40.7518 339.851 42.5829 345.71 44.4783L347.557 38.7697C341.81 36.9105 337.801 35.2428 335.365 33.7964L332.302 38.9556ZM345.672 44.4658C351.405 46.4049 355.957 48.2319 359.372 49.9393L362.055 44.5727C358.302 42.6961 353.467 40.7685 347.595 38.7822L345.672 44.4658ZM359.397 49.9517C362.63 51.5306 365.434 53.8299 367.814 56.9017L372.557 53.2263C369.647 49.4714 366.136 46.5654 362.03 44.5603L359.397 49.9517ZM367.814 56.9017C369.961 59.6713 371.154 63.3711 371.154 68.248H377.154C377.154 62.3729 375.701 57.2834 372.557 53.2263L367.814 56.9017ZM371.154 68.248C371.154 72.821 369.981 76.9119 367.65 80.5961L372.721 83.8039C375.681 79.1254 377.154 73.915 377.154 68.248H371.154ZM367.627 80.6335C365.397 84.2765 362.093 87.244 357.58 89.5007L360.263 94.8673C365.648 92.1747 369.854 88.4861 372.744 83.7665L367.627 80.6335ZM357.58 89.5007C353.128 91.7265 347.761 92.896 341.385 92.896V98.896C348.492 98.896 354.816 97.5908 360.263 94.8673L357.58 89.5007ZM413.352 5.144H416.352V2.144H413.352V5.144ZM413.352 95V98H416.352V95H413.352ZM391.464 95H388.464V98H391.464V95ZM391.464 5.144V2.144H388.464V5.144H391.464ZM410.352 5.144V95H416.352V5.144H410.352ZM413.352 92H391.464V98H413.352V92ZM394.464 95V5.144H388.464V95H394.464ZM391.464 8.144H413.352V2.144H391.464V8.144ZM497.694 5.144H500.694V2.144H497.694V5.144ZM497.694 22.68V25.68H500.694V22.68H497.694ZM473.886 22.68V19.68H470.886V22.68H473.886ZM473.886 95V98H476.886V95H473.886ZM451.998 95H448.998V98H451.998V95ZM451.998 22.68H454.998V19.68H451.998V22.68ZM428.19 22.68H425.19V25.68H428.19V22.68ZM428.19 5.144V2.144H425.19V5.144H428.19ZM494.694 5.144V22.68H500.694V5.144H494.694ZM497.694 19.68H473.886V25.68H497.694V19.68ZM470.886 22.68V95H476.886V22.68H470.886ZM473.886 92H451.998V98H473.886V92ZM454.998 95V22.68H448.998V95H454.998ZM451.998 19.68H428.19V25.68H451.998V19.68ZM431.19 22.68V5.144H425.19V22.68H431.19ZM428.19 8.144H497.694V2.144H428.19V8.144ZM534.406 22.68V19.68H531.406V22.68H534.406ZM534.406 40.856H531.406V43.856H534.406V40.856ZM563.719 40.856H566.719V37.856H563.719V40.856ZM563.719 57.752V60.752H566.719V57.752H563.719ZM534.406 57.752V54.752H531.406V57.752H534.406ZM534.406 77.464H531.406V80.464H534.406V77.464ZM567.559 77.464H570.559V74.464H567.559V77.464ZM567.559 95V98H570.559V95H567.559ZM512.519 95H509.519V98H512.519V95ZM512.519 5.144V2.144H509.519V5.144H512.519ZM567.559 5.144H570.559V2.144H567.559V5.144ZM567.559 22.68V25.68H570.559V22.68H567.559ZM531.406 22.68V40.856H537.406V22.68H531.406ZM534.406 43.856H563.719V37.856H534.406V43.856ZM560.719 40.856V57.752H566.719V40.856H560.719ZM563.719 54.752H534.406V60.752H563.719V54.752ZM531.406 57.752V77.464H537.406V57.752H531.406ZM534.406 80.464H567.559V74.464H534.406V80.464ZM564.559 77.464V95H570.559V77.464H564.559ZM567.559 92H512.519V98H567.559V92ZM515.518 95V5.144H509.519V95H515.518ZM512.519 8.144H567.559V2.144H512.519V8.144ZM564.559 5.144V22.68H570.559V5.144H564.559ZM567.559 19.68H534.406V25.68H567.559V19.68Z" fill="#EFEFEF" mask="url(#path-1-outside-1_1688_216)"/>
</svg>
