<svg width="70" height="71" viewBox="0 0 70 71" fill="none" xmlns="http://www.w3.org/2000/svg">
<mask id="mask0_1452_5706" style="mask-type:alpha" maskUnits="userSpaceOnUse" x="0" y="0" width="70" height="71">
<circle cx="35" cy="35.8203" r="35" fill="#D9D9D9"/>
</mask>
<g mask="url(#mask0_1452_5706)">
<path d="M54.1874 64.7162C54.0267 64.8309 53.8431 64.9457 53.6825 65.0604C53.4989 65.1752 53.3382 65.29 53.1546 65.3818C52.9939 65.4736 52.8562 65.5654 52.6956 65.6572C52.6726 65.6801 52.6497 65.6801 52.6267 65.7031C52.0988 66.0244 51.548 66.3228 50.9972 66.5982C50.8365 66.69 50.6529 66.7818 50.4923 66.8506C50.4923 66.8506 50.4693 66.8736 50.4464 66.8736C50.2628 66.9654 50.0792 67.0572 49.8955 67.149C49.5283 67.3326 49.1382 67.4933 48.7709 67.6539C48.5873 67.7457 48.3808 67.8146 48.1972 67.8834C48.0136 67.9523 47.807 68.0441 47.6234 68.1129C47.4398 68.1818 47.2332 68.2736 47.0496 68.3425C47.0496 68.3425 47.0496 68.3425 47.0267 68.3425C46.8431 68.4113 46.6365 68.4802 46.4529 68.549C46.0398 68.6867 45.6037 68.8244 45.1906 68.9621C45.0529 69.008 44.8922 69.0539 44.7545 69.0998C44.3184 69.2375 43.8824 69.3523 43.4463 69.4441C43.2856 69.49 43.125 69.513 42.9414 69.5589C42.5283 69.6507 42.0922 69.7425 41.6791 69.8343C41.5873 69.8572 41.5184 69.8572 41.4266 69.8802C41.2889 69.9031 41.1282 69.9261 40.9905 69.949C40.784 69.972 40.6004 70.0179 40.3938 70.0408C40.302 70.0638 40.2102 70.0638 40.1184 70.0867C40.0036 70.1097 39.8659 70.1326 39.7282 70.1326C39.361 70.1785 38.9708 70.2244 38.6036 70.2703C38.4889 70.2933 38.3512 70.2933 38.2364 70.3162H38.2135C38.0528 70.3392 37.8921 70.3392 37.7315 70.3621C37.5708 70.3851 37.4102 70.3851 37.2495 70.3851C37.1577 70.3851 37.0429 70.408 36.9511 70.408C36.7675 70.408 36.6069 70.431 36.4462 70.431C36.2167 70.431 36.0102 70.4539 35.7806 70.4539C35.5511 70.4539 35.3446 70.4539 35.1151 70.4539C34.9544 70.4539 34.7937 70.4539 34.6331 70.4539C24.9477 70.3162 16.2493 66.208 10.0295 59.6899C10.0295 59.6899 10.0295 59.6669 10.0066 59.6669C9.31806 59.0473 9.91479 55.7423 12.6919 53.6538C16.1804 51.0144 24.5346 49.3619 24.5346 49.3619C24.5346 49.3619 27.7707 48.834 39.7741 51.3357C46.7971 52.8046 52.1447 54.939 55.1284 60.7227C55.7481 61.9162 56.3677 63.7522 54.1874 64.7162Z" fill="white"/>
<path d="M39.8428 51.0836C44.2494 51.9787 48.9544 52.9427 52.5806 55.8575C53.797 56.8444 54.6003 58.2903 55.2659 59.6903C55.5872 60.3788 55.9085 61.0903 56.161 61.8477C56.2987 62.3526 56.5053 62.9264 56.3905 63.5231C56.3676 63.6838 56.2299 63.8903 56.1151 64.0051C55.5872 64.533 55.0134 64.8543 54.4397 65.2674C51.0659 67.6084 47.1871 69.2609 43.1707 70.133C34.2198 72.0839 24.5344 70.5691 16.6622 65.8641C14.0458 64.2805 11.6359 62.3526 9.57033 60.0805C9.34082 59.8051 9.34082 59.346 9.34082 59.0477C9.36377 58.3591 9.54738 57.6936 9.77689 57.0739C10.3277 55.6509 11.0392 54.2279 12.2556 53.241C13.1277 52.6443 14.0687 52.1394 15.0327 51.7263C18.0622 50.441 21.2524 49.5459 24.5344 49.1787C24.8098 49.1558 24.8557 49.5459 24.5803 49.5918C21.436 50.2345 18.3147 51.1984 15.3999 52.5066C14.3442 53.0345 13.2196 53.4935 12.3704 54.3197C11.5671 55.1919 10.9933 56.2706 10.5343 57.3722C10.2359 58.0378 10.0294 59.0936 10.1212 59.6214C11.5671 61.3428 13.2655 62.8575 15.1015 64.1658C25.1541 71.1888 40.4166 71.6478 51.1118 65.7953C52.0757 65.2674 53.0167 64.6707 53.9118 64.051C54.3479 63.7526 54.8069 63.5002 55.1511 63.1559C55.1741 63.133 55.1511 63.1559 55.1511 63.1789C55.1511 63.2018 55.1282 63.2248 55.1282 63.2248C55.1511 62.9493 55.0593 62.5821 54.9446 62.2149C54.5315 60.8838 53.8659 59.4837 53.1544 58.2673C52.0298 56.4542 50.1249 55.3066 48.197 54.3886C46.8658 53.7689 45.4658 53.287 44.0428 52.8279C42.6199 52.3689 41.174 51.9787 39.728 51.6345C39.3608 51.5427 39.4756 51.0148 39.8428 51.0836Z" fill="#35CEAF"/>
<path d="M54.1873 64.7172C54.0266 64.8319 53.843 64.9467 53.6824 65.0614C53.4988 65.1762 53.3381 65.2909 53.1545 65.3827C52.9938 65.4745 52.8561 65.5663 52.6955 65.6582C52.6725 65.6811 52.6496 65.6811 52.6266 65.7041C52.0987 66.0254 51.5479 66.3237 50.9971 66.5991C50.8364 66.691 50.6528 66.7828 50.4922 66.8516C50.4922 66.8516 50.4692 66.8746 50.4463 66.8746C50.2627 66.9664 50.079 67.0582 49.8954 67.15C49.5282 67.3336 49.1381 67.4942 48.7708 67.6549C48.5872 67.7467 48.3807 67.8156 48.1971 67.8844C48.0135 67.9533 47.8069 68.0451 47.6233 68.1139C47.4397 68.1828 47.2331 68.2746 47.0495 68.3434C47.0495 68.3434 47.0495 68.3434 47.0266 68.3434C46.8429 68.4123 46.6364 68.4811 46.4528 68.55C46.0397 68.6877 45.6036 68.8254 45.1905 68.9631C45.0528 69.009 44.8921 69.0549 44.7544 69.1008C44.3183 69.2385 43.8823 69.3533 43.4462 69.4451C43.2855 69.491 43.1249 69.5139 42.9413 69.5598C42.5281 69.6516 42.0921 69.7434 41.679 69.8352C41.5872 69.8582 41.5183 69.8582 41.4265 69.8811C41.2888 69.9041 41.1281 69.9271 40.9904 69.95C40.7839 69.973 40.6003 70.0189 40.3937 70.0418C40.3019 70.0648 40.2101 70.0648 40.1183 70.0877C40.0035 70.1107 39.8658 70.1336 39.7281 70.1336C39.3609 70.1795 38.9707 70.2254 38.6035 70.2713C38.4888 70.2943 38.3511 70.2943 38.2363 70.3172H38.2133C38.0527 70.3402 37.892 70.3402 37.7314 70.3631C37.5707 70.3861 37.4101 70.3861 37.2494 70.3861C37.1576 70.3861 37.0428 70.409 36.951 70.409C36.7674 70.409 36.6068 70.432 36.4461 70.432C36.2166 70.432 36.01 70.4549 35.7805 70.4549C35.551 70.4549 35.3445 70.4549 35.1149 70.4549C34.9543 70.4549 34.7936 70.4549 34.633 70.4549C24.9476 70.3172 16.2492 66.209 10.0294 59.6909C10.0294 59.6909 10.0294 59.6679 10.0065 59.6679C9.31795 59.3237 9.79992 55.399 12.577 53.3105C16.0656 50.6711 24.5345 49.3629 24.5345 49.3629C24.5345 49.3629 27.7706 48.835 39.774 51.3367C46.2003 52.6679 52.1676 54.7794 54.3479 58.4515C54.9447 59.4614 56.3906 61.4352 56.1381 62.927C56.0004 63.7303 54.8758 64.0975 54.1873 64.7172Z" fill="white"/>
<path d="M39.8428 51.0847C44.1117 52.0027 49.115 52.806 52.6265 55.5831C54.8758 57.3733 55.6102 60.2192 56.6889 62.7897C56.7807 62.9504 56.6889 63.111 56.62 63.2487C56.0004 64.2127 54.9905 64.8553 54.0725 65.4979C51.3872 67.3111 48.3806 68.6881 45.2822 69.5832C34.9083 72.5898 23.1803 70.7078 14.3901 64.3963C12.6228 63.134 10.9933 61.6881 9.54739 60.0815L9.66215 60.1733C9.29493 59.9208 9.20312 59.4618 9.20312 59.0716C9.31788 57.4651 10.0294 55.9962 10.7408 54.5732C10.9704 54.1601 11.2228 53.7011 11.59 53.3798C14.9638 50.2814 20.518 49.0879 24.9476 48.6748C25.223 48.6519 25.2459 49.042 24.9935 49.0879C20.8852 49.8453 16.6163 50.8093 13.1278 53.1962C12.6687 53.5634 12.1179 53.9306 11.7966 54.4355C11.2687 55.2618 9.40968 58.8421 10.0982 59.5766C14.895 65.2914 22.1016 68.5734 29.423 69.4455C36.6296 70.4095 44.2265 69.4226 50.6757 66.0029C51.5937 65.5209 52.4888 64.993 53.338 64.3963C54.1184 63.8684 54.8987 63.3635 55.4954 62.652L55.4725 62.6979L55.4495 63.111C55.3807 62.2618 54.9446 61.4356 54.6692 60.6323C54.3479 59.829 54.0036 58.9798 53.5905 58.2454C52.7642 56.7536 51.3413 55.6978 49.8495 54.8945C48.3117 54.0683 46.6363 53.4716 44.915 52.9667C43.1937 52.4617 41.4723 52.0257 39.7051 51.6355C39.3608 51.5437 39.4756 51.0158 39.8428 51.0847Z" fill="#35CEAF"/>
<path d="M13.0591 52.8052C13.0591 52.8052 14.2066 52.9429 15.7903 53.9068C18.7509 55.72 23.3871 66.989 15.3083 73.7366C15.3083 73.7366 13.8624 82.1826 15.3083 83.7891C15.3083 83.7891 41.7479 85.1203 53.1546 83.7891C53.1546 83.7891 54.6694 78.8317 53.9349 73.53C53.0169 66.8053 53.2923 59.7364 48.8627 53.7003C46.8431 50.9462 36.7216 48.5592 30.8691 48.6051C24.9477 48.674 22.492 49.2937 20.9313 49.6838C19.3477 50.097 13.1738 51.5888 13.0591 52.8052Z" fill="#35CEAF" stroke="#35CEAF" stroke-width="0.276907" stroke-miterlimit="10" stroke-linecap="round" stroke-linejoin="round"/>
<path d="M13.7476 53.7235C16.5246 51.176 16.2033 53.3334 21.4132 52.4842C23.41 52.1629 25.7739 50.5104 28.8264 50.5792C31.0297 50.6251 33.4166 52.2776 36.2396 52.6448C38.5118 52.9432 41.22 51.9104 43.9282 52.4612C46.2004 52.9432 48.3119 54.9399 50.9283 55.6514" stroke="white" stroke-width="0.216093" stroke-miterlimit="10" stroke-linecap="round" stroke-linejoin="round"/>
<path d="M13.9541 56.7758C17.2132 54.825 16.5935 56.8676 21.7575 56.1561C23.8001 55.8807 26.2329 54.1824 29.2625 54.2053C31.5117 54.2283 33.9445 55.8578 36.7904 56.1332C39.1085 56.3627 41.8167 55.2381 44.5479 55.6971C46.8889 56.1102 49.0692 58.084 51.7086 58.7037" stroke="white" stroke-width="0.216093" stroke-miterlimit="10" stroke-linecap="round" stroke-linejoin="round"/>
<path d="M14.1602 59.8507C17.7405 58.4278 16.9602 60.3557 22.0783 59.8048C24.1898 59.5753 26.6685 57.877 29.698 57.877C31.9931 57.877 34.4948 59.4835 37.3407 59.713C39.7047 59.8966 42.4359 58.6573 45.167 59.0475C47.554 59.3917 49.8261 61.3196 52.5114 61.8475" stroke="white" stroke-width="0.216093" stroke-miterlimit="10" stroke-linecap="round" stroke-linejoin="round"/>
<path d="M14.3672 62.973C18.1541 62.032 17.282 63.8451 22.3542 63.432C24.5116 63.2484 27.0591 61.573 30.0887 61.55C32.4526 61.5271 35.0231 63.1337 37.8691 63.2943C40.3019 63.432 43.0101 62.0779 45.7872 62.3763C48.243 62.6287 50.6299 64.5107 53.3381 64.9468" stroke="white" stroke-width="0.216093" stroke-miterlimit="10" stroke-linecap="round" stroke-linejoin="round"/>
<path d="M14.5278 66.0936C18.4525 65.5427 17.5115 67.2641 22.5837 67.0116C24.8099 66.8969 27.4263 65.2214 30.4788 65.1985C32.8887 65.1755 35.5281 66.8051 38.3969 66.8969C40.8757 66.9887 43.6068 65.5427 46.4069 65.7264C48.9315 65.91 51.4331 67.7231 54.1643 68.0215" stroke="white" stroke-width="0.216093" stroke-miterlimit="10" stroke-linecap="round" stroke-linejoin="round"/>
<path d="M14.6885 69.2149C18.7049 68.9854 17.741 70.6608 22.8132 70.546C25.1083 70.5001 27.7935 68.8477 30.846 68.8477C33.3247 68.8477 36.01 70.4772 38.9019 70.5231C41.4494 70.569 44.2035 69.0313 47.0036 69.1231C49.597 69.2149 52.2135 70.9592 54.9906 71.1198" stroke="white" stroke-width="0.216093" stroke-miterlimit="10" stroke-linecap="round" stroke-linejoin="round"/>
<path d="M42.0004 57.1876C41.5184 59.5516 38.3971 60.9745 33.1413 58.8401C27.6789 56.6368 25.315 51.381 24.7183 49.8203C27.9544 43.7612 25.7052 39.5612 25.7052 39.5612C33.1643 38.9186 39.6824 47.64 39.6824 47.64L40.6922 51.9548C40.784 52.322 40.9676 52.6433 41.243 52.8728C41.725 53.722 42.2988 55.6728 42.0004 57.1876Z" fill="white"/>
<path d="M24.6034 49.8894C25.0395 49.2238 25.3149 48.4435 25.4985 47.6861C25.8428 46.1025 25.9576 44.4959 25.9805 42.8894V42.2926C25.9117 41.6959 25.7051 41.0762 25.4756 40.5254C25.1772 39.791 26.2559 39.3319 26.6002 40.0664C26.6461 40.1582 26.6461 40.3188 26.6461 40.4106C26.7149 43.532 26.8527 47.5484 24.8789 50.1419C24.7412 50.2796 24.4657 50.073 24.6034 49.8894Z" fill="#35CEAF"/>
<path d="M39.9347 47.5937C40.2789 47.8002 40.3937 48.0756 40.4396 48.351C40.5773 48.9019 40.5314 49.4986 40.6691 50.0724C40.7839 50.6232 41.1281 51.1511 41.2199 51.7249C41.3347 52.3216 41.679 53.5839 41.8167 54.2036C41.8626 54.3413 41.7708 54.5019 41.6101 54.5249C41.5183 54.5478 41.4495 54.5249 41.3806 54.479C41.0822 54.2265 40.9445 53.9741 40.7609 53.6527C40.4626 53.1019 40.256 52.597 40.0724 51.9773C39.9117 51.4265 39.9806 50.8298 39.8429 50.256C39.7281 49.7052 39.4068 49.1773 39.2921 48.6035C39.2232 48.3281 39.2002 48.0297 39.4068 47.6855C39.5445 47.5478 39.774 47.5019 39.9347 47.5937Z" fill="#35CEAF"/>
<path d="M41.5873 53.6535C37.2037 53.424 33.6233 52.0469 30.1348 45.8271C33.0725 48.4206 36.5381 49.4075 40.1873 49.8665L40.6693 51.978C40.7611 52.3452 41.3119 53.424 41.5873 53.6535Z" fill="#35CEAF"/>
<path d="M41.4038 52.8044C42.1841 54.2732 42.6431 56.1093 42.1612 57.7388C41.794 58.8864 40.7382 59.7356 39.5907 60.0569C36.9283 60.7684 33.8529 59.6438 31.4889 58.3815C28.5741 56.7519 26.4167 54.0208 25.0397 51.0371C24.9479 50.8076 25.2692 50.624 25.4069 50.8535C25.8889 51.8175 26.4397 52.7585 27.0594 53.6076C27.679 54.4798 28.3905 55.2831 29.1938 55.9946C31.5348 58.1061 34.7021 59.4143 37.8693 59.4143C41.1284 59.3225 42.3677 57.6011 41.6103 54.4339C41.4956 53.929 41.312 53.4011 41.0595 52.965C40.9218 52.7814 41.2661 52.5748 41.4038 52.8044Z" fill="#35CEAF"/>
<path d="M50.2859 25.2404C50.699 27.1683 50.9056 28.7289 49.781 33.87C48.6793 38.988 51.3646 40.0438 45.0072 48.2373C42.4137 51.5882 36.1251 50.6472 31.03 47.1816C29.3086 46.0111 28.5742 43.0045 27.2889 40.87C26.2791 39.1946 25.8201 40.9389 24.4889 39.493C22.6758 37.5192 20.4954 33.5486 21.5741 26.5256C23.3184 15.1419 32.3382 13.8107 39.0169 15.073C45.7416 16.3583 49.1843 20.1682 50.2859 25.2404Z" fill="white"/>
<path d="M25.6361 41.5356C25.1083 40.6405 24.4197 39.8602 23.7771 39.0339C23.1574 38.1847 22.6525 37.2437 22.2394 36.2798C19.5082 29.5781 20.5639 20.1452 27.2657 16.1976C30.0427 14.591 33.3936 14.2009 36.5149 14.4533C43.1937 14.9353 49.3216 18.0108 50.7675 25.0797C51.5479 28.201 50.4921 31.4142 49.8954 34.4667C49.62 35.9814 49.8495 37.5421 49.8266 39.1028C49.8036 40.6864 49.3675 42.27 48.7708 43.7389C48.4036 44.7487 47.761 45.6438 47.0954 46.4701C45.9937 47.8012 44.8921 49.1554 43.4921 50.1881C43.1707 50.4177 42.597 50.5324 42.2068 50.5783C41.1281 50.739 40.0723 50.7849 38.9936 50.716C34.7707 50.5324 30.2493 48.4898 28.5509 44.4045C28.4821 44.2438 28.7116 44.1291 28.8034 44.2668C31.0067 47.7553 35.0461 49.4767 39.0625 49.7062C40.3019 49.775 41.5642 49.7521 42.7806 49.4996C43.3773 49.2013 43.9052 48.6734 44.4101 48.1914C45.6495 46.952 46.9118 45.6209 47.8069 44.1061C48.8856 42.0635 49.4823 39.8372 49.2987 37.5192C49.2528 36.4864 49.2298 35.4077 49.4364 34.3749C49.62 33.3421 49.8495 32.3552 49.9872 31.2994C50.1249 30.2896 50.1938 29.2568 50.1938 28.2469C50.079 25.2862 49.1151 22.2337 47.2331 19.9386C43.0789 14.7747 33.2559 13.4205 27.7247 16.955C24.2361 19.1124 22.6066 23.1518 22.0787 27.0764C21.2754 31.7814 21.5049 36.4175 25.246 39.8372L26.3476 40.9848C26.7837 41.4897 26.0033 42.0864 25.6361 41.5356Z" fill="#35CEAF"/>
<path d="M28.3442 34.2368C28.3442 34.2368 27.6328 30.7941 24.2819 31.2073C21.3901 31.5745 20.3802 38.5057 26.9442 40.4336" fill="white"/>
<path d="M26.6459 37.4279C26.118 37.1296 25.7508 36.6246 25.7279 36.005C25.7508 35.5459 25.8197 35.0181 25.7049 34.5591C25.6361 34.123 25.177 34.0082 24.8328 34.0312C24.4656 34.1 24.236 34.5591 24.1672 34.9263C24.1672 34.9492 24.1442 35.0181 24.1442 35.041C24.1213 35.1558 23.9377 35.1558 23.8918 35.041C23.5934 34.1459 24.259 33.159 25.2229 33.2738C26.5771 33.3656 26.7607 34.7886 26.5082 35.8673C26.3705 36.3263 26.5541 36.7394 26.8066 37.1296L26.8525 37.1984C26.9672 37.3361 26.7836 37.5197 26.6459 37.4279Z" fill="#35CEAF"/>
<path d="M45.0069 31.8048C45.3512 33.4343 45.9938 34.9491 46.7971 36.3721C47.5086 38.1164 45.6725 39.7688 44.043 39.7C43.8594 39.7 43.8364 39.4475 43.9971 39.4016C45.0299 39.0803 45.9709 38.3918 46.1315 37.336C46.2004 37.0147 46.1086 36.7393 45.9479 36.4639C45.1905 35.0409 44.7315 33.4114 44.8463 31.8048C44.8463 31.6901 45.0069 31.6901 45.0069 31.8048Z" fill="#35CEAF"/>
<path d="M28.2297 34.2599C27.7018 32.9058 26.5542 31.6206 25.0165 31.6435C24.8788 31.6206 24.6493 31.6665 24.5116 31.6665C24.1214 31.6894 23.8001 31.8271 23.5017 32.1025C22.0329 33.5714 22.2853 36.1649 23.4788 37.7944C23.8919 38.3682 24.4198 38.8731 25.0165 39.2862C25.6132 39.6993 26.2788 40.0207 26.9903 40.2961C27.151 40.342 27.0821 40.5944 26.9214 40.5715C25.3837 40.2502 23.9149 39.4928 22.905 38.2305C21.3443 36.3485 21.023 33.2042 22.8821 31.3681C23.2952 31.0009 23.869 30.7255 24.4427 30.7255C24.6263 30.7255 24.9018 30.6796 25.0854 30.7255C26.0493 30.7714 26.9674 31.2534 27.5641 32.0107C28.092 32.6534 28.3903 33.4337 28.4821 34.214C28.4821 34.3517 28.2756 34.3976 28.2297 34.2599Z" fill="#35CEAF"/>
<path d="M42.7346 41.9033C42.7575 42.2705 42.4821 42.9131 41.9772 43.3721C39.3837 41.7885 38.2132 42.6147 38.2132 42.6147C37.2952 41.2147 37.5017 39.3098 39.728 40.7557C41.2657 41.7655 42.2296 41.9262 42.7346 41.9033Z" fill="#35CEAF"/>
<path d="M41.9544 43.3947C41.4036 43.8767 40.5773 44.175 39.4527 43.716C38.9249 43.5095 38.5117 43.0963 38.1904 42.6373C38.2134 42.6373 39.3609 41.8111 41.9544 43.3947Z" fill="white"/>
<path d="M43.1706 41.8343C43.1706 41.8343 42.2066 42.3622 39.7279 40.7786C36.7672 38.8737 37.3639 42.8671 39.4525 43.7163C41.6328 44.6114 42.7574 42.6606 42.7345 41.9261" stroke="#35CEAF" stroke-width="0.16207" stroke-miterlimit="10" stroke-linecap="round" stroke-linejoin="round"/>
<path d="M38.2134 42.6373C38.2134 42.6373 39.3839 41.8111 41.9774 43.3947" stroke="#35CEAF" stroke-width="0.16207" stroke-miterlimit="10" stroke-linecap="round" stroke-linejoin="round"/>
<path d="M39.8202 29.3709C40.3252 29.4398 40.7153 28.9119 40.5317 28.407C40.4399 28.1316 40.2793 27.8791 40.0268 27.7184C39.2465 27.2365 36.3317 27.1906 34.794 28.2922C33.4169 29.3021 37.5251 29.0496 39.8202 29.3709Z" fill="#35CEAF"/>
<path d="M46.1776 29.6234C45.7645 29.6234 45.512 29.0955 45.7186 28.6594C45.8333 28.4299 45.994 28.2233 46.2235 28.1086C46.935 27.7643 48.8399 27.9709 49.6891 29.1414C50.4465 30.1742 48.0825 29.6004 46.1776 29.6234Z" fill="#35CEAF"/>
<path d="M38.9712 32.3319C37.8007 31.827 36.4696 31.9647 35.2532 32.2401C35.1155 32.286 35.0236 32.1024 35.1384 32.0106C36.1942 31.1384 38.1909 31.0237 39.0401 32.2171C39.1089 32.263 39.063 32.3548 38.9712 32.3319Z" fill="#35CEAF"/>
<path d="M47.9907 32.8134C47.4399 32.4232 46.6366 32.4921 45.9939 32.5609C45.7644 32.5839 45.5349 32.6298 45.2824 32.6986C45.2136 32.7216 45.1447 32.6068 45.1906 32.5609L45.2365 32.515C45.8103 31.9183 46.7054 31.7806 47.4857 32.079C47.7612 32.1937 48.0366 32.3544 48.1743 32.6757C48.2431 32.7904 48.0825 32.9052 47.9907 32.8134Z" fill="#35CEAF"/>
<path d="M52.1228 29.0735C53.1556 25.539 51.3654 23.0832 50.0801 21.8898C49.4834 20.2832 48.4736 18.6996 46.867 17.4832C46.5457 17.2307 46.2014 17.0012 45.8112 16.7946C45.4899 16.611 45.1457 16.4504 44.8014 16.2897C41.7719 14.9815 36.9292 13.4438 32.1324 14.27C30.2963 14.5684 28.4602 15.234 26.7389 16.3586C26.716 16.3586 26.716 16.3815 26.716 16.3815C26.5782 16.4733 26.4405 16.5651 26.3258 16.6569C26.0045 16.2668 25.6373 15.9225 25.2241 15.6012C22.3552 13.4438 19.2339 13.811 17.0765 16.7028C14.9191 19.5717 14.5519 23.8636 17.4208 26.021C18.3159 26.6866 19.3257 27.0997 20.3585 27.2603C20.3356 27.3751 20.3356 27.5128 20.3126 27.6275C19.0503 38.9424 27.7028 44.0376 27.0373 40.4801C26.8537 40.4113 26.7619 40.3424 26.7619 40.2965C20.4044 38.2768 21.4143 31.4833 24.2831 31.1161C25.3159 30.9784 26.0733 31.2309 26.67 31.5981C26.8996 31.8276 27.1061 32.0342 27.3127 32.2407C27.8635 32.9292 28.3455 33.8014 28.3455 34.1456C28.3684 33.8702 28.3914 33.5489 28.4602 33.2276C31.2373 35.2932 33.739 34.5588 38.2833 27.3062C41.2899 22.5095 43.0801 21.5685 44.067 21.7062C44.4571 21.8439 44.8243 22.1422 45.1686 22.6472C45.2604 22.7849 45.3522 22.9226 45.4211 23.0603C47.4408 23.0144 48.3818 24.1849 48.8637 25.4013C48.8637 25.4013 48.8637 25.4013 48.8637 25.4242C49.2539 26.457 49.2998 27.5128 49.3457 27.7882C49.3457 27.8341 49.3457 27.8571 49.3687 27.8571C49.3228 28.7751 49.208 30.3358 49.185 32.3555C49.185 33.2735 49.2768 35.1096 49.208 36.1653C49.185 36.4867 49.1621 36.808 49.1391 37.1063C49.1162 37.267 49.1162 37.4277 49.0932 37.5654C49.0703 37.7031 49.0703 37.8637 49.0473 38.0244C49.0244 38.208 49.0014 38.3686 49.0014 38.5523C49.4605 39.1031 50.126 39.1949 50.6769 39.5621C50.8146 38.0014 50.4015 36.6932 50.2408 34.926C50.3785 35.5227 50.5621 36.0965 50.8375 36.6932C51.7556 38.667 51.2506 40.1129 51.2506 40.1129L52.7654 40.2047C52.9261 39.7687 53.0638 38.9654 52.5818 37.9096C51.8474 36.2801 51.8015 35.5227 51.8015 35.5227C51.8015 35.5227 52.1916 36.8539 52.9261 37.749C53.4998 38.4834 53.7294 39.4703 53.4998 40.2506L54.0507 40.2965C55.7031 37.8178 50.5851 34.2834 52.1228 29.0735ZM33.3947 31.0702C31.6504 32.3325 30.1816 32.0801 29.2865 31.6899C29.3094 31.6899 29.3324 31.6669 29.3324 31.6669C29.8832 31.621 30.434 31.5063 30.9619 31.2997C33.4865 30.4046 35.8275 28.0866 37.8931 25.9521C36.1488 28.1095 34.4734 30.2899 33.3947 31.0702Z" fill="#35CEAF"/>
<path d="M66.145 20.1687C80.0763 46.9985 55.5875 77.2709 26.3938 69.8807C13.2887 66.6216 2.75417 55.2608 0.573823 41.9263C-1.90489 28.6606 4.08534 14.4079 15.2855 6.90294C30.6397 -3.65455 51.9154 -0.143035 62.9089 14.9588C62.9778 15.0276 62.9548 15.1424 62.863 15.2112C62.7942 15.2801 62.6794 15.2571 62.6105 15.1653C61.0958 13.2145 59.3745 11.4473 57.4925 9.86363C54.3941 7.22426 50.7678 5.15866 46.935 3.75865C27.4266 -3.31028 6.01323 8.44066 1.74433 28.8442C-3.0754 51.7034 16.3642 72.7495 39.5447 69.6053C57.4236 67.356 70.7123 50.8542 69.2434 32.9065C68.9221 28.5687 67.7745 24.2769 65.8696 20.3293C65.8237 20.2605 65.8696 20.1687 65.9385 20.1228C66.0073 20.0769 66.0991 20.0998 66.145 20.1687Z" fill="#35CEAF"/>
</g>
</svg>
